<svg width="401" height="116" viewBox="0 0 401 116" fill="none" xmlns="http://www.w3.org/2000/svg">
<path d="M119.617 61.1979C119.617 62.2627 119.617 63.3275 119.617 64.3923C119.617 64.4093 119.946 63.9108 120.229 63.809C121.131 63.4839 122.805 63.5542 123.729 63.809C127.398 64.8212 131.808 64.1979 135.562 64.1979C139.821 64.1979 144.08 64.1979 148.34 64.1979C184.756 64.1979 221.188 63.1979 257.59 63.1979C264.497 63.1979 271.405 63.1979 278.312 63.1979C279.263 63.1979 281.976 63.6721 282.812 63.1145C283.505 62.6528 283.324 58.5715 282.84 58.0868C282.092 57.3392 282.617 61.7178 282.617 59.9479C282.617 58.5237 281.767 59.9705 281.395 60.4479C280.423 61.6975 278.668 61.1979 277.117 61.1979C272.399 61.1979 267.654 61.6979 262.895 61.6979C223.797 61.6979 184.767 63.6979 145.645 63.6979C137.645 63.6979 129.645 63.6979 121.645 63.6979C120.813 63.6979 117.308 64.2812 117.145 63.1423C116.967 61.8916 116.749 60.3322 117.867 61.9479C119.079 63.6983 118.117 60.9557 118.117 62.6979" stroke="black" stroke-width="3" stroke-linecap="round"/>
<path d="M176.618 72.6978C179.911 74.6583 182.1 74.8177 185.784 75.3089C186.303 75.378 188.78 75.6164 187.618 76.1978" stroke="black" stroke-width="3" stroke-linecap="round"/>
</svg>
