<svg width="401" height="116" viewBox="0 0 401 116" fill="none" xmlns="http://www.w3.org/2000/svg">
<path d="M175 63.8765C179.504 59.0505 181.639 52.2752 186.056 47.5431C186.375 47.2004 189.895 42.245 190.389 43.0987C192.02 45.916 193.536 48.7077 195.5 51.3765C196.856 53.2192 199.484 56.3964 201.278 53.7654C203.013 51.2206 205.358 47.9186 207.75 45.9042C209.346 44.5601 210.331 41.9872 212.111 44.0987C214.424 46.8421 216.321 50.1665 218.111 53.2654C220.379 57.1901 222.282 61.2172 224.5 65.0987C224.98 65.9385 225.909 66.4648 226.389 67.3765C226.958 68.457 226.735 69.68 225.5 68.3765C224.608 67.435 223.534 65.7725 223 64.5709C222.169 62.7001 220.909 62.5482 219.25 61.6265C217.582 60.6997 214.38 61.3765 212.556 61.3765C209.62 61.3765 206.685 61.3765 203.75 61.3765C200.779 61.3765 197.804 61.4229 194.833 61.3765C192.28 61.3366 189.91 60.4261 187.278 60.3765C185.596 60.3447 184.29 59.7465 182.75 59.4042C182.341 59.3133 179.409 59.5782 179.361 59.2931C179.258 58.6754 183.763 54.6567 184.5 53.8765C185.872 52.4234 186.567 50.532 188 49.0987C189.001 48.0973 189.139 48.5144 189.528 47.1542C190.077 45.2327 191.423 46.2336 192.222 47.7931C193.615 50.5123 193.325 53.5111 196.278 54.9876C196.686 55.1916 198.118 56.4482 197.167 56.7654C193.708 57.9182 189.937 54.9847 186.611 55.4598C185.59 55.6056 188.677 58.0995 188.972 58.3209C189.73 58.8893 192.559 59.3765 191.611 59.3765C188.846 59.3765 185.817 58.8451 183.111 58.2654C181.974 58.0217 182.291 58.2774 183.222 58.6542C185.154 59.436 187.929 59.3272 190 59.3765C193.451 59.4586 189.755 57.1585 188.611 55.9876C185.076 52.3706 190.69 54.1025 192.722 54.6542C195.634 55.4446 196.668 56.6077 193.083 55.3209C190.685 54.4601 187.43 53.9752 185.667 51.9598C184.784 50.9506 187.222 52.157 187.5 52.4042C189.121 53.845 190.681 54.6953 192.5 55.7654C194.293 56.8199 194.752 58.7886 197.389 58.8765C199.266 58.939 206.988 60.0099 207.75 57.8765C208.299 56.3381 207.751 54.6753 208.111 53.0987C208.303 52.2594 209.718 50.2192 208.778 52.0987C207.892 53.8707 206.044 54.6025 205.028 56.1265C203.544 58.3518 204.385 56.8521 205.778 55.5709C207.488 53.9977 209.031 51.1461 211 49.9876C211.6 49.6347 212.343 47.1947 212.889 46.3765C213.097 46.0643 213 47.9485 213 48.1542C213 50.7142 213.368 53.3165 214.778 55.5154C215.001 55.863 217.684 58.8163 216.917 57.7931C215.808 56.3145 214.575 55.0964 213.25 53.8209C212.681 53.2727 210.71 50.7581 210.861 50.9598C211.876 52.313 213.399 53.2572 214.472 54.5987C214.763 54.9627 216.865 56.8209 215.611 56.8209C213.012 56.8209 210.194 56.3726 207.611 56.0987C207.343 56.0703 203.94 55.1588 203.611 55.4876C202.682 56.417 205.656 56.8687 205.889 56.8765C206.668 56.9024 212.501 56.9541 208.944 57.4876C206.109 57.9128 203.5 57.3814 203.5 60.8209C203.5 64.332 208.316 58.5534 208.75 57.5709C210.333 53.9884 210.623 50.9018 210.5 47.0987C210.486 46.6799 206.482 52.1295 206.028 53.3209C203.868 58.9906 206.211 53.2689 206.722 50.932C207.692 46.4967 206.96 51.9813 207 53.7654C207.034 55.2916 207.578 57.485 208.889 58.3765C209.66 58.9011 216.107 57.8765 211 57.8765C207.114 57.8765 213.39 57.947 214.389 57.7654C218.141 57.0831 213.135 54.7897 212.111 53.7654C211.572 53.2267 210.688 52.2226 211.111 51.3765C211.343 50.9124 212 49.5798 212 50.0987C212 53.3185 210.105 54.2252 207.5 54.8765" stroke="black" stroke-width="3" stroke-linecap="round"/>
<path d="M192 72.3765C198.078 74.2468 204.195 72.8765 210.389 72.8765C210.402 72.8765 208.619 72.8625 208.055 72.7654C203.911 72.0508 199.808 70.8703 195.722 69.8765C193.989 69.4548 188.916 68.7883 193.778 69.6265C194.735 69.7915 202.944 69.8765 199.5 69.8765" stroke="black" stroke-width="3" stroke-linecap="round"/>
<path d="M226.5 63.8764C226.5 65.5801 226.5 70.6912 226.5 68.9875C226.5 68.2559 226.579 67.4796 226.389 66.7652C226.047 65.4834 225.5 60.7557 225.5 64.8208C225.5 65.6866 225.5 74.2792 225.5 70.3764C225.5 69.5308 225.5 64.3708 225.5 65.8764" stroke="black" stroke-width="3" stroke-linecap="round"/>
<path d="M173 61.3765C176.655 59.9502 176.171 60.1077 176.528 63.321C176.933 66.9635 176.894 61.7597 176.028 60.4599C174.872 58.7264 176 64.6265 176 66.7099C176 67.4851 176.032 64.7865 176 64.3765C175.893 63.0223 174.5 61.6809 174.5 63.821C174.5 64.5845 174.779 65.2662 174 64.8765" stroke="black" stroke-width="3" stroke-linecap="round"/>
</svg>
