<svg width="401" height="116" viewBox="0 0 401 116" fill="none" xmlns="http://www.w3.org/2000/svg">
<path d="M169.37 44C173.605 44 176.437 44.7815 180.37 45C183.066 45.1498 184.818 47.8582 187.37 48C193.113 48.319 197.398 51.3143 203.37 51C206.369 50.8422 209.152 49 212.37 49C216.37 49 220.37 49 224.37 49C226.28 49 227.675 49.1197 229.37 48.2222C230.551 47.5972 230.047 46.1654 231.37 46C233.202 45.771 243.471 45 237.37 45" stroke="black" stroke-width="3" stroke-linecap="round"/>
<path d="M175.37 56C179.409 58.9375 183.759 62.2857 188.37 62.9444C190.4 63.2345 192.546 62.9213 194.592 63C197.186 63.0998 198.583 65 201.37 65C209.855 65 215.947 59 224.37 59" stroke="black" stroke-width="3" stroke-linecap="round"/>
<path d="M161.37 42C168.717 42 173.033 45.4784 179.815 47.2222C189.041 49.5946 195.756 52 205.148 52C210.935 52 215.701 51.315 221.37 51C226.044 50.7404 229.503 46.9335 233.37 45" stroke="black" stroke-width="3" stroke-linecap="round"/>
<path d="M169.37 53.9999C172.743 53.9999 175.578 53.6038 178.37 54.9999" stroke="black" stroke-width="3" stroke-linecap="round"/>
<path d="M253.37 32C256.428 36.205 259.37 41.3401 259.37 46.4444C259.37 48.6936 258.402 53.9841 256.37 55" stroke="black" stroke-width="3" stroke-linecap="round"/>
<path d="M152.37 31C146.792 32.9755 142.737 35.5979 141.426 41.5C140.762 44.4852 140.733 50.5433 142.37 53" stroke="black" stroke-width="3" stroke-linecap="round"/>
<path d="M195.37 72.5C196.356 75.2098 197.578 78.534 197.842 81.4444C198.248 85.9012 198.87 78.149 198.87 77.0278C198.87 76.6915 199.065 73.3559 199.259 73.7222C199.926 74.983 200.26 77.1294 200.342 78.5278C200.387 79.281 200.567 84.9372 201.12 82.9444C201.817 80.4362 201.37 72.5357 201.37 75.1389C201.37 78.1574 201.37 81.1759 201.37 84.1944C201.37 86.2053 201.962 80.213 202.398 78.25C203.259 74.3759 202.87 78.3708 202.87 80.2778C202.87 83.2999 202.515 84.8433 203.759 81.1111C204.167 79.8858 205.792 73.8615 204.648 77.8333C203.996 80.095 203.37 87.1315 203.37 84.7778C203.37 82.0757 204.707 79.4446 204.87 77C205.003 75.0044 204.87 81 204.87 83C204.87 84.5547 205.285 82.4866 205.342 82.0278C205.512 80.6683 206.401 79.789 206.759 78.5C207.568 75.589 205.994 80.0128 205.648 80.8333C205.231 81.8217 203.87 87.0722 203.87 84" stroke="black" stroke-width="3" stroke-linecap="round"/>
<path d="M170.37 52.5C174.972 54.4557 177.929 56.9064 181.87 59.8889C184.188 61.6432 187.065 61.8227 189.676 63.0278C192.553 64.3557 195.05 64.5 198.12 64.5C200.203 64.5 202.287 64.5 204.37 64.5C206.568 64.5 208.327 63.5 210.62 63.5C213.499 63.5 219.545 61.5859 220.981 59C221.413 58.2231 223.668 55.0556 224.592 55.0556C225.779 55.0556 224.292 59.1019 223.87 59.5C222.271 61.0105 218.962 61.8158 216.842 62.0278C214.993 62.2127 213.216 62.8227 211.37 63.0278C208.681 63.3265 205.833 63.258 203.176 63.75C200.574 64.2318 198.397 63.7527 195.87 63.5C194.401 63.3531 192.254 62.5429 190.842 62C189.087 61.3249 186.701 61.6285 185.12 60.75C183.518 59.8597 181.592 59.5633 179.926 58.7778C178.833 58.2624 177.122 57.9583 176.176 57.2222C175.779 56.9137 176.056 56.4081 175.759 56.1111C174.375 54.7271 171.346 54.4522 170.37 52.5Z" stroke="black" stroke-width="3" stroke-linecap="round"/>
</svg>
