<svg width="401" height="116" viewBox="0 0 401 116" fill="none" xmlns="http://www.w3.org/2000/svg">
<path d="M168 48C169.797 48 174.463 47.8148 175.889 46.3889C178.005 44.2724 179.256 45.2675 182.111 44.3889C185.047 43.4854 188.034 41.8717 190.778 40.5C193.674 39.0518 196.408 38.5308 199.5 37.5" stroke="#CF92C2" stroke-width="3" stroke-linecap="round"/>
<path d="M187 40C182.876 43.7894 177.237 43.9438 171.944 44.8889C170.478 45.1508 170.942 46.029 170 46.5" stroke="#CF92C2" stroke-width="3" stroke-linecap="round"/>
<path d="M210 39.5C212.404 39.9092 218.234 39.3253 220.222 41C222.699 43.0854 227.897 43.8635 230.778 44.5C231.988 44.7674 235.739 45.5172 236.611 46.3889C237.27 47.0475 239.604 48.3946 240.5 48.5C241.375 48.6029 241.288 49.1558 240.278 48.9722C238.957 48.732 237.706 47.654 236.5 47.1111C234.829 46.3591 232.632 46.5761 231 45.8889C227.701 44.4997 224.408 40.5 221 40.5" stroke="#CF92C2" stroke-width="3" stroke-linecap="round"/>
<path d="M156 52.0001C165.741 49.8083 173.419 41.6176 183 39.2223C192.086 36.9509 202.918 37.0001 212.222 37.0001C221.713 37.0001 230.663 41.4533 239.333 45.0001C244.599 47.1544 247.771 53.7618 239.5 49.9445C234.181 47.4894 227.636 43.0001 221.556 43.0001C217.067 43.0001 213.424 41.9032 209.222 40.2223C203.606 37.976 201.936 40.5141 196.556 40.9445C192.226 41.2909 191.177 42.9632 187.778 44.2223C183.325 45.8713 180.063 47.216 175.444 48.0556C169.254 49.1812 163.156 48.689 160 55.0001" stroke="black" stroke-width="3" stroke-linecap="round"/>
<path d="M186 72C194.676 73.6525 198.907 75.5545 207 72.2222C209.036 71.3838 206.181 74.5371 206 74.7778C204.863 76.2939 201.974 77.2148 200.222 77.7778C196.977 78.821 193.402 79 190 79" stroke="black" stroke-width="3" stroke-linecap="round"/>
</svg>
