<svg width="401" height="116" viewBox="0 0 401 116" fill="none" xmlns="http://www.w3.org/2000/svg">
<path d="M164.488 68.9444C170.173 63.2595 175.119 57.3139 180.738 51.6944C182.19 50.2428 183.31 48.2279 185.488 47.9167C187.091 47.6877 187.805 45.787 189.766 46.5C193.205 47.7507 194.059 53.4242 196.766 55.6389C197.802 56.4867 200.965 50.533 202.46 49.9722C205.621 48.7871 208.748 46 212.266 46C214.64 46 217.592 48.3188 219.016 50.0278C221.206 52.6565 223.657 55.2061 225.71 57.9444C228.491 61.6518 232.634 65.5611 236.238 68.4444C237.995 69.8503 235.273 68.7216 234.488 68.0556C231.738 65.7202 229.247 62.6564 226.988 59.8333C225.066 57.4304 222.366 56.5444 220.266 54.4444C218.845 53.0234 217.504 51.0892 215.877 49.9444C213.639 48.3698 210.009 46.0483 207.099 47.0556C205.263 47.691 204.274 50.5218 202.488 51.5556C201.282 52.2537 199.83 54.2114 198.988 55.3333C195.707 59.7076 191.01 43.5305 187.377 46.8333C184.466 49.4793 182.277 51.7495 179.988 55.0556C177.673 58.3992 174.685 60.5257 171.877 63.3333C170.128 65.0823 167.975 68.1061 165.46 68.9444C163.795 69.4996 164.061 71.1007 163.21 72.1944C161.661 74.1866 163.59 73.9444 165.349 73.9444C180.553 73.9444 195.757 73.9444 210.96 73.9444C219.733 73.9444 228.399 72.4444 237.238 72.4444C237.71 72.4444 240.576 71.9139 238.933 71.4444C236.2 70.6637 233.293 68.6382 231.516 66.4167C228.768 62.9822 225.255 60.661 222.266 57.4722C220.79 55.8981 219.03 54.5304 217.488 52.9444C216.513 51.9417 214.5 48.4444 212.988 48.4444C210.438 48.4444 208.06 66.2328 207.71 68.3889C207.28 71.0396 207.488 70.1376 207.488 68.2222C207.488 66.234 207.675 64.1389 207.377 62.1667C206.89 58.9421 207.831 56.5851 207.988 53.4444C208.005 53.0995 208.003 51.8466 207.988 52C207.723 54.6469 206.508 56.9874 205.599 59.4444C203.8 64.3096 205.573 58.249 205.877 56.3889C206.214 54.3268 206.167 52.6066 206.877 50.5556C207.136 49.8068 206.769 52.3022 206.655 52.5556C205.824 54.402 203.948 55.3211 202.71 56.8333C202.071 57.6151 201.628 58.5844 201.099 59.4444C200.129 61.0216 202.127 55.886 202.655 54.1111C203.372 51.7019 202.551 53.5127 202.099 54.5556C201.385 56.2034 200.43 57.7049 199.71 59.3333C198.507 62.0572 199.021 54.5673 198.988 53.4444C198.976 53.0189 196.707 60.4219 195.988 61.5C195.394 62.3917 195.484 59.3943 194.988 58.4444C194.082 56.7097 192.764 55.4434 191.21 54.2778C189.407 52.9256 197.582 60.6331 196.155 58.8889C194.943 57.4074 193.583 56.0795 192.266 54.6944C191.445 53.8315 190.004 51.2535 188.738 50.9722C187.419 50.6792 187.057 49.1427 186.46 51.5278C185.809 54.135 183.334 61.8086 184.238 59.2778C184.586 58.3045 184.863 55.9138 184.433 54.9444C183.551 52.9615 182.916 59.0132 182.266 61.0833C181.895 62.2637 180.6 66.6299 181.044 62.8611C181.252 61.0895 182.078 59.5261 182.46 57.8056C182.649 56.9555 181.546 59.3001 180.96 59.9444C179.207 61.8731 175.433 67.5521 177.516 61.6944C178.019 60.2782 178.724 57.616 180.183 56.8056C180.459 56.6521 178.57 60.8952 178.21 61.4167C175.548 65.2731 172.105 68.3312 168.488 71.1944C167.675 71.8382 164.419 73.1343 167.21 73.4444C176.58 74.4856 186.319 72.2191 195.655 71.4722C196.427 71.4104 197.213 71.4444 197.988 71.4444C199.655 71.4444 194.655 71.4444 192.988 71.4444C184.312 71.4444 175.636 71.4444 166.96 71.4444C164.316 71.4444 166.694 71.4444 166.933 71.4444C169.757 71.4444 172.581 71.4524 175.405 71.4167C182.64 71.3251 190.271 71.4268 197.405 70C199.992 69.4825 192.127 69.9444 189.488 69.9444C187.874 69.9444 184.901 70.5376 183.349 69.9167C181.528 69.1881 187.252 69.5058 189.21 69.3889C189.524 69.3701 194.844 68.5196 191.988 68.4444C186.624 68.3033 181.232 68.5413 175.877 68.8333C174.057 68.9326 168.665 69.7753 170.433 69.3333C178.062 67.426 186.387 67.6643 194.155 66.3333C197.521 65.7565 201.216 65.2037 204.377 63.8056C205.875 63.1428 204.944 62.9751 204.044 62.9444C200.05 62.8083 196.04 62.9915 192.044 62.9444C191.828 62.9419 189.484 62.4642 190.155 62.4444C192.282 62.3819 194.416 62.4692 196.544 62.4444C196.878 62.4406 200.352 62.4192 200.266 61.5556C200.203 60.9269 195.113 60.8469 194.877 60.8333C190.633 60.5885 186.405 60.4444 182.155 60.4444C180.889 60.4444 180.297 60.5125 182.044 60.3333C184.628 60.0683 187.175 60.0185 189.766 59.9444C190.325 59.9285 188.674 59.3333 188.377 58.9444C186.558 56.5658 184.983 61.8252 184.599 62.8333C183.93 64.5904 185.612 59.2074 186.266 57.4444C186.323 57.2891 187.468 53.7405 186.877 53.6667C186.468 53.6156 184.454 59.8488 184.377 60.2222C183.49 64.4956 186.854 59.1066 187.433 58.0556C188.882 55.421 192.217 47.036 191.266 49.8889C190.575 51.9619 189.662 54.025 189.21 56.1667C188.583 59.1384 189.202 61.3658 186.766 63.3333C185.758 64.1475 182.179 65.6604 183.433 65.3333C187.707 64.2181 192.66 64.8041 197.044 64.4444C198.513 64.3239 202.713 64.1791 201.377 63.5556C200.792 63.2827 198.875 63.69 198.516 63.7222C195.269 64.0137 192.006 64.1853 188.766 64.5556C187.292 64.724 174.657 67.4444 182.433 67.4444C190.272 67.4444 198.104 66.9444 205.933 66.9444C206.208 66.9444 208.846 66.9154 208.627 67.2222C207.957 68.1602 206.186 68.3624 205.183 68.4167C204.68 68.4438 197.739 68.7301 199.127 69.9444C201.327 71.8695 206.363 70.9444 209.127 70.9444C211.757 70.9444 203.868 70.9444 201.238 70.9444C200.995 70.9444 197.892 70.9444 199.46 70.9444C202.627 70.9444 205.794 70.9444 208.96 70.9444C214.366 70.9444 219.586 70.4444 224.96 70.4444C226.636 70.4444 228.312 70.4444 229.988 70.4444C230.253 70.4444 231.857 70.6171 231.627 70.1111C230.698 68.0664 228.983 65.8328 227.321 64.3611C225.746 62.9661 224.448 61.5518 223.016 60C222.327 59.2542 221.171 57.3494 220.21 57C217.726 56.0968 214.731 57.6313 212.516 55.4167C212.267 55.1677 211.364 53.4262 211.544 54.0556C212.038 55.7862 213.265 57.5245 214.294 58.9722C215.143 60.167 220.555 66.7298 217.21 62.1111C215.956 60.379 215.596 58.3279 214.516 56.5278C213.35 54.5843 213.988 60.7198 213.988 61.0556C213.988 64.0524 214.171 67.1368 213.516 70.0833C213.266 71.2059 212.964 67.8499 212.738 66.7222C212.386 64.9633 211.811 57.7728 211.099 62.6667C210.971 63.5499 210.988 70.4627 210.988 68.2222C210.988 63.7877 211.353 59.4141 211.766 55C211.853 54.065 211.561 51.6495 212.377 50.8333C213.577 49.6331 212.804 54.2014 212.988 55.8889C213.281 58.5735 213.377 61.5444 214.988 63.8333C217.091 66.8218 215.505 58.6896 215.488 58.1111C215.444 56.6433 215.536 55.3427 215.099 53.9444C214.954 53.4787 215.958 54.4246 216.321 54.75C219.332 57.4439 222.3 60.1986 225.21 63C227.24 64.9534 229.431 66.9515 230.988 69.3333C231.822 70.6093 228.837 69.0342 228.488 68.9444C224.657 67.9578 220.65 67.7362 216.988 66.1667C215.551 65.5507 217.145 66.5534 217.599 66.7222C218.889 67.2023 226.53 66.9444 221.488 66.9444C218.312 66.9444 215.14 66.8987 211.988 66.4444C211.396 66.3591 208.8 65.4043 210.099 66.9444C211.936 69.1211 217.757 67.9444 220.377 67.9444C221.298 67.9444 218.949 67.0896 218.599 66.8333C218.105 66.4709 214.612 63.048 216.21 63.3889C219.619 64.1162 222.663 66.1744 225.933 67.3333C226.682 67.5991 228.345 68.6248 228.266 67.8333C228.15 66.6737 225.222 64.7196 224.433 64.2778C222.995 63.4732 221.375 63.0711 219.96 62.2222C219.601 62.0068 218.674 61.1703 218.933 61.5C220.128 63.027 222.255 64.1869 224.099 64.7222C224.946 64.9682 227.164 65.2643 225.766 63.8333C224.509 62.5467 216.17 58.2186 215.488 60.9444" stroke="black" stroke-width="3" stroke-linecap="round"/>
<path d="M198.988 80.9444C195.274 79.7792 192.363 80.4415 188.544 80.8332C186.953 80.9964 184.749 81.1768 183.766 82.7221C181.546 86.2101 184.8 87.079 187.599 87.5555C193.076 88.4877 198.497 87.4444 203.988 87.4444C205.876 87.4444 209.927 83.2883 208.155 81.1944C205.889 78.5162 198.025 79.9444 194.821 79.9444C192.553 79.9444 181.33 80.2105 181.016 82.2499C179.131 94.5041 197.635 89.4444 204.377 89.4444C205.739 89.4444 212.418 89.0742 212.016 87.6666C211.563 86.0799 210.29 83.868 208.877 82.9444C204.787 80.2704 198.464 81.4444 193.794 81.4444C192.2 81.4444 190.807 81.2645 189.377 82.0555C186.978 83.3828 184.056 83.636 181.766 84.9444C180.085 85.9051 182.977 87.8654 183.544 88.1666C186.51 89.7424 190.954 88.9444 194.21 88.9444C198.493 88.9444 203.045 89.3485 207.238 88.4166C208.74 88.0829 209.814 85.1592 209.099 83.9444C208.067 82.1887 199.662 82.9444 197.821 82.9444C195.009 82.9444 192.189 83.0042 189.377 82.9444C186.541 82.884 182.488 81.1011 182.488 85.4444C182.488 89.1214 194.824 89.0361 196.488 87.0555C197.776 85.5218 198.772 84.7142 200.627 83.9721C202.997 83.0242 195.541 83.4444 192.988 83.4444C192.161 83.4444 189.557 82.9829 188.988 83.6944C188.394 84.4365 186.607 84.3806 185.794 85.1944C184.409 86.5792 187.435 87.9081 188.433 87.9444C192.033 88.0753 195.663 87.9444 199.266 87.9444C199.922 87.9444 203.598 88.0811 201.21 87.4444C197.662 86.498 194.366 86.4444 190.683 86.4444C189.787 86.4444 186.14 86.9076 189.044 86.9444C194.436 87.0126 200.952 87.8425 206.377 86.8332C207.998 86.5317 209.455 86.5031 211.099 86.4444C212.246 86.4034 215.248 85.3426 214.183 84.9166C210.962 83.6284 207.109 83.6951 203.599 83.4444C199.517 83.1528 195.609 81.7836 191.46 81.9721C189.919 82.0422 188.393 82.2798 186.877 82.5555C184.491 82.9893 186.67 81.7979 187.766 81.5555C192.472 80.5144 197.87 80.4444 202.71 80.4444C204.813 80.4444 209.467 79.6571 211.488 80.5555C214.392 81.8462 214.816 84.8763 211.988 86.6944C208.091 89.1996 204.378 87.9328 199.988 88.8332C196.393 89.5707 192.648 89.4444 188.988 89.4444" stroke="black" stroke-width="3" stroke-linecap="round"/>
<path d="M160.988 70.4443C161.93 72.8251 163.513 75.0281 164.377 77.3332C164.981 78.9443 162.409 74.5091 161.488 73.0554C161.013 72.3042 159.619 70.0296 160.099 70.7777C160.796 71.8606 161.703 76.9443 162.488 76.9443" stroke="black" stroke-width="3" stroke-linecap="round"/>
<path d="M240.988 69.9443C240.735 71.579 240.588 74.6229 239.266 75.9443C237.465 77.7456 239.551 74.4354 239.933 73.9443C240.901 72.6994 239.988 69.0026 239.988 70.9443" stroke="black" stroke-width="3" stroke-linecap="round"/>
</svg>
