<svg width="401" height="116" viewBox="0 0 401 116" fill="none" xmlns="http://www.w3.org/2000/svg">
<path d="M142 55L135 45.5H140.5L146.5 47.5L166 50.5L175.305 53.3131L175.5 52.5L181.5 55L181.663 55.2353L187.5 57L208.5 60H225.5L235 55L248.5 49L263 44L261 52.5L254.5 55L251 50.5L246 52.5L244 61.5L237.5 59H232L233.5 67.5V73L227.5 70.5L221 65L218 63L214 61.5L212 69L208.5 73L204.5 67.5L201.5 61.5L191.5 69L186 61.5L181.663 55.2353L175.305 53.3131L172.5 65L167.5 69L161 61.5L158 50.5C156.833 50 154.3 49 153.5 49C152.7 49 147.167 55.6667 144.5 59L142 55Z" fill="white"/>
<path d="M143 46.0353C153.146 48.2625 164.214 48.2922 174.222 51.2575C188.921 55.6127 203.367 56.0353 218.778 56.0353C222.926 56.0353 227.074 56.0353 231.222 56.0353C234.842 56.0353 235.638 55.4183 238.5 54.1464C239.822 53.5586 241.59 52.1837 243 52.0353C247.757 51.5346 252.927 48.5431 257.556 47.2575C260.775 46.3632 269.447 42.2206 266.111 42.0353C255.272 41.4331 248.98 48.683 240 53.2575C233.628 56.5034 226.345 60.3561 219.222 61.813C213.862 62.9095 205.924 60.7278 200.778 59.2575C196.746 58.1055 192.317 58.6223 188.222 57.2575C185.761 56.437 182.061 56.8233 180 55.5353C177.511 53.9793 176.173 52.6984 173.222 51.813C168.485 50.3918 162.958 50.0353 158 50.0353C154.34 50.0353 149.544 48.7512 146 47.813C143.388 47.1217 142.403 45.0353 139.5 45.0353C137.125 45.0353 135.215 44.7736 133 44.0353" stroke="black" stroke-width="3" stroke-linecap="round"/>
<path d="M136 48.0352C139.832 51.0546 140.729 53.4246 143 57.2574C144.835 60.3544 144.909 60.3279 146.556 57.0352C147.728 54.691 155.798 47.3944 157.222 50.8129C159.411 56.0652 161.873 64.8809 166.5 68.4796C171.201 72.1356 174.605 54.8742 176.222 53.2574C180.649 48.8302 186.759 67.7268 192 68.0352C197.084 68.3342 200.703 57.7132 203.444 63.9796C204.211 65.7327 207.098 75.1248 210.778 71.8129C212.456 70.3021 214 63.6065 214 61.5352C214 54.2893 218.793 65.7668 220 66.0352C224.754 67.0915 228.018 73.4074 233.333 73.5907C234.791 73.641 233.83 66.9584 233.5 66.0352C231.638 60.8212 231.512 59.0352 237 59.0352C239.996 59.0352 244.774 63.8041 245.944 58.5352C247.062 53.5067 244.638 51.9537 249 50.2574C251.007 49.4768 253.449 53.9968 255 54.8129C256.881 55.8028 257.558 53.0352 259.556 53.0352C263.218 53.0352 261.983 47.0466 265 45.0352" stroke="black" stroke-width="3" stroke-linecap="round"/>
</svg>
