<svg width="401" height="116" viewBox="0 0 401 116" fill="none" xmlns="http://www.w3.org/2000/svg">
<path d="M188.5 71.5L179 47L203 32.5H218.5L234.5 41L215 78L203 82.5L188.5 71.5Z" fill="#BD4646"/>
<path d="M197.803 25.4833C194.289 20.9855 193.021 21.3792 188.303 22.4278C185.913 22.9587 184.051 24.9123 182.247 25.4278C178.527 26.4907 171.442 30.7421 168.358 33.4833C161.839 39.2783 149.539 40.7333 141.414 42.5389C140.273 42.7924 140.36 44.3968 138.803 44.4833C137.644 44.5477 136.463 44.4833 135.303 44.4833C132.238 44.4833 131.148 43.2306 134.303 44.9833C138.653 47.4 146.05 46.4833 151.025 46.4833C159.148 46.4833 167.21 48.4833 175.247 48.4833C179.682 48.4833 182.62 48.9352 186.025 46.4833C188.268 44.8681 190.474 44.296 192.803 43.2611C195.399 42.1071 195.931 39.5217 199.025 38.2611C201.238 37.3593 204.803 36.0665 204.803 33.4833" stroke="black" stroke-width="3" stroke-linecap="round"/>
<path d="M202.803 25.4834C215.485 20.5341 231.845 18.0161 243.303 26.9279C248.075 30.6395 255.408 28.5774 259.803 32.4834C261.785 34.2452 271.562 36.195 270.358 36.539C267.87 37.2498 264.428 36.7379 261.858 37.5945C259.948 38.2311 260.186 39.234 257.747 39.539C255.743 39.7895 254.173 41.0122 252.303 41.4279C246.409 42.7375 235.218 42.4404 229.58 40.7056C226.039 39.6158 222.256 41.2403 218.803 39.7056C217.318 39.046 215.164 39.54 213.58 39.4834C211.175 39.3975 209.581 37.4834 207.303 37.4834C204.555 37.4834 202.631 35.4834 199.747 35.4834C187.577 35.4834 173.508 33.212 161.803 37.039C155.629 39.0572 163.965 36.9821 165.803 36.4834C173.155 34.4879 178.626 33.4834 186.469 33.4834C191.674 33.4834 195.516 34.0871 199.803 31.7056C201.067 31.0034 203.486 30.4834 200.58 30.4834C194.18 30.4834 187.936 30.5436 181.58 31.2612C176.54 31.8302 177.749 29.626 181.58 28.4834C184.926 27.4856 194.848 25.6523 192.025 27.7056C188.148 30.5248 184.976 34.6754 181.414 37.9279C179.847 39.3585 174.942 41.9622 179.08 42.9279C182.155 43.6454 188.359 44.6187 191.303 42.9834C192.302 42.4281 195.432 40.0315 192.136 40.7056C186.963 41.7638 182.241 44.789 177.247 46.4834C174.019 47.5785 169.96 47.8063 167.025 49.4834C164.487 50.9334 163.749 49.9313 167.025 49.2612C169.362 48.7831 175.225 48.9552 176.803 46.9834C179.667 43.4022 168.896 45.4834 165.914 45.4834C164.331 45.4834 155.133 45.9847 160.025 43.9834C166.681 41.2606 174.201 41.612 180.08 37.039C182.679 35.0179 173.591 38.2675 170.303 38.4279C165.445 38.6648 161.267 38.1355 156.803 40.2612C146.764 45.0416 171.413 37.3737 170.914 38.7056C170.007 41.1246 156.696 42.3841 154.247 42.4834C149.257 42.6857 144.366 43.4834 139.358 43.4834C136.761 43.4834 125.007 44.4834 133.358 44.4834C136.401 44.4834 142.097 43.9251 135.747 44.9834C133.189 45.4097 126.86 44.5269 130.803 47.4834" stroke="black" stroke-width="3" stroke-linecap="round"/>
<path d="M197.803 33.4834C192.039 37.9665 185.909 40.0422 179.803 43.7056C178.028 44.7708 170.026 48.5825 176.247 46.2612C180.017 44.8545 184.164 43.9848 187.803 42.2612C189.399 41.505 190.666 40.3225 187.914 41.9278C178.689 47.309 159.738 55.3097 148.025 51.7056C143.475 50.3056 138.062 49.7232 133.803 47.7056C130.77 46.269 121.579 48.0369 120.025 46.2612C119.553 45.7214 125.879 45.4834 126.581 45.4834C131.535 45.4834 136.501 45.3233 141.358 46.4834C146.499 47.711 140.55 47.4834 138.803 47.4834C135.803 47.4834 132.803 47.4834 129.803 47.4834" stroke="black" stroke-width="3" stroke-linecap="round"/>
<path d="M204.803 33.4833C213.087 37.1339 221.549 42.7301 230.58 44.3722C231.82 44.5975 235.618 44.4833 234.358 44.4833C230.688 44.4833 226.9 44.7471 223.303 43.8722C217.954 42.5711 207.692 38.4833 207.692 38.4833C207.692 38.4833 214.161 38.5057 217.192 39.4833C223.796 41.6137 231.06 43.0358 237.914 44.0389C243.387 44.8398 250.303 44.9971 255.803 43.9277C260.1 43.0922 266.384 43.3863 270.247 40.9277C272.067 39.7695 273.983 38.6986 275.58 37.2611C277.382 35.6395 277.623 34.4192 279.025 32.7055C281.585 29.5766 281.262 30.265 277.303 31.4833C272.942 32.8251 268.83 36.0962 264.636 37.9833C258.627 40.6875 248.437 42.03 242.025 40.2611C238.454 39.276 232.085 37.4833 239.803 37.4833C247.269 37.4833 254.763 38.4833 262.136 38.4833C267.007 38.4833 252.362 38.9413 247.525 38.3722C237.783 37.2261 229.212 33.1449 220.414 29.0389C219.256 28.4983 210.731 26.3062 215.247 26.4833C219.114 26.6349 223.001 28.0468 226.747 28.9833C230.197 29.8457 233.763 30.254 237.247 30.9833C239.314 31.4159 247.486 34.7135 241.136 32.8166C233.611 30.5689 225.916 29.1676 218.025 29.4833C215.603 29.5802 217.584 31.2941 218.803 31.7055C227.799 34.7418 237.285 36.0577 246.247 39.3166C252.401 41.5545 246.098 40.4205 243.247 40.0389C235.804 39.0425 228.501 37.706 221.469 35.0389C216.635 33.2052 211.739 33.2485 206.58 32.7055C201.574 32.1785 199.016 32.2765 203.803 30.2611C212.512 26.594 220.349 28.4833 229.303 28.4833C236.607 28.4833 241.901 33.6713 248.803 34.4833C250.163 34.6433 254.49 39.1168 250.803 36.4833C248.199 34.6236 245.357 33.7223 242.747 31.9277C236.518 27.6455 228.707 28.4833 221.358 28.4833C215.137 28.4833 224.062 28.468 225.692 28.5389C228.546 28.663 232.249 28.8381 235.025 29.7055C243.15 32.2445 252.229 38.4833 260.803 38.4833" stroke="black" stroke-width="3" stroke-linecap="round"/>
<path d="M174.803 48.4834C182.694 58.5937 184.233 74.1707 196.747 80.4278C200.822 82.4651 204.685 82.8391 209.414 82.4278C217.725 81.7051 219.179 70.4285 223.803 64.4834C227.472 59.7662 231.09 52.5226 233.358 47.1501C234.028 45.5631 232.706 43.0618 231.803 45.0945C230.31 48.4527 229.04 51.893 227.581 55.2612C226.19 58.4693 223.238 61.0472 222.747 64.4834C222.378 67.0657 220.711 69.1723 218.581 70.4834C213.372 73.6885 207.666 76.297 202.247 78.7056C194.256 82.2575 191.454 59.3846 188.303 54.4834C187.089 52.5954 181.401 42.3776 183.358 49.9278C184.368 53.8225 188.191 56.0801 189.803 59.7056C191.037 62.4824 191.38 65.6893 193.303 68.039C196.221 71.6053 197.596 77.4916 201.803 79.7056C208.28 83.1147 208.196 84.8358 213.025 78.039C216.281 73.4566 216.827 62.8759 222.469 60.7056C227.439 58.7944 227.803 52.3756 227.803 47.4834" stroke="black" stroke-width="3" stroke-linecap="round"/>
<path d="M187.803 64.4835C192.133 58.9406 194.314 55.0674 201.803 55.4835C205.153 55.6696 211.441 60.7605 212.803 63.4835" stroke="black" stroke-width="3" stroke-linecap="round"/>
<path d="M202.803 60.4834C207.515 58.6443 214.095 57.7603 218.803 57.4834C224.952 57.1217 214.286 56.0982 212.303 56.539C208.227 57.4447 205.309 59.4834 200.803 59.4834C196.893 59.4834 191.803 60.5692 191.803 65.4834" stroke="black" stroke-width="3" stroke-linecap="round"/>
<path d="M221.803 92.4833C223.672 89.9127 225.14 87.2568 227.303 85.0944C227.475 84.9221 225.655 88.0752 224.803 88.9278C220.99 92.7405 216.778 92.8333 212.803 95.4833" stroke="black" stroke-width="3" stroke-linecap="round"/>
<path d="M184.803 33.4833C177.325 41.1948 187.073 36.266 191.081 33.5944C196.326 30.0975 183.991 37.4445 182.358 38.2611C180.693 39.0938 176.413 41.3722 174.414 41.3722C171.204 41.3722 180.089 38.1131 183.247 37.5389C184.59 37.2947 190.74 33.9318 187.247 35.9278C181.661 39.1201 175.859 42.2289 169.969 44.8167C167.128 46.0653 162.826 46.7639 160.247 48.4833C157.195 50.5181 167.276 46.3799 170.803 45.3722C172.92 44.7673 175.729 42.0529 171.803 44.7055C166.634 48.1983 159.839 48.8901 154.025 51.0389C151.708 51.895 148.671 51.9901 153.303 50.9833C160.182 49.4878 155.556 50.4833 151.414 50.4833C147.903 50.4833 144.303 50.7333 140.803 50.4833C135.093 50.0755 151.574 46.2954 157.247 45.5389C158.718 45.3428 167.194 42.0545 163.803 42.5389C159.636 43.1341 142.182 48.4036 155.025 43.0389C160.907 40.5816 167.894 37.8304 174.136 36.5389C176.19 36.114 179.314 34.7115 180.747 33.0389C182.942 30.4782 186.134 30.463 188.581 28.2611C190.87 26.201 192.356 26.9259 194.303 28.4833C195.53 29.4651 195.803 30.9329 195.803 28.2611C195.803 26.5257 194.512 27.4833 192.803 27.4833C186.359 27.4833 173.23 31.3458 171.803 38.4833" stroke="black" stroke-width="3" stroke-linecap="round"/>
<path d="M206.803 35.4833C211.859 35.4833 216.746 36.4833 221.303 36.4833C226.841 36.4833 223.096 37.4833 219.581 37.4833C215.487 37.4833 212.146 36.8438 218.803 36.4278C225.845 35.9876 234.108 33.8053 240.803 36.4833" stroke="black" stroke-width="3" stroke-linecap="round"/>
<path d="M220.803 23.4834C212.163 25.1292 204.718 28.5958 197.47 33.4278C194.066 35.6968 205.268 30.9308 209.247 29.9834C215.485 28.4983 214.464 31.1774 208.803 31.4834C205.399 31.6674 202.779 31.3829 199.803 32.7056C195.444 34.6429 196.929 34.7938 197.747 31.9278C198.457 29.4425 197.12 28.6298 195.803 26.9834C195.226 26.2625 188.036 24.4834 191.803 24.4834C199.105 24.4834 202.857 29.2458 209.358 30.4278C216.215 31.6745 220.562 26.8301 226.803 26.4834C230.138 26.2981 239.794 25.5235 241.803 29.039C243.38 31.7987 247.48 33.2287 250.303 34.4834C251.998 35.2367 256.759 36.4834 253.803 36.4834" stroke="black" stroke-width="3" stroke-linecap="round"/>
<path d="M262.803 36.4834C256.82 36.4834 252.311 37.3134 247.358 34.4834C244.085 32.6132 242.154 30.2492 238.247 29.539C234.892 28.929 231.845 27.1729 228.358 26.539C224.942 25.9179 220.888 26.4834 217.414 26.4834C211.538 26.4834 230.436 23.5904 235.025 27.2612C239.319 30.6961 247.445 32.1271 252.247 34.2612C257.606 36.643 263.417 37.2081 268.247 40.4278C271.036 42.2871 261.543 40.4834 258.192 40.4834C254.807 40.4834 244.741 41.9843 248.08 41.4278C255.749 40.1497 253.26 37.7228 248.58 34.4834C244.735 31.8208 245.563 29.4834 239.803 29.4834C234.983 29.4834 232.42 29.9101 228.803 26.4834C226.695 24.487 222.743 23.4834 219.803 23.4834" stroke="black" stroke-width="3" stroke-linecap="round"/>
<path d="M176.803 52.4834C179.655 56.5244 179.742 59.8244 183.692 62.9278C184.61 63.6493 185.015 64.4943 185.581 65.4834C185.737 65.7568 185.047 62.1932 184.358 61.2611C181.749 57.7314 178.511 54.054 177.858 49.4834C177.173 44.6832 178.809 49.2262 179.581 51.2611C181.336 55.8896 183.331 60.7179 185.858 64.9834C186.69 66.3869 192.266 77.9576 191.581 72.8167C190.668 65.9694 187.546 60.5628 185.858 54.0945C185.092 51.1556 182.324 46.7895 184.803 52.0389C188.075 58.9694 190.868 67.8145 195.581 73.7056C196.624 75.0095 197.069 76.639 198.414 77.9834C203.532 83.1019 193.056 70.1713 191.803 68.7056C188.355 64.6729 184.335 61.3632 181.303 56.9834C178.069 52.3126 177.575 54.0176 182.025 57.2611C187.495 61.2481 192.439 65.9078 197.803 69.4834" stroke="black" stroke-width="3" stroke-linecap="round"/>
<path d="M204.803 83.4834C213.794 79.453 223.803 75.7453 223.803 64.7056C223.803 58.0693 224.302 54.7345 227.803 49.4834" stroke="black" stroke-width="3" stroke-linecap="round"/>
</svg>
