<svg width="401" height="116" viewBox="0 0 401 116" fill="none" xmlns="http://www.w3.org/2000/svg">
<path d="M188.5 70.5001C186.032 70.5001 182.683 71.1083 182.5 68.0001C182.431 66.8264 179.759 64.4334 180.278 64.5279C182.666 64.9621 186.893 70.8247 186.417 68.4445C185.927 65.9963 178.803 66.5001 177 66.5001C176.244 66.5001 174.041 66.6796 173.528 67.2779C173.286 67.5599 171.597 69.4226 172.889 68.389C173.726 67.7191 174.605 66.731 175.722 66.5279C176.561 66.3754 173.325 67.7571 172.722 68.2501C171.519 69.2347 169.183 70.8187 167.611 71.0001C166.754 71.099 166.749 72.5727 166.222 73.2501C165 74.8212 162.093 76.7218 161.5 78.5001" stroke="#A672BE" stroke-width="3" stroke-linecap="round"/>
<path d="M222 60.9999C224.572 60.4981 227.375 60.2083 230 60.4999C230.794 60.5881 230.228 61.7335 231.028 61.9999C231.867 62.2797 232.401 62.8661 233 63.4999C234.265 64.8395 235.539 65.0067 236.889 66.111C237.877 66.9194 238.188 68.0625 239.5 68.4999" stroke="#A672BE" stroke-width="3" stroke-linecap="round"/>
<path d="M155 90C157.831 82.745 160.302 78.6876 167 74.2222C174.402 69.2878 170.237 62 180.5 62C186.629 62 189.496 70.9538 195.555 72.0556C200.26 72.911 201.542 73.7721 204.5 69.5C206.748 66.2521 209.663 65.4085 213.222 64.2222C219.399 62.1632 227.327 62.0708 233 65.2222C236.722 67.2901 239.984 69.1713 244 70.7778C245.034 71.1913 248.447 71 247.333 71C245.065 71 244.902 70.1938 243.444 68.9444C236.722 63.1821 234.724 58 225.222 58C215.973 58 212.332 61.8347 207 68.5C203.623 72.7216 196.337 72.6849 192.444 69.5C190.428 67.8505 188.424 67.1533 186.778 65C185.948 63.9146 184.964 61.3809 183.5 61.0556C180.71 60.4357 178.548 61.7003 176 62C170.203 62.682 164.679 70.0346 161.222 74.5556C158.877 77.6222 150.619 85.7035 153.666 83.3333C158.128 79.8633 160.856 73.0797 165.5 70.5C167.926 69.152 170.1 70.4223 172.5 68.5556C174.975 66.6302 179.122 68.943 181.5 70C188.434 73.0818 193.086 74.4728 199.555 69.6667C202.137 67.7489 205.26 63.765 208.222 62.7778C211.978 61.5258 216.136 62 220.055 62C225.128 62 226.922 66.1222 231.444 66.9444C236.403 67.8461 238.37 70.3705 242 74" stroke="black" stroke-width="3" stroke-linecap="round"/>
</svg>
