<svg width="406" height="406" viewBox="0 0 406 406" fill="none" xmlns="http://www.w3.org/2000/svg">
<g clip-path="url(#clip0_4_1127)">
<path d="M293.386 404.194L111.386 390.194V386.194L136.386 353.194L146.886 340.694L163.386 325.694L180.386 320.194H201.386L208.886 337.194H220.386L228.386 328.694L231.886 315.194L242.886 325.694L276.386 359.694C280.052 367.694 287.686 384.194 288.886 386.194C290.086 388.194 292.386 399.028 293.386 404.194Z" fill="#9B9B9B"/>
<path d="M203.886 303.194C203.886 312.416 202.05 324.063 205.886 332.694C206.997 335.193 208.406 337.732 210.886 338.972C215.338 341.198 215.924 339.451 219.886 337.25C226.571 333.536 230.886 322.896 230.886 315.639C230.886 310.318 229.491 302.826 230.941 297.75C233.452 288.962 233.863 318.256 227.664 324.972C225.125 327.723 223.064 328.876 219.83 330.694C216.333 332.661 215.43 337.293 211.886 338.972C200.966 344.145 201.886 304.455 201.886 298.194" stroke="black" stroke-width="3" stroke-linecap="round"/>
<path d="M198.886 321.194C188.281 321.194 173.476 318.307 164.108 323.972C159.819 326.565 156.871 330.719 152.83 333.75C147.978 337.389 141.828 343.775 138.886 349.194C136.726 353.173 133.34 356.662 130.886 360.694C127.75 365.847 124.2 370.692 120.441 375.416C117.668 378.903 114.581 382.348 112.386 386.25C108.231 393.636 114.622 382.144 115.886 380.194C129.628 358.993 143.777 338.421 165.886 325.416C170.188 322.886 180.899 323.194 185.886 323.194C191.658 323.194 197.088 322.194 202.886 322.194" stroke="black" stroke-width="3" stroke-linecap="round"/>
<path d="M235.886 321.194C246.879 327.897 254.795 336.103 263.83 345.139C274.936 356.244 281.423 370.503 289.83 383.639C290.692 384.985 297.364 397.561 292.441 392.639C285.681 385.878 283.164 374.75 277.886 366.972C274.39 361.821 269.326 357.799 265.886 352.639C262.553 347.64 258.001 341.638 253.108 338.194C248.987 335.294 245.592 331.715 241.886 328.194C240.411 326.794 232.314 320.854 237.497 325.361C244.061 331.069 249.723 338.032 255.886 344.194C261.236 349.545 263.542 356.089 268.386 361.305C271.513 364.673 275.229 369.066 275.941 373.694C276.7 378.628 281.81 382.058 284.108 386.194C286.288 390.118 289.809 393.097 290.83 397.694C291.451 400.49 293.886 403.578 293.886 406.194" stroke="black" stroke-width="3" stroke-linecap="round"/>
<path d="M198.886 323.194C195.638 327.355 193.404 331.602 191.108 336.194C189.338 339.735 186.011 342.257 184.886 346.194C184.528 347.448 183.895 352.342 183.997 352.139C185.256 349.62 191.377 348.671 193.886 347.417C197.232 345.744 204.752 341.442 208.386 342.25C214.654 343.643 215.724 353.474 217.108 357.972C217.941 360.678 219.438 362.607 220.663 365.194C221.972 367.958 224.81 365.642 227.386 363.639C230.981 360.842 235.886 351.732 235.886 347.194C235.886 341.034 248.361 323.932 238.886 319.194" stroke="black" stroke-width="3" stroke-linecap="round"/>
<path d="M207.886 344.194C203.241 352.118 195.144 360.422 192.386 369.25C190.792 374.351 188.137 379.691 185.886 384.194" stroke="black" stroke-width="3" stroke-linecap="round"/>
<path d="M201.886 362.194C198.563 370.708 203.886 370.374 203.886 364.194C203.886 362.333 200.304 363.106 199.663 364.194C198.71 365.814 198.886 367.37 198.886 369.194C198.886 374.744 203.986 368.663 205.108 367.417C208.024 364.176 201.886 361.004 201.886 365.194" stroke="black" stroke-width="3" stroke-linecap="round"/>
<path d="M209.729 328.18C209.729 328.738 209.009 334.099 210.619 334.189C211.263 334.224 211.953 333.966 212.646 333.966C214.906 333.966 216.559 334.212 217.962 332.235C219.054 330.698 219.784 329.576 220.163 327.599C220.558 325.539 220.326 323.523 220.855 321.48C221.369 319.499 222.013 317.654 222.808 315.768C223.918 313.137 225.528 311.316 227.704 309.488C228.5 308.819 227.824 305.733 227.766 304.951C227.673 303.697 228.199 302.926 228.199 301.81C228.199 299.413 220.332 300.228 218.852 300.092C216.194 299.847 213.569 299.696 210.891 299.696C210.352 299.696 209.335 299.486 208.838 299.746C207.374 300.513 206.001 301.318 204.425 301.909C203.872 302.117 204.165 303.785 204.165 304.196C204.165 306.405 204.185 308.595 204.338 310.798C204.396 311.627 204.274 312.514 204.4 313.333C204.474 313.812 204.82 311.43 204.821 311.404C204.875 309.051 204.933 302.029 205.278 304.357C205.341 304.785 206.443 309.394 206.836 308.795C207.664 307.531 207.466 303.046 208.072 304.431C208.364 305.098 209.475 309.952 209.506 307.262C209.514 306.61 209.664 302.455 209.457 305.087C209.341 306.551 209.142 308.007 209.073 309.475C209.06 309.756 209.101 310.704 209.049 309.809C208.98 308.638 208.823 307.486 208.443 306.372C208.363 306.138 207.58 304.508 207.8 304.419C208.857 303.99 209.385 303.892 210.297 303.146C211.442 302.209 213.491 302.806 214.797 302.812C218.588 302.828 222.38 302.812 226.171 302.812C227.269 302.812 228.408 302.867 229.509 302.812C229.74 302.8 229.076 302.651 228.854 302.589C225.899 301.768 222.191 302.367 219.124 302.367C215.896 302.367 212.651 302.144 209.407 302.144C208.666 302.144 207.512 301.929 206.799 302.181C206.358 302.337 206.706 303.671 206.762 303.937C207.348 306.761 207.835 309.568 208.22 312.43C208.51 314.581 208.669 316.812 209.16 318.933C209.21 319.15 209.423 319.97 209.803 320.046C209.93 320.071 209.437 307.307 209.382 306.496C209.335 305.789 209.13 303.688 209.073 304.394C208.922 306.284 209.317 308.284 209.605 310.143C209.609 310.166 210.19 312.985 210.347 312.776C210.74 312.252 210.597 310.745 210.619 310.192C210.74 307.157 210.841 304.119 210.841 301.081C210.841 300.604 210.787 299.493 210.891 300.661C211.153 303.603 211.218 306.548 211.286 309.5C211.309 310.508 211.675 316.5 212.226 312.183C212.606 309.209 212.576 306.22 212.745 303.232C212.773 302.735 212.988 299.084 213.178 301.699C213.426 305.125 213.393 308.578 213.512 312.01C213.58 313.992 213.58 316.033 213.845 318.006C213.883 318.285 213.939 318.772 214.229 318.958C214.795 319.32 214.624 317.433 214.624 317.412C214.624 314.21 214.624 311.008 214.624 307.806C214.624 306.244 214.624 301.559 214.624 303.121C214.624 306.21 214.714 309.276 214.983 312.356C215.148 314.254 214.904 318.191 216.306 319.798C216.808 320.374 216.627 317.897 216.627 317.845C216.627 314.709 216.627 311.573 216.627 308.437C216.627 306.587 216.627 304.736 216.627 302.886C216.627 302.503 216.521 301.376 216.652 301.736C217.281 303.466 217.391 305.595 217.666 307.386C218.134 310.445 218.427 313.593 219.396 316.547C219.547 317.007 220.014 318.264 220.138 317.796C220.507 316.403 220.285 314.566 220.361 313.122C220.417 312.06 220.086 308.924 220.422 309.933C220.682 310.713 220.678 311.899 220.83 312.677C221.202 314.578 221.672 316.482 222.302 318.315C222.473 318.814 223.221 321.34 224.144 321.405C224.467 321.429 224.415 317.451 224.416 317.301C224.427 314.688 224.028 306.896 224.515 309.463C224.747 310.69 224.928 312.119 225.627 313.184C225.668 313.246 226.343 314.189 226.406 313.778C226.67 312.062 226.76 309.417 226.245 307.757C226.149 307.447 226.095 307.552 225.837 307.571C225.234 307.618 224.643 306.823 224.28 306.459C223.759 305.938 223.136 305.438 222.734 304.815C222.411 304.313 222.176 306.481 222.166 306.533C221.806 308.369 221.362 310.226 221.127 312.084C221.036 312.804 221.078 313.259 221.078 312.282C221.078 311.002 220.974 307.174 220.868 308.449C220.805 309.2 220.855 309.972 220.855 310.724C220.855 312.104 220.875 310.927 220.806 310.254C220.669 308.923 220.318 307.566 219.977 306.273C219.915 306.035 219.219 304.936 219.99 305.321C221.137 305.895 221.368 307.34 222.19 305.532C222.262 305.373 222.72 304.443 222.944 304.493C223.188 304.547 223.967 308.931 224.082 309.327C224.103 309.399 224.866 312.187 225.256 312.01C225.413 311.938 225.463 310.303 225.479 310.155C225.558 309.413 225.695 308.662 225.738 307.918C225.785 307.13 225.74 306.783 226.245 307.658C226.955 308.886 227.531 310.656 227.531 308.177C227.531 307.544 227.472 306.879 227.531 306.249C227.573 305.799 228.423 307.732 228.57 307.979C229.053 308.797 230.068 309.577 230.745 310.254C232.168 311.677 233.534 317.711 232.377 316.065C231.576 314.924 231.306 313.214 230.968 311.911C230.312 309.381 229.756 306.785 229.756 304.159C229.756 303.277 230.272 305.849 230.597 306.669C231.547 309.064 231.537 311.525 231.537 314.074C231.537 315.057 231.982 315.714 231.982 316.658C231.982 317.902 232.238 319.055 232.204 320.293C232.15 322.308 230.935 324.448 229.855 326.042C228.237 328.43 225.673 330.264 223.538 332.186C222.953 332.713 222.27 333.713 221.51 333.966C220.313 334.365 218.978 334.899 217.814 335.4C217.634 335.478 216.56 336.195 216.392 336.055C216.148 335.852 215.95 335.746 215.626 335.746C215.017 335.746 213.65 336.386 213.413 335.771C212.044 332.225 210.706 328.475 209.778 324.793C209.275 322.799 209.126 320.862 209.049 318.822C208.984 317.096 208.838 318.02 208.838 319.279C208.838 321.587 209.174 328.478 208.789 326.202C208.279 323.187 207.716 320.192 206.959 317.227C206.556 315.648 206.175 313.947 205.55 312.43C205.307 311.84 205.129 311.949 205.08 312.492C204.908 314.382 205.278 316.349 205.5 318.216C205.916 321.702 205.893 325.354 206.959 328.724C207.267 329.697 207.726 330.301 207.726 331.296C207.726 331.821 207.508 333.08 207.948 333.422C208.63 333.952 208.767 331.884 208.987 331.048C210.163 326.589 210.678 322.019 210.94 317.425C211.066 315.225 211.242 308.62 211.286 310.823C211.354 314.216 211.286 317.617 211.286 321.01C211.286 324.525 211.293 328.032 211.459 331.543C211.46 331.566 211.574 333.782 211.731 333.546C212.587 332.263 212.452 329.589 212.622 328.156C212.918 325.648 213.355 323.124 213.499 320.602C213.695 317.175 213.489 327.467 213.512 330.9C213.52 332.134 213.439 333.452 214.056 334.572C214.329 335.069 214.528 334.671 214.575 334.288C215.468 326.966 215.292 319.349 215.292 311.985C215.292 306.732 215.04 322.543 215.836 327.735C215.863 327.915 216.056 328.856 216.503 328.601C216.676 328.502 216.713 327.878 216.726 327.785C217.021 325.687 217.149 323.566 217.295 321.455C217.591 317.156 217.775 312.838 218.185 308.548C218.414 306.143 218.608 309.393 218.617 309.859C218.669 312.309 218.702 314.753 218.803 317.202C218.846 318.255 218.342 320.869 218.951 321.801C219.447 322.56 219.556 320.071 219.631 319.168C219.938 315.492 220.344 311.872 221.263 308.288C221.845 306.018 221.937 306.398 222.017 308.4C222.208 313.157 222.178 317.933 222.759 322.666C222.901 323.824 223.538 325.582 223.798 323.532C224.284 319.689 224.751 308.151 225.207 311.997C225.402 313.642 225.513 315.295 225.924 316.905C226.034 317.338 226.4 318.471 226.592 318.068C226.846 317.53 226.767 316.498 226.864 315.916C227.059 314.741 227.036 313.502 227.309 312.344C227.415 311.889 227.96 313.826 227.976 313.889C228.543 316.074 228.751 318.298 228.965 320.54C229.026 321.171 228.927 322.463 229.534 322.963C229.865 323.236 229.587 321.416 229.583 321.356C229.334 317.613 229.311 306.355 229.311 310.106C229.311 311.415 229.347 312.729 229.311 314.037C229.25 316.282 227.483 318.002 226.418 319.835C225.338 321.696 223.992 323.805 222.537 325.399C221.122 326.947 222.57 325.175 223.093 324.521C223.623 323.859 224.478 323.16 225.355 323.062C226.222 322.966 226.917 322.119 227.729 321.875C227.895 321.825 227.038 323.637 226.962 323.804C226.418 325.006 226.138 326.571 225.306 327.612C224.185 329.012 222.049 330.354 220.188 330.406C219.216 330.433 219.659 329.543 218.976 328.984C218.637 328.706 217.925 328.848 217.517 328.848" stroke="black" stroke-width="3" stroke-linecap="round"/>
<path d="M151.87 335.746C150.521 337.581 149.982 339.431 149.596 341.631C149.22 343.77 149.089 346.187 148.483 348.258C147.822 350.517 147.865 353.415 147.865 355.774C147.865 358.121 147.676 360.416 148.755 362.574C150.658 366.38 153.569 369.639 157.928 370.511C160.327 370.991 163.008 370.684 165.445 370.684C168.105 370.684 171.178 371.1 173.678 370.029C176.479 368.828 180.052 369.526 182.691 367.766C184.035 366.87 184.628 365.844 186.239 365.343C187.581 364.926 188.118 363.974 189.169 363.118C190.865 361.736 192.692 360.477 194.225 358.902C195.361 357.736 196.052 356.256 197.155 355.094C197.784 354.432 198.295 353.472 198.639 352.646C199.062 351.631 199.972 351.041 200.704 350.31C201.294 349.719 201.366 349.206 202.15 348.765C202.938 348.321 203.45 347.723 204.165 347.207C204.746 346.788 206.895 345.386 207.07 344.771C207.339 343.833 207.948 343.131 207.948 342.089C207.948 341.31 207.948 340.531 207.948 339.752" stroke="black" stroke-width="3" stroke-linecap="round"/>
<path d="M207.948 338.862C206.204 338.902 204.011 339.083 202.335 339.579C201.748 339.753 200.775 340.008 200.283 340.321C199.693 340.696 198.858 341.42 198.157 341.52C196.796 341.714 194.709 342.473 193.533 343.214C193.002 343.548 193.236 341.057 193.274 340.556C193.333 339.75 193.719 338.364 194.052 337.65C195.005 335.61 196.525 333.984 197.267 331.852C197.602 330.889 198.616 330.305 199.22 329.516C199.899 328.628 200.108 327.353 200.827 326.499C201.209 326.046 201.272 325.527 201.272 324.954C201.272 322.619 200.877 329.608 200.605 331.926C200.347 334.118 198.797 335.36 198.206 337.354C198.025 337.966 197.64 338.574 197.502 339.196C197.416 339.579 196.386 339.845 196.649 339.653C198.057 338.624 199.252 337.362 200.741 336.402C201.547 335.881 202.454 335.382 203.127 334.683C203.461 334.336 203.244 334.269 203.386 334.98C203.507 335.582 203.529 338.003 203.498 336.043C203.479 334.872 203.053 331.385 203.053 332.557C203.053 333.041 202.744 336.525 203.189 336.624C203.66 336.729 206.634 336.357 205.08 336.76C202.979 337.305 200.364 338.114 198.206 338.194C196.938 338.241 196.333 339.145 195.388 339.937C195.117 340.164 194.501 340.998 194.621 340.667C194.965 339.722 195.517 339.046 196.105 338.244C197.27 336.655 198.425 335.132 199.813 333.744C200.546 333.011 201.783 332.464 201.928 331.308C202.046 330.361 201.889 329.945 202.397 329.182C202.765 328.631 203.675 328.601 203.72 327.735C203.758 327.024 203.36 326.124 203.053 325.51" stroke="black" stroke-width="3" stroke-linecap="round"/>
<path d="M197.49 322.617C196.674 323.432 195.716 324.224 195.054 325.176C194.752 325.61 194.636 326.062 194.448 326.549C194.007 327.695 193.12 328.526 192.396 329.491C191.512 330.67 190.926 332.032 190.022 333.224C189.318 334.154 187.806 336.915 187.847 334.176C187.885 331.635 188.485 328.992 188.984 326.499C189.078 326.027 189.372 325.644 189.454 325.176C189.458 325.153 189.519 324.207 189.652 324.323C189.716 324.379 189.698 329.481 190.468 327.723C190.64 327.328 191.261 325.354 191.877 325.559C192.341 325.714 189.579 330.848 189.466 331.086C188.016 334.139 185.838 337.049 184.706 340.234C184.18 341.717 183.968 343.296 183.396 344.771C183.332 344.935 183.434 341.685 183.495 341.137C183.844 338.018 184.118 334.958 184.138 331.815C184.149 330.082 184.061 328.329 184.187 326.598C184.218 326.168 184.434 325.192 184.237 326.264C183.588 329.785 182.134 332.912 180.961 336.278C180.848 336.601 180.577 337.572 180.577 337.23C180.577 335.837 180.583 334.444 180.577 333.051C180.565 330.036 180.483 327.021 180.243 324.014C180.169 323.083 180.137 320.413 179.737 321.257C179.43 321.904 179.693 323.359 179.687 324.002C179.655 327.814 179.348 331.614 179.267 335.425C179.214 337.917 179.242 340.412 179.242 342.905C179.242 343.636 179.255 345.847 179.242 343.708C179.207 337.913 178.82 331.864 177.054 326.301C176.364 324.128 176.572 328.288 176.572 328.601C176.572 330.991 176.572 333.381 176.572 335.771C176.572 336.191 176.578 337.65 176.559 338.219C176.549 338.52 176.64 339.29 176.399 339.109C175.987 338.801 176.249 335.426 176.213 334.968C176.085 333.329 175.971 331.42 175.063 329.985C174.65 329.332 173.97 328.967 173.469 328.403C172.961 327.832 172.112 327.501 171.676 326.956C170.966 326.069 170.788 327.855 170.786 328.106C170.767 330.167 170.656 332.28 170.798 334.337C170.897 335.775 171.287 337.23 171.973 338.491C172.009 338.558 172.232 339.197 171.985 338.812C171.294 337.737 170.672 336.629 169.945 335.573C167.938 332.661 166.04 329.542 163.356 327.204C162.509 326.467 161.885 325.49 161.885 327.043C161.885 329.867 162.274 332.354 162.923 335.104C162.999 335.425 164.257 340.405 163.343 338.491C162.574 336.879 161.626 335.341 160.698 333.818C160.323 333.203 159.179 330.637 158.25 330.468C157.614 330.352 158.685 334.576 158.819 334.856C159.378 336.033 160.986 339.581 160.29 338.479C159.9 337.862 156.908 333.836 156.791 334.856C156.307 339.093 156.755 343.569 156.593 347.837C156.565 348.59 156.554 348.843 156.544 349.519C156.537 350.013 156.542 349.596 156.532 349.321C156.432 346.724 156.067 344.158 155.58 341.606C155.453 340.945 155.385 339.842 154.986 339.233C154.671 338.751 154.602 340.329 154.541 340.902C154.046 345.555 154.278 359.61 154.108 354.934C153.892 348.986 154.314 343.026 153.874 337.082C153.819 336.35 153.651 334.16 153.651 334.893C153.651 336.802 151.331 356.177 152.415 356.12C152.902 356.095 153.291 355.267 153.428 354.934C154.814 351.579 155.451 347.721 155.926 344.153C156.399 340.594 156.448 337.011 156.816 333.447C156.952 332.125 157 334.429 157.001 334.498C157.117 339.289 156.891 344.207 157.385 348.975C157.472 349.817 157.813 349.354 158.089 348.777C158.399 348.128 158.441 347.758 158.559 346.997C158.935 344.575 159.234 342.131 159.56 339.703C160.035 336.175 160.356 332.652 160.5 329.095C160.569 327.385 160.549 326.719 160.549 328.823C160.549 334.873 160.028 341.152 160.648 347.17C160.689 347.568 160.771 348.776 161.217 349.049C161.941 349.491 161.513 347.374 161.563 346.527C161.807 342.39 162.055 338.253 162.28 334.115C162.434 331.286 162.225 328.277 162.663 325.473C162.725 325.08 162.775 326.262 162.775 326.66C162.775 330.949 162.733 335.241 162.824 339.529C162.867 341.542 162.428 344.89 163.442 346.774C163.927 347.674 163.928 346.085 163.937 345.958C164.379 339.606 165 333.285 165 326.907C165 322.522 164.778 335.676 164.778 340.061C164.778 343.176 164.743 346.293 164.79 349.407C164.803 350.281 164.701 352.817 165.05 352.016C165.591 350.772 165.41 348.934 165.445 347.64C165.561 343.321 165.657 339.003 165.668 334.683C165.674 332.252 165.647 329.82 165.668 327.389C165.669 327.264 165.698 326.895 165.717 327.018C165.869 327.984 165.862 329.001 165.878 329.973C165.94 333.777 165.851 337.58 165.989 341.384C166.099 344.403 165.842 348.255 166.892 351.163C167.117 351.787 167.456 351.324 167.547 350.928C168.121 348.421 167.887 345.584 167.893 343.041C167.91 335.887 167.893 314.425 167.893 321.579C167.893 327.321 167.939 333.139 168.585 338.85C168.778 340.551 168.936 342.636 169.673 344.227C170.014 344.963 170.136 342.668 170.254 341.866C170.885 337.585 171.123 324.597 171.231 328.922C171.38 334.869 171.231 340.838 171.231 346.786C171.231 347.245 170.882 350.041 171.355 350.582C171.73 351.011 171.672 349.471 171.676 348.901C171.725 341.648 171.676 334.394 171.676 327.142C171.676 321.364 171.697 338.7 171.899 344.475C172.041 348.55 172.008 347.227 172.109 351.138C172.146 352.571 171.97 354.518 172.344 355.972C172.519 356.655 172.959 354.661 172.986 353.957C173.22 348.07 173.234 342.157 173.234 336.266C173.234 331.826 173.827 345.129 173.901 349.568C173.914 350.338 173.543 352 174.297 351.843C174.803 351.738 174.569 349.385 174.569 349.259C174.569 345.593 174.641 341.938 174.915 338.281C175.099 335.829 175.255 328.475 175.459 330.925C175.934 336.626 175.459 342.564 175.459 348.282C175.459 348.649 175.015 354.085 175.558 354.34C175.701 354.408 175.804 354.119 175.855 353.969C176.173 353.027 176.1 351.853 176.114 350.891C176.16 347.743 176.127 344.594 176.127 341.446C176.127 340.383 176.127 339.319 176.127 338.256C176.127 338.145 176.127 338.034 176.127 337.922C176.127 337.584 176.127 338.598 176.127 338.936C176.127 342.307 176.127 345.678 176.127 349.049C176.127 350.781 175.752 355.884 176.3 354.241C176.535 353.536 176.349 352.461 176.349 351.744C176.349 348.786 176.315 345.825 176.362 342.867C176.378 341.851 176.64 338.777 176.745 341.878C176.89 346.195 176.73 350.517 176.819 354.835C176.855 356.572 176.76 358.628 177.338 360.311C177.481 360.727 177.677 360.703 177.684 360.299C177.783 354.767 177.421 349.201 177.919 343.683C177.988 342.919 178.27 340.657 178.34 341.421C178.42 342.3 178.416 343.154 178.574 344.03C178.635 344.366 178.695 345.555 179.23 345.6C179.595 345.63 179.762 343.902 179.786 343.782C180.249 341.425 180.546 339.049 180.8 336.661C180.898 335.736 181.074 333.885 181.195 332.903C181.257 332.409 181.344 331.011 181.566 331.457C182.196 332.715 181.703 335.364 181.739 336.711C181.846 340.602 181.912 344.488 181.912 348.381C181.912 349.51 181.912 350.64 181.912 351.769C181.912 352.578 181.949 350.147 182.061 349.346C182.594 345.524 182.066 341.171 183.297 337.477C183.581 336.627 184.459 335.984 185.127 335.437C185.564 335.08 186.484 334.817 186.573 334.189C186.685 333.405 186.586 332.529 186.586 331.741C186.586 330.997 187.197 326.635 186.338 326.623C183.196 326.578 179.801 327.362 176.807 328.267C176.792 328.271 175.764 328.689 175.78 328.527C175.836 327.969 176.655 327.28 177.091 327.018C177.562 326.736 177.652 326.986 177.672 327.451C177.805 330.515 177.569 333.633 177.363 336.686C176.933 343.048 176.395 349.468 176.349 355.848C176.333 358.052 175.358 362.005 178.377 362.005C181.37 362.005 184.288 361.849 185.485 358.655C185.794 357.831 186.363 357.668 186.363 356.664C186.363 355.718 185.883 354.93 184.855 354.884C184.094 354.85 183.5 354.971 183.717 353.994C183.963 352.889 185.556 352.659 186.4 352.3C188.222 351.526 190.183 350.922 191.951 350.038C192.479 349.774 192.986 349.475 193.286 348.987C193.597 348.481 194.218 348.016 194.819 347.986C195.574 347.948 195.972 347.341 196.6 346.972C197.583 346.392 199.018 347.086 199.814 346.218C200.074 345.934 200.582 345.593 200.951 345.525C201.484 345.429 201.884 345.341 202.435 345.315C203.157 345.282 203.481 344.648 204.166 344.648C204.489 344.648 205.699 344.436 205.699 344.907C205.699 346.808 201.76 348.467 200.531 349.445C198.038 351.428 195.789 353.865 193.571 356.083C192.689 356.965 191.633 357.972 190.591 358.667C189.569 359.348 188.45 359.939 187.698 360.942C187.082 361.764 186.11 362.233 185.263 362.784C184.989 362.962 183.32 364.472 184.076 363.847C186.217 362.078 186.891 359.218 188.786 357.233C189.816 356.154 190.852 355.281 191.679 354.019C192.2 353.223 192.667 352.542 193.385 351.917C194.109 351.287 195.476 350.204 195.697 349.21C195.785 348.815 195.572 349.577 195.165 349.803C191.426 351.881 187.222 353.079 184.064 356.071C183.14 356.946 181.656 357.722 180.849 358.667C180.244 359.377 179.415 359.739 178.785 360.447C178.049 361.275 177.226 361.83 176.349 362.487C176.077 362.691 173.094 365.428 173.16 365.887C173.261 366.597 179.863 364.053 180.454 363.761C181.397 363.294 182.226 363.729 183.248 363.513C183.429 363.475 184.563 363.293 184.311 363.365C182.842 363.785 181.414 364.607 179.947 365.096C178.084 365.717 175.864 365.285 174.05 366.011C171.262 367.126 167.774 366.901 164.753 366.901C162.976 366.901 161.135 367.186 159.387 367.123C158.826 367.103 157.989 366.797 157.545 366.456C156.964 366.009 156.324 366.105 155.666 365.899C154.927 365.668 153.525 365.494 153.416 364.787C153.237 363.624 151.582 361.976 151.03 360.893C150.497 359.846 150.148 358.801 150.103 357.616C150.09 357.269 149.778 353.266 150.214 353.141C150.404 353.087 153.289 359.996 153.775 360.744C154.549 361.937 155.437 363.1 156.272 364.255C156.432 364.476 157.187 365.186 157.187 365.43C157.187 367.399 156.01 361.654 155.728 359.706C155.427 357.63 155.094 355.547 154.986 353.45C154.926 352.281 154.798 353.686 154.838 354.031C155.203 357.181 156.885 359.009 158.88 361.214C159.679 362.097 159.845 362.34 159.486 361.066C159.004 359.35 158.512 357.664 157.904 355.984C157.626 355.216 157.108 354.306 156.989 353.475C156.954 353.233 157.048 353.965 157.137 354.192C157.816 355.923 158.815 357.575 159.622 359.248C159.764 359.542 161.44 363.641 161.44 361.399C161.44 360.161 161.278 358.95 161.081 357.728C160.863 356.375 160.792 354.249 159.931 353.079C159.603 352.633 159.92 354.205 160.08 354.736C160.77 357.038 161.782 359.234 162.861 361.375C162.871 361.395 165.076 365.912 164.728 363.958C164.374 361.967 163.49 359.977 162.861 358.061C162.196 356.035 161.628 353.538 160.376 351.769C158.784 349.517 162.08 357.198 163.937 359.236C164.063 359.374 167.262 362.142 167.349 361.486C167.565 359.848 166.243 357.536 165.668 356.108C165.003 354.46 164.446 352.817 163.912 351.126C163.549 349.975 163.621 350.449 164.159 351.151C169.215 357.738 176.51 362.136 182.11 368.236C183.918 370.205 180.792 365.815 180.59 365.467C178.822 362.423 176.362 360.17 174.099 357.53C172.465 355.623 173.722 357.272 174.445 358.136C175.037 358.841 175.326 359.77 175.978 360.423C176.118 360.563 175.072 358.731 174.816 358.383C174.716 358.247 172.72 355.641 172.393 356.59C171.912 357.986 172.148 360.652 172.566 362.079C172.984 363.504 173.041 361.428 172.986 361.004C172.802 359.575 170.488 358.232 169.166 359.05C168.496 359.465 168.44 360.83 168.61 361.511C168.974 362.968 171.489 362.777 172.554 362.648C172.819 362.616 173.133 362.427 173.197 362.141C173.323 361.574 172.029 362.074 171.453 362.154C170.162 362.331 156.665 364.592 157.038 366.011C157.314 367.059 162.137 365.766 162.812 365.541C164.037 365.132 167.173 363.08 166.422 364.132C166.367 364.208 165.003 365.358 165.593 365.417C166.529 365.511 168.085 363.359 168.659 362.833C169.857 361.737 170.985 361.227 172.492 360.719C173.467 360.391 173.854 359.729 174.47 359.001C175.021 358.35 175.83 358.149 176.448 357.567C176.962 357.083 177.836 356.73 178.08 356.046C178.548 354.735 178.44 353.155 178.525 351.793C178.568 351.103 178.628 350.381 178.525 349.692C178.494 349.483 179.165 351.41 179.279 351.67C179.832 352.922 180.662 353.948 181.319 355.131C181.489 355.436 181.665 355.728 181.665 355.119C181.665 353.18 181.301 350.969 180.627 349.148C180.481 348.753 180.49 352.252 180.577 352.857C180.768 354.18 181.927 356.71 179.947 356.615C177.669 356.505 175.194 356.234 173.073 355.354C170.499 354.287 168.354 351.676 166.78 349.469C166.057 348.455 165.677 346.928 164.876 346.008C164.752 345.864 164.817 346.386 164.827 346.576C164.887 347.785 164.93 349.005 165.037 350.211C165.146 351.432 165.235 353.923 166.335 354.785C166.572 354.971 166.955 354.934 166.99 354.612C167.189 352.829 167.003 350.939 167.003 349.148C167.003 347.103 167.445 353.214 167.572 355.255C167.697 357.27 167.533 359.468 168.066 361.436C168.255 362.133 168.746 362.064 168.87 361.375C169.141 359.865 169.77 354.916 168.14 353.92C167.267 353.386 166.48 354.529 165.94 355.057C165.573 355.415 165.377 355.656 165.074 355.057C163.968 352.866 163.368 350.439 162.206 348.27C161.296 346.571 160.287 350.584 160.154 351.101C160.015 351.641 159.684 352.402 159.684 352.968C159.684 353.214 160.056 352.603 160.104 352.362C160.161 352.081 160.761 347.304 160.413 347.343C159.595 347.434 159.883 353.332 159.882 353.549C159.863 357.777 159.702 361.92 160.809 366.035C161.35 368.045 162.58 372.07 164.951 372.86C165.258 372.962 165.421 372.848 165.68 372.687C166.246 372.333 167.009 372.464 167.646 372.464C169.484 372.464 169.245 371.761 170.563 370.956C171.534 370.363 172.552 369.507 173.716 369.361C175.678 369.116 177.654 368.836 179.465 367.964C180.276 367.573 181.439 367.184 182.011 366.456C182.696 365.584 183.603 364.749 184.583 364.23C185.812 363.58 186.979 362.604 187.97 361.634C188.925 360.7 189.901 360.33 191.11 359.78C191.604 359.555 191.616 358.862 192.161 358.556C192.66 358.275 193.02 358 193.595 358C194.114 358 196.28 357.246 195.882 358.395C195.35 359.933 194.322 360.723 193.249 361.795C192.679 362.365 192.002 362.565 191.382 363.044C190.453 363.761 189.707 364.767 188.935 365.64C187.816 366.903 186.943 368.364 185.374 369.126C184.063 369.763 182.907 370.507 181.665 371.24C179.799 372.343 176.93 372.061 174.89 372.687C172.405 373.448 169.528 374.689 166.892 374.689C165.271 374.689 163.654 375.135 162.008 375.135C161.274 375.135 160.596 375.02 159.894 374.801C159.199 374.584 158.446 374.839 157.768 374.578C156.642 374.145 155.356 374.397 154.22 373.911C152.701 373.26 151.348 372.537 149.868 371.797C149.115 371.42 148.466 371.004 147.742 370.585C147.268 370.311 146.729 370.23 146.357 369.794C146.15 369.551 146.058 369.242 145.739 369.126C144.054 368.513 142.312 367.432 141.016 366.184C139.28 364.512 137.097 362.422 136.12 360.225C135.744 359.378 135.442 358.692 135.181 357.777C134.873 356.699 135.181 356.078 135.181 355.107" stroke="black" stroke-width="3" stroke-linecap="round"/>
<path d="M137.406 352.881C137.918 354.657 138.2 356.815 139.52 358.136C140.988 359.603 142.337 361.184 143.959 362.5C145.482 363.736 147.577 363.761 149.077 365.022C150.474 366.195 152.021 366.745 153.824 366.95C155.067 367.092 156.282 367.123 157.533 367.123C158.852 367.123 159.088 367.526 157.521 367.086C154.497 366.238 152.176 363.893 150.016 361.733C147.576 359.292 145.134 356.826 142.698 354.39C141.691 353.383 138.791 350.216 140.299 348.876C141.336 347.954 143.576 349.869 144.082 350.755C144.335 351.197 146.891 352.235 146.481 350.829C146.069 349.417 142.567 347.281 143.303 345.661C143.557 345.103 144.003 345.368 144.49 345.563C145.937 346.141 147.377 346.428 148.928 346.428C150.268 346.428 148.24 344.009 148.323 343.35C148.376 342.919 150.195 343.611 150.313 344.203" stroke="black" stroke-width="3" stroke-linecap="round"/>
<path d="M132.065 360.002C133.186 362.603 135.156 364.66 136.949 366.79C138.117 368.177 142.25 371.744 140.967 370.461" stroke="black" stroke-width="3" stroke-linecap="round"/>
<path d="M130.062 363.563C130.613 365.25 131.024 365.884 132.275 367.136C132.919 367.779 133.4 368.44 133.4 369.349" stroke="black" stroke-width="3" stroke-linecap="round"/>
<path d="M127.615 367.346C128.054 368.361 128.604 370.494 129.84 370.906" stroke="black" stroke-width="3" stroke-linecap="round"/>
<path d="M201.273 317.944C200.098 319.153 199.574 320.099 199.492 321.727C199.465 322.271 198.634 323.441 198.751 323.124C199.74 320.439 203.311 319.733 203.931 316.943C204.035 316.475 203.307 316.603 203.053 316.658C201.927 316.902 201.338 317.527 200.655 318.438C199.961 319.363 198.924 320.079 198.293 321.059C197.134 322.862 195.801 324.591 194.696 326.4C193.976 327.578 193.033 328.75 192.273 329.911C191.954 330.397 191.454 330.52 191.049 330.876C190.4 331.443 190.105 332.349 189.479 332.94C188.5 333.864 187.189 335.397 186.586 336.637C185.724 338.407 185.569 340.53 184.719 342.361C184.323 343.213 184.539 344.141 184.039 344.92C183.512 345.739 183.025 346.886 183.025 347.874C183.025 348.162 182.759 349.402 182.901 349.494C183.796 350.073 184.511 349.988 185.584 349.988C187.407 349.988 189.271 350.176 191.012 349.543C192.072 349.158 193.137 348.652 194.201 348.258C195.824 347.657 197.206 346.651 199.035 346.651C200.099 346.651 201.051 345.944 202.113 345.983C202.616 346.002 200.586 351.639 200.494 352.103C200.224 353.45 199.656 354.303 199.097 355.502C198.808 356.121 198.38 356.591 198.38 357.283C198.38 357.426 198.23 358.013 198.417 357.95C199.142 357.709 199.757 356.647 200.271 356.133C201.645 354.759 203.889 353.587 205.674 352.881C206.828 352.425 208.129 352.064 209.148 351.324C210.475 350.359 211.49 349.709 213.017 349.098C213.289 348.99 214.067 348.761 213.945 348.332C213.868 348.063 213.234 348.339 213.042 348.307C212.283 348.181 209.321 347.731 209.284 346.601C209.252 345.647 209.284 344.687 209.284 343.733C209.284 343.205 209.284 344.788 209.284 345.315C209.284 346.972 208.861 347.524 207.825 348.826C207.759 348.91 207.083 349.58 207.083 349.655C207.083 349.994 207.604 349.34 207.627 349.333C208.002 349.226 208.007 350.901 207.058 349.321" stroke="black" stroke-width="3" stroke-linecap="round"/>
<path d="M193.929 341.31C192.332 342.61 190.597 343.999 189.145 345.451C188.148 346.448 187.15 348.037 185.918 348.653" stroke="black" stroke-width="3" stroke-linecap="round"/>
<path d="M197.712 337.527C196.426 338.007 195.498 338.323 194.498 339.183C192.943 340.521 190.562 340.981 188.588 341.31" stroke="black" stroke-width="3" stroke-linecap="round"/>
<path d="M195.709 334.411C194.521 334.807 193.344 335.192 192.198 335.697C192.02 335.775 191.481 336.204 191.481 335.969" stroke="black" stroke-width="3" stroke-linecap="round"/>
<path d="M198.602 325.065C198.602 327.703 197.656 329.204 196.08 331.345C194.494 333.502 193.248 335.833 191.395 337.823C190.529 338.753 189.354 339.792 189.033 341.075C188.798 342.016 188.856 342.873 188.761 343.856C188.699 344.505 188.27 345.37 189.182 345.266C192.094 344.933 195.017 344.716 197.934 344.425C201.99 344.021 206.008 343.372 210.025 342.694C210.808 342.562 211.45 342.413 212.164 342.101C212.589 341.915 214.235 341.355 212.733 341.124C212.389 341.071 212.102 341.391 211.731 341.285C210.753 341.005 210.561 337.985 210.396 337.304" stroke="black" stroke-width="3" stroke-linecap="round"/>
<path d="M205.278 313.271C203.711 313.959 202.728 315.467 201.483 316.609C199.887 318.072 199.051 319.016 198.108 321.01C197.158 323.016 196.055 324.967 194.485 326.536C194.18 326.842 193.032 327.735 193.929 327.735" stroke="black" stroke-width="3" stroke-linecap="round"/>
<path d="M232.427 312.158C233.478 313.521 234.617 315.113 235.814 316.337C236.798 317.343 237.367 318.44 238.262 319.502C238.872 320.225 239.369 320.88 239.993 321.505C240.192 321.704 241.092 322.605 241.105 322.84C241.19 324.269 239.118 322.171 238.707 321.776C237.701 320.813 236.788 319.724 235.715 318.834C234.645 317.946 233.527 317.158 232.748 315.991C231.939 314.777 234.423 316.82 234.652 317.054C236.072 318.501 237.46 319.985 238.88 321.406C239.001 321.527 240.031 322.289 239.721 322.568C238.91 323.298 235.732 320.638 234.974 320.268C234.651 320.111 234.386 320.195 234.108 319.947C234.042 319.887 233.429 319.347 233.366 319.378C233.059 319.532 235.999 322.759 236.333 323.013C236.808 323.372 238.079 324.626 237.619 324.249C236.231 323.113 234.595 322.338 233.317 321.059" stroke="black" stroke-width="3" stroke-linecap="round"/>
<path d="M235.32 320.169C234.022 321.192 233.186 322.443 232.205 323.705C231.401 324.738 231.18 326.306 230.214 327.191C229.691 327.671 229.413 328.443 228.867 328.959C227.837 329.932 226.901 330.803 225.776 331.691C224.329 332.834 223.354 334.63 221.919 335.746C221.271 336.25 220.898 336.761 220.188 337.218C218.713 338.166 217.555 339.44 216.182 340.518C215.613 340.966 214.928 341.894 214.18 341.977C213.404 342.063 212.474 343.162 212.177 343.758" stroke="black" stroke-width="3" stroke-linecap="round"/>
<path d="M214.179 341.755C215.431 342.756 216.873 344.497 217.344 346.082C217.442 346.412 217.962 348.352 217.962 347.541" stroke="black" stroke-width="3" stroke-linecap="round"/>
<path d="M217.74 339.53C218.76 340.765 219.757 342.035 220.361 343.535C220.461 343.784 220.621 344.659 220.855 344.425" stroke="black" stroke-width="3" stroke-linecap="round"/>
<path d="M220.41 336.859C221.223 337.672 221.917 338.436 222.19 339.53" stroke="black" stroke-width="3" stroke-linecap="round"/>
<path d="M219.743 365.788C217.959 364.875 216.086 363.978 214.748 362.438C213.89 361.45 213.282 360.462 212.177 359.73C211.14 359.044 210.136 358.184 209.222 357.344C208.297 356.494 208.078 355.236 207.182 354.34C206.421 353.579 205.071 352.845 204.66 351.818C204.413 351.2 205.496 352.179 205.698 352.325C206.842 353.147 207.667 354.459 208.703 355.428C209.719 356.379 210.461 357.534 211.509 358.432C212.092 358.932 212.891 359.035 213.462 359.607C213.979 360.124 214.612 360.66 215.181 361.115C216.722 362.348 212.883 357.899 211.608 356.392C211.117 355.813 210.768 355.128 210.285 354.538C209.911 354.081 209.788 353.755 210.322 354.488C210.775 355.11 213.345 358.779 213.042 356.207C212.846 354.538 212.316 352.774 211.954 351.126C211.667 349.819 212.348 351.762 212.745 352.164C213.225 352.65 213.836 352.969 214.34 353.425C214.623 353.682 215.206 354.628 215.131 354.254C215.061 353.902 214.703 353.55 214.488 353.289C213.771 352.415 213.344 351.371 212.857 350.359C212.851 350.348 211.114 347.224 211.336 348.53C211.631 350.266 212.633 351.967 213.141 353.66C213.395 354.507 213.872 355.193 212.819 354.612C211.198 353.718 209.612 352.885 208.369 351.472C207.46 350.438 208.881 352.008 209.074 352.226C210.266 353.577 211.396 354.897 213.104 355.614C214.051 356.011 213.504 355.383 213.017 355.107C212.217 354.651 211.678 354.605 210.841 354.884" stroke="black" stroke-width="3" stroke-linecap="round"/>
<path d="M186.585 382.923C186.19 383.698 185.787 384.452 185.374 385.161C185.08 385.664 184.616 386.29 184.372 386.817C183.835 387.981 183.079 389.003 182.629 390.217C182.215 391.335 181.395 392.244 181.232 393.382C180.945 395.394 179.242 397.165 178.352 398.945" stroke="black" stroke-width="3" stroke-linecap="round"/>
<path d="M202.559 298.071C209.791 298.284 217.01 298.516 224.244 298.516C225.13 298.516 226.024 298.602 226.864 298.343C228.046 297.98 233.891 298.473 229.745 296.538C228.947 296.166 228.107 296.322 227.248 296.279C225.127 296.173 223.037 296.068 220.906 296.068C218.482 296.068 216.059 296.068 213.636 296.068C210.463 296.068 207.29 296.068 204.117 296.068C203.643 296.068 202.272 294.9 202.955 294.783C205.624 294.323 208.446 294.586 211.139 294.461C213.036 294.374 214.913 294.066 216.813 294.066C220.221 294.066 223.629 294.066 227.038 294.066C227.998 294.066 228.958 294.066 229.918 294.066C230.966 294.066 231.933 294.097 231.933 292.953C231.933 292.162 231.933 293.657 231.933 293.831C231.933 294.857 231.933 295.883 231.933 296.909C231.933 298.898 232.428 299.851 230.153 299.851" stroke="black" stroke-width="3" stroke-linecap="round"/>
<path d="M202.559 294.066C202.559 296.11 202.559 298.154 202.559 300.198C202.559 300.947 202.376 302.565 202.337 300.791C202.284 298.433 202.114 296.114 202.114 293.744C202.114 292.66 202.865 292.953 203.808 292.953C206.689 292.953 209.556 292.73 212.437 292.73C215.334 292.73 218.231 292.73 221.128 292.73C222.554 292.73 223.98 292.73 225.406 292.73C226.581 292.73 227.548 292.285 228.645 292.285C229.393 292.285 230.085 292.063 230.87 292.063C231.925 292.063 232.156 291.666 232.156 292.866C232.156 293.974 232.185 295.085 232.156 296.192C232.099 298.374 231.331 300.577 230.932 302.72C230.671 304.121 230.295 305.551 230.153 306.972C230.101 307.495 229.4 306.945 229.238 306.812C228.419 306.139 227.616 305.326 226.865 304.574C226.859 304.568 226.433 303.967 226.395 304.203C226.197 305.438 226.355 306.771 226.259 308.023C226.249 308.15 226.194 310.188 226.148 309.173C225.978 305.43 223.595 302.468 221.697 299.406" stroke="black" stroke-width="3" stroke-linecap="round"/>
<path d="M75.5 294L119.5 217L152 155.5L189 98L205 63L215.5 82.5L236 125L262 170L284 204.5L311 259L327.5 287.5L273 291.5L146.5 294H75.5Z" fill="#97DAFF"/>
<path d="M208.32 54C197.09 91.0662 173.187 120.537 154.923 151.703C128.195 197.313 104.127 245.448 77.3512 291.039C75.6209 293.985 73.9485 297.096 72.1216 299.867C69.0884 304.468 73.0991 293.728 73.7272 291.278" stroke="black" stroke-width="3" stroke-linecap="round"/>
<path d="M204.191 57.2209C204.08 63.4649 202.563 66.0725 200.109 71.1785C196.035 79.654 192.932 89.1397 190.2 98.4374C187.695 106.964 184.493 114.473 179.879 121.402C175.636 127.772 173.047 134.595 169.328 141.324C167.208 145.159 163.971 148.095 161.621 151.762C157.471 158.237 153.737 165.09 149.418 171.386C142.099 182.057 136.681 195.675 127.812 204.371C115.681 216.266 110.503 237.364 100.15 251.553C97.1929 255.606 94.4408 260.05 91.4343 263.959C85.1753 272.097 81.3421 284.717 72.9014 290.204" stroke="black" stroke-width="3" stroke-linecap="round"/>
<path d="M71.25 291.278C81.2695 296.015 94.2084 293.425 104.738 293.425C114.677 293.425 124.616 293.425 134.556 293.425C156.758 293.425 178.961 293.425 201.164 293.425C230.726 293.425 260.164 291.278 289.7 291.278C294.16 291.278 298.601 290.367 303.141 290.145C312.093 289.705 320.957 288.057 329.931 288.057C334.286 288.057 334.934 288.429 333.83 282.689" stroke="black" stroke-width="3" stroke-linecap="round"/>
<path d="M206.669 58.2947C214.825 78.7818 222.802 102.265 234.285 119.911C239.9 128.539 243.967 139.166 249.974 147.289C254.284 153.118 255.651 161.447 259.882 167.33C262.783 171.364 266.274 174.39 269.011 178.723C271.792 183.125 273.788 188.1 276.672 192.502C279.779 197.244 282.272 202.328 284.746 207.652C293.685 226.891 299.824 249.013 313.004 264.437C316.328 268.327 318.947 273.37 321.445 278.155C322.769 280.694 324.411 282.851 325.848 285.253C327.731 288.401 321.607 279.462 319.793 276.247" stroke="black" stroke-width="3" stroke-linecap="round"/>
<path d="M203.366 60.4419C209.83 76.9295 217.442 92.3479 224.422 108.518C230.299 122.135 238.988 131.624 246.579 143.352C253.633 154.25 258.451 167.129 266.029 177.411C274.989 189.567 282.405 202.844 291.948 214.332C294.577 217.498 294.589 219.908 295.847 223.995C297.269 228.618 299.618 232.91 301.627 237.118C305.413 245.049 308.962 253.169 312.545 261.215C314.957 266.634 318.896 270.713 321.261 276.247C323.189 280.76 326.779 282.755 328.692 286.983C329.87 289.586 330.881 291.968 332.179 294.499" stroke="black" stroke-width="3" stroke-linecap="round"/>
</g>
<defs>
<clipPath id="clip0_4_1127">
<rect width="406" height="406" fill="white"/>
</clipPath>
</defs>
</svg>
