<svg width="646" height="646" viewBox="0 0 646 646" fill="none" xmlns="http://www.w3.org/2000/svg">
<rect x="86" y="121" width="473" height="487" fill="url(#paint0_radial_15_404)"/>
<path d="M122.051 169.312V177.14" stroke="black" stroke-width="3" stroke-linecap="round"/>
<path d="M128.573 173.879V179.097" stroke="black" stroke-width="3" stroke-linecap="round"/>
<path d="M431.887 156.267C432.199 157.655 432.547 158.455 433.191 159.528" stroke="black" stroke-width="3" stroke-linecap="round"/>
<path d="M258.379 301.075V306.293" stroke="black" stroke-width="3" stroke-linecap="round"/>
<path d="M426.669 445.23C427.725 447.839 429.048 450.412 429.93 453.058" stroke="black" stroke-width="3" stroke-linecap="round"/>
<path d="M436.453 445.882C436.904 448.194 436.739 450.082 438.41 451.753" stroke="black" stroke-width="3" stroke-linecap="round"/>
<path d="M523.859 336.95C524.108 338.473 524.321 339.989 524.512 341.516" stroke="black" stroke-width="3" stroke-linecap="round"/>
<path d="M143.576 430.228C143.069 432.651 141.619 435.599 141.619 438.055" stroke="black" stroke-width="3" stroke-linecap="round"/>
<path d="M148.795 435.446C148.174 437.386 147.49 439.265 147.49 441.316" stroke="black" stroke-width="3" stroke-linecap="round"/>
<path d="M153.36 443.273V446.535" stroke="black" stroke-width="3" stroke-linecap="round"/>
<path d="M150.099 544.378C149.283 546.521 148.587 548.678 148.143 550.901" stroke="black" stroke-width="3" stroke-linecap="round"/>
<path d="M154.013 547.639V552.858" stroke="black" stroke-width="3" stroke-linecap="round"/>
<path d="M345.133 554.162V560.685" stroke="black" stroke-width="3" stroke-linecap="round"/>
<path d="M499.073 580.254C500.39 582.466 501.665 585.901 504.292 586.777" stroke="black" stroke-width="3" stroke-linecap="round"/>
<path d="M507.553 580.906C508.297 582.425 508.923 583.907 509.51 585.472" stroke="black" stroke-width="3" stroke-linecap="round"/>
<path d="M421.45 590.038V595.256" stroke="black" stroke-width="3" stroke-linecap="round"/>
<path d="M405.796 374.783C405.796 377.335 405.835 379.507 406.448 381.958" stroke="black" stroke-width="3" stroke-linecap="round"/>
<path d="M248.595 191.49V196.709" stroke="black" stroke-width="3" stroke-linecap="round"/>
<path d="M165.102 269.113V273.026" stroke="black" stroke-width="3" stroke-linecap="round"/>
<path d="M517.337 174.531C517.633 176.048 517.989 177.547 517.989 179.097" stroke="black" stroke-width="3" stroke-linecap="round"/>
<path d="M197.625 132.739C193.37 134.421 188.485 135.499 184.543 137.667C180.761 139.747 176.453 140.03 173.164 142.813C166.376 148.557 158.259 152.536 151.965 158.83C150.648 160.147 149.331 161.464 148.015 162.78C145.965 164.83 143.064 165.48 141.021 167.455C136.704 171.628 132.151 175.502 127.83 179.703C123.839 183.583 119.395 187.042 115.944 191.445C114.065 193.841 111.44 195.863 109.24 197.968C108.413 198.759 105.656 203.194 105 201.881" stroke="white" stroke-linecap="round"/>
<path d="M190.449 133.391C181.861 134.937 173.18 141.222 166.822 146.944C160.437 152.691 152.329 156.374 145.441 161.294C137.761 166.781 130.995 173.706 123.119 179.051C119.855 181.265 117.217 184.017 114.82 187.132C113.615 188.699 112.314 190.191 111.16 191.807C110.536 192.681 107.578 196.787 108.261 194.054" stroke="white" stroke-linecap="round"/>
<path d="M176.752 132.739C170.716 136.259 165.727 139.95 160.444 144.335C158.017 146.351 154.986 147.545 152.617 149.698C146.813 154.974 139.716 158.68 133.375 163.07C127.909 166.854 123.506 171.69 118.336 175.826C115.692 177.941 113.572 180.264 111.197 182.639C108.483 185.353 107.121 185.594 110.871 182.313" stroke="white" stroke-linecap="round"/>
<path d="M168.272 131.434C161.747 131.589 156.308 136.949 151.276 140.639C145.915 144.57 140.88 150.346 136.165 155.061C130.881 160.345 123.18 163.128 116.922 167.419C113.675 169.645 109.757 171.67 107.646 175.101C106.026 177.734 105.191 177.959 107.609 175.137" stroke="white" stroke-linecap="round"/>
<path d="M142.832 134.696C138.429 138.28 135.831 142.786 131.961 146.835C127.959 151.023 123.891 155.467 119.712 159.446C117.703 161.36 115.855 166.658 112.827 166.658" stroke="white" stroke-linecap="round"/>
<path d="M130.439 131.434C125.598 137.289 120.613 143.636 115.183 148.901C112.654 151.353 109.328 155.362 106.305 156.873" stroke="white" stroke-linecap="round"/>
<path d="M133.048 136C127.642 145.113 119.148 151.706 112.827 160.135" stroke="white" stroke-linecap="round"/>
<path d="M121.307 136C117.878 139.258 113.969 141.941 111.16 145.785C109.44 148.14 107.307 149.925 105 151.655" stroke="white" stroke-linecap="round"/>
<path d="M112.827 138.609C111.735 145.571 112.174 152.738 112.174 159.772C112.174 162.792 112.174 165.812 112.174 168.832C112.174 171.209 113.133 173.105 113.443 175.427C113.82 178.255 112.967 181.075 114.929 183.472C116.022 184.809 118.697 191.786 118.697 187.531" stroke="white" stroke-linecap="round"/>
<path d="M114.784 140.566C113.718 147.114 118.206 149.296 120.98 154.228C122.638 157.175 124.256 160.109 125.583 163.251C126.649 165.777 128.483 167.545 130.076 169.593C132.092 172.184 132.395 172.74 132.395 168.615" stroke="white" stroke-linecap="round"/>
<path d="M118.697 130.782C119.164 137.319 124.902 142.394 129.098 146.799C131.548 149.372 133.969 153.442 137.287 154.916C140.8 156.477 144.81 161.439 148.702 161.439" stroke="white" stroke-linecap="round"/>
<path d="M129.135 134.043C137.404 137.627 142.876 144.195 150.443 148.684C152.519 149.915 161.544 156.632 163.054 153.612" stroke="white" stroke-linecap="round"/>
<path d="M151.965 133.391C156.76 136.034 161.277 138.981 166.605 139.95C168.426 140.281 168.994 142.523 170.881 142.523" stroke="white" stroke-linecap="round"/>
<path d="M159.139 153.612C158.575 156.503 158.487 159.171 158.487 162.092C158.487 164.409 157.266 166.578 157.183 168.76C157.108 170.711 158.175 177.577 156.53 178.399" stroke="white" stroke-linecap="round"/>
<path d="M153.574 179.703C152.241 188.589 159.087 179.433 154.226 179.703C149.938 179.942 156.696 186.606 156.835 183.11C156.888 181.797 156.719 175.993 154.226 177.239C151.881 178.412 153.161 182.826 155.531 182.965C158.563 183.143 156.546 177.021 154.371 179.196C153.513 180.054 154.793 181.525 154.19 179.414C153.82 178.119 152.269 178.277 152.269 179.703C152.269 180.834 153.448 181.339 152.922 180.682C151.832 179.32 150.312 179.099 150.312 177.094C150.312 175.077 153.83 173.041 154.879 175.137" stroke="black" stroke-linecap="round"/>
<path d="M154.878 179.051C153.296 174.997 153.727 174.677 154.878 171.224" stroke="black" stroke-linecap="round"/>
<path d="M154.878 181.008C157.004 180.956 160.817 180.478 159.118 177.42C158.363 176.061 159.531 174.485 157.487 174.485" stroke="black" stroke-linecap="round"/>
<path d="M156.183 181.66C158.48 182.557 159.369 183.125 161.401 182.313C162.541 181.856 161.296 181.282 160.749 181.008" stroke="black" stroke-linecap="round"/>
<path d="M154.226 182.965C151.909 182.965 150.299 183.597 149.008 181.66" stroke="black" stroke-linecap="round"/>
<path d="M154.878 183.617C157.068 186.421 158.097 186.879 161.401 186.879" stroke="black" stroke-linecap="round"/>
<defs>
<radialGradient id="paint0_radial_15_404" cx="0" cy="0" r="1" gradientUnits="userSpaceOnUse" gradientTransform="translate(322.5 364.5) rotate(87.0597) scale(419.142 300.502)">
<stop stop-color="#C5B495"/>
<stop offset="1" stop-color="#725A5A"/>
</radialGradient>
</defs>
</svg>
