<svg width="646" height="646" viewBox="0 0 646 646" fill="none" xmlns="http://www.w3.org/2000/svg">
<path fill-rule="evenodd" clip-rule="evenodd" d="M74.7314 95.8721H160.231H203.731H234.731H259.231C262.031 95.8721 316.065 93.8721 342.731 92.8721H399.731H511.731H568.731L580.231 95.8721V150.872V192.872V268.372V317.372V368.372V382.872V415.372L576.731 480.372V508.372V541.872L574.231 557.872L571.731 580.372L574.231 625.372H500.231L473.731 627.372L453.231 625.372H421.231H352.231L320.231 623.872H272.231L256.731 625.372H224.231L204.731 627.372C191.898 628.705 165.831 630.972 164.231 629.372C162.624 627.765 139.056 628.741 128.307 629.186C125.681 629.295 123.82 629.372 123.231 629.372C120.831 629.372 101.565 628.039 92.2314 627.372H67.7314L65.2314 615.372V565.872L66.7314 522.372L65.2314 500.872L66.7314 484.872V468.372L72.7314 425.872L75.2314 397.872L72.7314 374.872L75.2314 336.872L72.7314 325.372V306.872V284.872V224.872V148.372C72.7314 146.772 74.3981 115.705 75.2314 100.372L74.7314 95.8721ZM117.731 135.872H154.731L245.231 133.872L328.731 135.872H460.731L479.731 133.872L524.731 130.872H544.731L546.731 165.372V259.872L545.231 369.372L543.231 430.372V542.372V573.872L528.231 572.372L479.731 573.872H404.731L365.231 572.372L294.731 570.372L196.731 568.372H123.231H111.231C112.398 561.205 114.731 546.572 114.731 545.372V490.872V395.872C116.398 372.705 119.831 325.972 120.231 324.372C120.631 322.772 123.398 260.039 124.731 228.872V181.872C124.731 180.272 121.731 156.205 120.231 144.372L117.731 135.872Z" fill="#EBC986"/>
<path d="M120.387 140.285C232.088 140.285 342.436 142.894 454.358 142.894" stroke="black" stroke-width="3" stroke-linecap="round"/>
<path d="M117.778 140.285C117.778 170.229 115.168 199.605 115.168 228.996C115.168 265.413 109.95 300.533 109.95 336.551C109.95 405.985 109.95 475.495 109.95 544.703" stroke="black" stroke-width="3" stroke-linecap="round"/>
<path d="M109.731 568.372C134.292 568.372 158.853 568.372 183.413 568.372C196.299 568.372 208.481 570.016 221.995 570.016C259.571 570.016 299.507 570.525 337.014 571.706C405.86 573.874 476.394 573.305 545.731 573.305" stroke="black" stroke-width="3" stroke-linecap="round"/>
<path d="M548.287 573.404C548.287 425.521 545.678 277.785 545.678 129.848" stroke="black" stroke-width="3" stroke-linecap="round"/>
<path d="M545.678 129.848C515.207 124.873 483.188 127.239 452.328 127.239C407.18 127.239 362.366 124.63 317.377 124.63C273.454 124.63 229.159 122.615 185.76 129.848C159.929 134.153 133.584 135.067 107.341 135.067" stroke="black" stroke-width="3" stroke-linecap="round"/>
<path d="M109.95 135.067C196.777 135.067 283.604 135.067 370.43 135.067C402.851 135.067 435.273 135.067 467.694 135.067C480.264 135.067 540.107 126.532 543.069 132.458" stroke="black" stroke-width="3" stroke-linecap="round"/>
<path d="M545.678 132.458C545.678 281.137 543.069 430.377 543.069 578.622" stroke="black" stroke-width="3" stroke-linecap="round"/>
<path d="M543.069 578.622C484.285 570.514 422.517 576.013 363.038 576.013C318.507 576.013 274.492 578.622 229.971 578.622C207.552 578.622 185.132 578.622 162.713 578.622C151.661 578.622 140.852 574.672 130.823 570.215C125.235 567.731 112.489 570.655 109.95 565.576" stroke="black" stroke-width="3" stroke-linecap="round"/>
<path d="M107.341 565.576C107.341 471.05 104.731 376.839 104.731 282.339C104.731 245.396 107.341 208.997 107.341 172.174C107.341 167.092 105.003 153.349 108.79 149.562C115.402 142.95 115.168 139.324 115.168 129.848" stroke="black" stroke-width="3" stroke-linecap="round"/>
<path d="M120.387 129.848C129.524 188.098 122.96 252.605 120.242 311.039C118.571 346.953 115.168 382.066 115.168 418.159C115.168 449.034 115.168 479.909 115.168 510.784C115.168 532.575 116.792 552.879 109.95 573.404" stroke="black" stroke-width="3" stroke-linecap="round"/>
<path d="M109.355 123.027C144.502 123.027 179.784 126.617 214.954 123.1C261.466 118.448 308.986 124.056 355.63 120.128C400.753 116.328 446.923 119.113 492.248 119.113C519.467 119.113 545.337 123.027 572.48 123.027" stroke="black" stroke-width="3" stroke-linecap="round"/>
<path d="M98.9189 124.332H110.66" stroke="black" stroke-width="3" stroke-linecap="round"/>
<path d="M97.6143 124.332C97.6143 155.161 98.9188 186.431 98.9188 216.957" stroke="black" stroke-width="3" stroke-linecap="round"/>
<path d="M97.6141 214.347C97.6141 241.983 98.9187 269.718 98.9187 297.478C98.9187 311.417 98.9187 325.357 98.9187 339.297C98.9187 349.66 100.091 360.781 97.9041 370.896C95.6606 381.272 97.6141 394.237 97.6141 404.815C97.6141 415.469 97.6141 426.123 97.6141 436.777C97.6141 455.679 96.3096 474.884 96.3096 493.526" stroke="black" stroke-width="3" stroke-linecap="round"/>
<path d="M95.0049 492.222V586.151" stroke="black" stroke-width="3" stroke-linecap="round"/>
<path d="M95.0049 591.37C129.315 591.37 163.463 593.979 197.776 593.979C242.229 593.979 286.681 593.979 331.133 593.979C405.059 593.979 478.985 593.979 552.911 593.979" stroke="black" stroke-width="3" stroke-linecap="round"/>
<path d="M558.129 123.027V279.576" stroke="black" stroke-width="3" stroke-linecap="round"/>
<path d="M558.129 275.662C558.129 333.064 558.129 390.465 558.129 447.866C558.129 495.878 554.215 544.553 554.215 592.674" stroke="black" stroke-width="3" stroke-linecap="round"/>
<path d="M97.9404 125.962C99.5943 126.84 101.065 128.174 102.343 129.55C103.094 130.358 104.317 130.833 104.808 131.815C105.301 132.802 107.118 133.226 107.978 133.79C109.288 134.648 110.586 135.512 111.892 136.399C112.934 137.106 113.814 136.765 114.882 137.232C115.718 137.598 116.455 138.176 117.346 138.374C118.074 138.536 118.942 139.023 119.72 139.262C120.539 139.514 121.475 139.061 122.075 139.66" stroke="black" stroke-width="3" stroke-linecap="round"/>
<path d="M113.595 125.962C116.544 128.912 120.771 135.747 125.662 135.747C127.599 135.747 128.705 135.626 129.902 133.862C131.193 131.959 131.859 129.691 131.859 127.43C131.859 123.784 133.241 128.501 133.671 129.713C134.896 133.166 135.52 136.418 139.07 138.193C140.498 138.907 142.485 139.536 144.089 139.298C145.729 139.055 146.8 137.365 147.858 136.254C149.732 134.286 151.754 133.05 151.754 130.13C151.754 129.17 152.08 128.371 152.08 127.412C152.08 127.037 152.139 125.635 152.152 125.673C153.235 128.801 153.88 132.329 156.32 134.768C158.259 136.708 163.132 136.205 164.944 134.442C166.712 132.722 169.325 131.916 169.71 129.224C169.891 127.956 170.67 127.385 170.67 126.126C170.67 124.687 171.035 126.713 171.177 127.14C172.051 129.76 172.344 132.277 174.656 134.116C177.964 136.747 182.357 136.815 186.397 136.725C189.395 136.659 191.818 132.914 193.011 130.528C193.741 129.068 194.121 126.075 194.968 129.369C195.72 132.294 197.124 134.624 199.733 136.218C201.329 137.193 202.61 137.668 204.48 137.867C208.35 138.278 212.703 138.382 216.584 137.994C219.47 137.705 223.969 132.443 224.157 129.623C224.229 128.556 224.81 127.7 224.81 126.615C224.81 125.794 224.871 124.805 225.535 126.107C226.982 128.946 227.151 131.452 230.101 133.138C231.354 133.854 233.202 133.987 234.594 134.442C236.505 135.067 238.089 135.421 240.102 135.421C242.862 135.421 245.379 135.35 248.002 134.442C249.678 133.862 250.494 132.207 251.517 130.891C252.653 129.431 253.51 126.656 253.51 124.821C253.51 123.42 253.807 124.423 254.181 125.201C254.962 126.83 255.344 128.961 256.772 130.184C259.217 132.28 262.707 132.159 265.686 132.159C268.302 132.159 270.963 131.048 273.405 130.202C275.483 129.483 279.086 128.425 279.276 125.709C279.303 125.322 279.503 123.387 279.747 123.172C280.077 122.881 281.912 126.495 282.139 126.941C283.572 129.754 284.099 131.885 287.574 132.811C293.681 134.44 300.775 133.706 306.799 131.996C309.666 131.182 312.869 128.883 312.869 125.636" stroke="black" stroke-width="3" stroke-linecap="round"/>
<path d="M315.151 126.941C318.352 131.056 320.654 133.464 326.077 133.464C329.26 133.464 329.777 130.777 331.386 128.572C332.173 127.493 332.451 127.299 332.781 126.144C332.931 125.618 333.393 126.457 333.488 126.542C334.189 127.173 334.874 125.247 335.046 124.948C335.554 124.066 336.282 126.585 336.369 126.796C337.003 128.343 337.685 130.075 338.616 131.471C339.597 132.943 342.088 132.485 343.671 132.485C344.827 132.485 346.13 132.648 347.277 132.449C348.266 132.277 349.32 130.894 350.013 130.202C351.866 128.349 353.436 126.219 354.542 124.006C355.177 122.736 356.069 123.623 356.735 124.658C357.424 125.729 358.1 126.764 358.927 127.738C359.592 128.521 360.965 131.12 362.116 131.181C368.553 131.52 375.074 130.851 379.909 126.107C381.153 124.887 381.574 123.102 382.663 121.904C383.876 120.569 384.203 123.52 384.62 124.332C385.722 126.475 386.751 128.632 387.954 130.71C388.518 131.684 391.474 131.181 392.339 131.181C395.274 131.181 399.995 132.519 402.485 130.456C404.119 129.103 405.47 127.29 406.979 125.781C408.117 124.643 408.642 123.14 409.733 122.049C410.992 120.79 412.256 125.053 412.505 125.799C413.653 129.242 416.41 132.485 420.206 132.485C422.555 132.485 426.205 133.167 428.359 132.286C431.276 131.093 433.044 127.647 435.426 125.636C436.206 124.978 436.412 124.288 436.984 123.553C437.252 123.208 437.882 123.24 438.108 122.846C439.322 120.72 440.935 124.763 441.188 125.636C442.67 130.75 449.383 129.876 453.364 129.876C456.289 129.876 460.854 130.658 462.75 127.901C463.479 126.84 465.086 124.886 466.41 124.658C467.649 124.444 469.19 123.13 469.671 122.049C469.853 121.639 469.601 121.129 469.907 120.762C470.601 119.929 472.932 121.352 473.639 121.56C476.437 122.379 479.036 122.701 481.92 122.701C482.634 122.701 480.628 122.403 480.253 122.375C479.215 122.298 478.003 122.164 476.937 122.031C476.028 121.917 475.236 120.796 474.201 121.541C473.007 122.401 474.528 125.855 475.288 126.615C476.077 127.404 477.172 128.864 478.368 128.898C480.489 128.958 483.172 129.664 485.235 129.206C486.572 128.909 488.009 128.744 488.479 127.267C489.046 125.485 489.964 124.294 489.964 122.375C489.964 121.622 490.042 122.002 490.291 122.574C490.831 123.816 490.795 125.274 491.269 126.578C491.882 128.265 494.088 130.494 495.98 130.528C500.827 130.617 506.556 126.167 508.736 122.049C509.124 121.315 509.666 119.452 510.493 121.107C511.361 122.843 511.038 125.206 512.396 126.687C513.415 127.799 518.175 126.941 519.462 126.941C522.129 126.941 524.79 126.946 527.453 126.778C529.159 126.67 530.147 125.811 531.693 125.618C532.544 125.512 532.789 122.987 533.342 123.643C534.314 124.798 533.212 127.17 534.175 128.409C535.996 130.75 538.638 130.202 541.35 130.202C545.03 130.202 551.914 129.405 553.87 125.817C554.125 125.35 555.595 124.147 556.027 124.024C557.588 123.578 557.468 125.363 556.099 125.89C553.755 126.791 551.723 130.056 550.229 131.978C548.92 133.66 548.996 134.618 548.996 136.689C548.996 137.957 548.709 139.344 549.649 140.313C551.327 142.042 554.576 141 556.172 142.596" stroke="black" stroke-width="3" stroke-linecap="round"/>
<path d="M555.846 145.205C553.745 144.869 552.485 144.684 550.791 146.002C550.183 146.475 549.122 146.42 548.526 147.017C547.843 147.7 548.018 149.916 548.018 150.822C548.018 152.213 548.398 152.433 549.323 153.359C550.194 154.23 551.398 154.118 552.421 154.826C553.509 155.579 554.532 156.088 555.846 156.276C557.082 156.452 554.572 156.294 554.215 156.294C552.576 156.294 551.446 156.78 550.301 157.925C548.992 159.234 547.366 160.166 547.366 162.164C547.366 164.009 546.953 166.489 547.874 168.198C549.375 170.986 550.8 170.191 553.382 171.224C554.45 171.651 556.152 170.777 554.378 171.459C552.904 172.026 551.956 174.208 550.809 175.355C549.362 176.802 547.619 180.379 549.178 182.222C550.592 183.894 552.651 184.994 554.868 184.994C555.103 184.994 556.875 185.174 556.299 185.302C554.569 185.687 553.038 185.86 551.298 186.462C548.495 187.432 547.002 190.038 547.765 193.003C548.261 194.934 551.101 195.848 552.748 196.101C553.71 196.25 554.535 196.409 555.52 196.409C557.584 196.409 555.628 197.032 554.541 197.062C551.265 197.15 547.656 197.256 545.917 200.486C544.275 203.535 547.947 205.254 549.649 206.701C550.776 207.659 553.452 207.172 554.868 207.172" stroke="black" stroke-width="3" stroke-linecap="round"/>
<path d="M556.172 207.824C554.843 208.09 551.549 209.104 550.791 210.452C549.9 212.036 548.021 212.632 546.877 214.039C545.538 215.687 544.34 217.598 546.062 219.511C546.91 220.454 549.259 220.544 550.483 220.544C552.341 220.544 553.974 220.87 555.52 220.87C558.49 220.87 555.479 221.523 554.251 221.523C553.028 221.523 550.891 223.426 550.156 224.295C549.408 225.179 549.649 226.494 549.649 227.574C549.649 228.702 548.176 230.953 549.214 232.032C550.031 232.879 551.84 233.807 552.911 234.315C553.725 234.701 555.519 234.125 556.099 234.641C556.416 234.922 554.735 234.892 554.686 234.894C554.054 234.931 552.775 235.572 552.258 235.945C549.751 237.756 548.023 240.694 550.301 243.374C552.172 245.575 553.052 247.614 556.498 247.614" stroke="black" stroke-width="3" stroke-linecap="round"/>
<path d="M555.846 248.919C552.774 249.483 552.566 251.22 550.628 253.159C549.304 254.483 548.494 255.439 547.511 257C545.235 260.615 551.434 261.964 553.726 261.964C554.64 261.964 555.678 262.145 556.498 261.711C557.192 261.343 553.941 261.463 553.4 261.838C550.654 263.739 548.997 266.896 548.997 270.191C548.997 273.289 551.477 274.684 554.288 274.684C554.741 274.684 557.549 274.781 555.864 274.992C553.708 275.262 550.75 276.555 549.196 278.109C546.259 281.046 549.197 283.028 551.28 284.813C552.078 285.496 553.104 286.947 554.215 287.078C554.756 287.141 556.959 287.46 556.824 287.73" stroke="black" stroke-width="3" stroke-linecap="round"/>
<path d="M555.52 290.013C553.423 290.013 552.743 290.028 551.117 291.154C550.046 291.896 549.384 293.001 548.67 294.071C547.444 295.911 547.717 299.115 549.25 300.703C550.253 301.741 551.521 302.739 552.403 303.874C553.034 304.686 554.354 304.363 555.32 304.363C555.579 304.363 557.58 304.549 557.277 304.852C556.574 305.555 554.023 304.992 553.092 305.178C550.562 305.684 549.215 308.215 548.598 310.56C548.267 311.819 548.112 313.054 548.924 314.147C549.632 315.1 551.403 317.24 552.584 317.409C553.518 317.542 554.507 317.322 555.447 317.427C555.918 317.479 557.351 317.735 555.991 317.735C552.941 317.735 548.67 319.126 548.67 322.609C548.67 324.31 548.313 326.456 549.069 328.027C549.764 329.469 551.521 331.025 552.765 332.013C553.076 332.26 554.567 332.664 554.65 332.774C554.855 333.047 553.925 333.328 553.925 333.553C553.925 333.752 554.416 333.722 554.541 333.879C555.066 334.535 554.212 334.595 553.563 334.767C552.492 335.05 551.739 336.192 550.953 336.977C548.416 339.515 548.465 342.171 551.28 344.406C551.989 344.969 552.506 345.457 553.418 345.457C554.027 345.457 556.015 345.783 554.378 345.783C551.196 345.783 548.498 348.814 548.036 351.817C547.682 354.123 548.321 357.277 550.627 358.43C551.377 358.805 552.415 358.41 553.237 358.757C554.093 359.117 555.595 358.829 556.498 358.829" stroke="black" stroke-width="3" stroke-linecap="round"/>
<path d="M555.52 360.134C553.206 360.685 550.294 363.529 549.722 365.932C549.459 367.034 547.611 370.435 549.033 371.349C549.743 371.806 550.817 371.532 551.606 371.947C552.335 372.331 552.489 372.527 553.382 372.527C553.906 372.527 553.543 372.662 553.817 373.179C554.144 373.797 555.422 373.488 556.027 373.505C556.554 373.521 557.41 374.119 557.586 374.647C557.805 375.305 554.048 375.136 553.636 375.136C550.988 375.136 548.81 377.687 549.015 380.354C549.232 383.169 551.286 385.374 554.07 385.881C555.583 386.156 557.597 385.939 554.614 386.805C551.288 387.771 547.941 389.879 546.388 393.074C544.973 395.986 545.865 399.15 548.689 400.738C550.036 401.496 551.252 402.128 552.73 402.55C554.256 402.986 558.878 402.184 557.477 402.931C555.394 404.042 553.185 404.215 551.353 406.047C549.853 407.547 548.608 411.478 549.033 413.603C549.246 414.668 550.215 415.312 550.302 416.484C550.389 417.658 551.598 418.027 552.53 418.35C553.574 418.712 554.009 419.131 555.194 419.166C555.763 419.182 556.268 419.683 556.498 420.144" stroke="black" stroke-width="3" stroke-linecap="round"/>
<path d="M555.846 421.449C552.717 423.554 544.969 428.987 551.099 432.664C552.17 433.307 554.596 432.581 555.447 433.262C556.523 434.123 552.562 435.205 552.077 435.545C549.914 437.066 549.975 438.911 549.975 441.343C549.975 443.539 551.636 445.156 553.708 445.91C554.711 446.274 555.358 447.122 556.299 447.54C556.926 447.819 554.287 447.866 554.07 447.866C552.566 447.866 548.997 449.798 548.997 451.49C548.997 452.914 548.715 454.637 549.069 456.02C549.299 456.916 550.358 458.907 550.954 459.608C552.108 460.966 553.19 460.124 554.541 460.84C555.026 461.096 552.037 463.102 551.389 463.594C548.704 465.63 546.825 470.355 549.359 473.432C550.337 474.62 552.718 475.589 554.215 475.589C554.633 475.589 556.577 475.312 555.701 475.987C554.669 476.784 553.362 477.838 552.258 478.451C550.747 479.291 551.113 482.614 551.679 484.141C552.04 485.118 553.107 484.975 553.491 485.699C553.852 486.381 553.45 486.819 554.215 487.33" stroke="black" stroke-width="3" stroke-linecap="round"/>
<path d="M554.541 488.634C551.763 488.77 549.049 492.597 548.526 495.139C547.932 498.024 548.628 500.319 551.533 501.535C552.872 502.095 554.284 502.293 555.628 502.677C555.786 502.722 554.33 503.517 554.143 503.564C552.503 503.974 550.176 505.022 549.214 506.5C547.441 509.223 548.738 511.568 550.772 513.602C551.127 513.957 553.905 515.626 553.237 515.704C551.045 515.962 548.546 518.417 548.363 520.614C548.073 524.092 549.561 526.053 551.914 528.406C552.134 528.626 554.97 531.09 554.795 531.287C554.178 531.981 553.186 532.234 552.421 532.7C550.882 533.637 549.237 535.966 548.399 537.538C547.238 539.714 549.134 542.48 550.229 544.332C550.472 544.744 552.755 546.951 551.588 547.34C547.106 548.834 543.775 554.628 547.692 558.266C548.799 559.293 549.496 561.166 550.627 561.944C551.319 562.419 551.506 563.607 552.512 563.647C553.077 563.67 553.649 563.647 554.215 563.647" stroke="black" stroke-width="3" stroke-linecap="round"/>
<path d="M551.932 566.256C548.079 566.256 542.937 571.049 544.105 575.171C544.447 576.38 545.253 577.967 546.551 578.306C547.052 578.436 548.418 578.85 548.816 579.175C550.294 580.385 550.608 582.916 552.258 583.796C552.927 584.153 550.647 583.598 550.102 583.071C548.737 581.75 547.926 579.925 546.605 578.541C546.11 578.023 545.442 577.647 545.083 577.019C544.627 576.221 543.364 575.369 542.474 575.135C541.458 574.867 543.843 582.703 543.887 582.817C544.683 584.894 545.821 586.793 546.877 588.742C547.342 589.602 547.966 591.178 548.689 591.841C549.356 592.452 550.035 592.074 550.7 592.493C550.991 592.676 552.359 594.046 551.28 593.326" stroke="black" stroke-width="3" stroke-linecap="round"/>
<path d="M100.875 131.507C102.077 132.21 103.18 132.685 104.064 133.79C104.724 134.615 105.417 134.461 106.166 135.022C106.654 135.388 107.073 135.378 107.652 135.421C108.502 135.484 109.558 136.713 110.333 137.124C114.792 139.484 114.573 143.541 114.573 148.14C114.573 152.77 105.006 151.672 101.926 151.003C100.453 150.683 99.385 150.484 97.8674 150.423C93.7507 150.259 106.126 150.713 110.188 151.402C111.744 151.665 114.721 152.501 115.298 154.337C115.817 155.987 116.005 158.372 114.573 159.374C111.477 161.541 108.159 163.016 104.789 164.701C104.135 165.028 103.711 165.058 102.977 165.1C102.162 165.146 101.707 165.99 100.875 166.078C100.537 166.114 99.1678 166.46 99.7518 166.875C102.179 168.601 106.83 167.709 109.609 167.709C112.563 167.709 114.624 167.686 117.327 168.76C119.719 169.709 120.637 170.922 118.414 172.601C117.304 173.44 115.893 173.706 114.791 174.558C113.876 175.265 113.117 176.205 112.145 176.841C110.15 178.147 107.012 179.261 104.716 179.849C103.343 180.2 102.059 180.791 100.73 181.153C97.2657 182.098 104.074 182.059 105.006 182.059C108.141 182.059 109.253 183.334 110.913 185.792C111.725 186.994 111.643 190.756 111.239 192.17C110.764 193.832 108.559 194.37 107.072 194.453C104.589 194.59 102.144 194.721 99.643 194.779C97.7677 194.822 101.459 195.105 101.817 195.105C104.407 195.105 107.003 195.047 109.572 195.431C112.667 195.894 114.065 196.054 115.225 199.127C115.563 200.021 115.713 200.929 115.407 201.881C114.935 203.345 113.54 203.234 112.689 204.237C110.946 206.291 107.577 206.44 105.187 207.426C103.551 208.101 101.736 208.449 99.9692 208.477C99.7561 208.48 96.7432 208.386 96.9977 208.875C97.4567 209.758 99.8668 209.674 100.549 209.709C103.105 209.839 105.673 209.781 108.231 209.781C110.211 209.781 111.106 209.491 112.29 211.013C113.877 213.054 115.552 212.34 115.552 215.398C115.552 219.47 112.055 220.563 109.174 222.9C107.393 224.343 104.051 225.89 102.832 227.719" stroke="black" stroke-width="3" stroke-linecap="round"/>
<path d="M98.9189 229.35C102.985 227.763 106.688 229.61 110.08 231.959C111.348 232.837 112.71 234.305 113.668 235.547C115.431 237.833 113.517 237.67 111.639 238.554C109.625 239.502 107.282 241.417 105.043 241.417C103.816 241.417 102.441 241.921 101.347 242.468C100.978 242.653 100.596 242.766 100.224 242.976C99.508 243.378 103.37 244.312 103.63 244.353C107.25 244.912 112.656 245.351 113.903 249.716C115.246 254.416 110.754 258.051 106.257 258.051C104.374 258.051 102.534 257.954 100.713 258.359C97.084 259.165 102.18 260.847 103.159 261.511C106.024 263.455 112.202 268.544 109.664 272.564C108.541 274.341 107.088 276.274 104.971 276.659C103.444 276.936 102.206 277.932 100.876 278.598" stroke="black" stroke-width="3" stroke-linecap="round"/>
<path d="M99.8973 281.207C102.878 281.207 104.352 281.36 106.764 283.019C108.409 284.149 110.66 285.366 110.66 287.548C110.66 288.514 108.791 289.978 107.978 290.339C106.12 291.165 104.113 291.703 102.217 292.441C100.824 292.982 102.878 293.712 103.557 294.253C104.907 295.326 106.202 296.45 107.562 297.514C109.813 299.276 110.088 301.442 109.664 304.2C109.479 305.399 107.278 307.182 106.167 307.552C105.079 307.914 103.944 308.075 102.978 308.784C102.166 309.379 101.244 310.158 100.622 310.958C100.556 311.043 104.108 312.523 104.445 312.68C108.299 314.469 108.703 316.873 108.703 320.833C108.703 322.496 108.116 323.309 107.072 324.584C105.955 325.949 105.823 327.191 104.137 328.099C102.656 328.896 100.997 330.135 100.079 331.578C99.4847 332.511 102.78 333.101 103.412 333.39C105.789 334.475 107.871 337.706 107.326 340.311C106.646 343.562 103.485 345.13 101.673 347.668C100.903 348.745 96.9158 351.066 98.8102 353.031C99.9276 354.19 102.133 354.548 102.978 355.93C103.862 357.377 104.116 359.191 105.043 360.713C105.601 361.629 107.197 362.595 107.054 363.739C106.891 365.046 105.241 366.529 104.391 367.49C102.802 369.286 98.2666 371.346 98.2666 374.158" stroke="black" stroke-width="3" stroke-linecap="round"/>
<path d="M98.5921 375.789C101.503 375.847 103.347 376.518 104.318 379.376C104.918 381.142 106.593 382.706 106.728 384.594C106.882 386.756 105.706 388.292 104.39 389.813C103.578 390.751 100.585 392.4 100.585 393.871C100.585 394.341 102.5 394.412 102.759 394.451C104.012 394.639 104.433 394.837 104.952 395.991C105.67 397.588 106.635 398.044 105.767 400.104C105.269 401.289 105.098 402.442 104.263 403.493C102.692 405.472 100.151 406.615 98.1935 408.167C97.4331 408.77 96.3342 409.394 97.6137 410.034" stroke="black" stroke-width="3" stroke-linecap="round"/>
<path d="M99.2449 409.708C103.11 410.821 104.966 411.659 107 415.179C107.675 416.347 107.338 417.559 106.402 418.495C105.359 419.538 104.928 420.253 104.065 421.449C103.252 422.574 102.625 422.825 101.401 423.098C100.231 423.358 103.604 424.425 103.738 424.456C104.526 424.64 105.644 425.464 106.42 425.852C107.628 426.456 107.725 426.351 107.725 427.718C107.725 429.874 108.067 433.722 105.768 435.074C103.986 436.122 101.792 436.006 100.296 437.502C99.9144 437.884 99.1853 438.59 100.078 438.752C101.428 438.998 102.079 440.044 103.086 440.872C104.795 442.277 107.072 444.517 107.072 446.906C107.072 448.148 107.436 450.434 106.601 451.454C105.383 452.942 103.977 453.132 102.162 453.556C101.325 453.751 99.4722 453.572 98.81 454.317C98.7454 454.389 100.662 456.18 100.876 456.346C102.923 457.938 104.641 459.591 105.605 462.054C106.321 463.885 106.513 465.804 106.42 467.761C106.38 468.601 104.867 469.093 104.3 469.573C102.874 470.78 100.785 471.309 98.9912 471.747C98.3865 471.895 95.777 472.515 96.4908 473.432C97.2243 474.375 98.7575 475.101 99.6435 475.987C100.685 477.029 101.434 477.743 102.035 479.031C102.638 480.323 102.987 481.518 103.485 482.836C103.74 483.512 104.556 484.851 104.445 485.572C103.959 488.731 101.742 489.725 99.571 491.896" stroke="black" stroke-width="3" stroke-linecap="round"/>
<path d="M97.9401 493.853C99.127 493.83 102.639 493.1 103.485 494.469C104.31 495.805 104.941 496.976 106.076 498.111C109.301 501.336 104.983 502.762 103.158 505.25C101.901 506.964 99.8899 507.912 98.5924 509.58C98.1033 510.209 96.5715 510.535 98.0126 510.993C101.411 512.075 105.806 511.375 107.235 515.378C107.79 516.931 106.128 518.407 105.478 519.636C105.003 520.533 104.834 521.589 104.209 522.408C103.538 523.289 102.125 523.87 101.202 524.438C99.9003 525.237 98.4973 526.282 97.1248 526.938C94.1105 528.38 98.7351 528.119 100.078 528.424C102.516 528.976 106.625 530.177 104.137 533.57C102.959 535.176 101.705 536.726 100.296 538.136C98.3594 540.072 95.5721 542.051 94.6787 544.731" stroke="black" stroke-width="3" stroke-linecap="round"/>
<path d="M96.3095 544.405C97.7195 544.405 100 543.958 101.274 544.731C102.223 545.307 102.842 546.067 103.738 546.688C105.077 547.614 106.733 549.996 106.347 551.652C105.675 554.544 101.702 558.068 99.6071 559.951C99.3937 560.143 96.0968 562.631 97.4328 562.669C99.5627 562.73 101.25 562.237 103.267 561.509C103.476 561.434 107.066 560.222 107.072 560.277C107.212 561.535 107.072 562.893 107.072 564.155C107.072 565.721 107.28 567.467 107 569.011C106.59 571.264 105.178 573.684 104.137 575.715C103.297 577.352 102.103 578.451 101.455 580.208C100.96 581.553 100.243 583.035 99.4984 584.267C98.8499 585.339 98.3966 586.398 97.8677 587.456C97.3424 588.506 95.8338 589.236 95.0049 590.065" stroke="black" stroke-width="3" stroke-linecap="round"/>
<path d="M96.9619 591.043C99.0165 588.38 101.175 586.143 102.361 582.908C102.849 581.578 103.264 580.033 104.137 578.904C105.424 577.237 105.789 574.751 107.254 573.287C108.325 572.215 109.61 571.716 110.841 570.895C114.684 568.333 116.857 583.901 116.857 587.202C116.857 587.92 116.857 591.355 116.857 590.88C116.857 587.513 116.799 584.561 118.089 581.404C118.986 579.207 120.019 577.1 121.242 575.099C121.737 574.287 122.854 573.758 123.778 573.758C126.331 573.758 127.589 574.758 129.232 576.729C130.336 578.055 130.827 579.711 131.678 581.187C132.174 582.046 133.185 582.613 133.418 583.614C133.852 585.483 133.997 591.258 133.997 589.34C133.997 586.372 134.93 584.646 136.588 582.201C137.321 581.122 138.101 578.006 139.524 577.69C141.228 577.311 143.881 579.813 144.833 580.933C146.14 582.473 147.113 584.24 148.166 585.952C148.407 586.342 149.076 589.015 149.399 588.434C149.728 587.841 149.693 587.045 149.87 586.405C150.22 585.139 151.509 583.823 152.424 582.908C153.998 581.334 155.278 580.57 157.516 580.607C160.354 580.653 161.117 582.728 162.227 585.01C163.104 586.812 164.735 587.624 165.38 589.485C165.521 589.892 166.084 591.792 166.304 591.206C167.352 588.41 168.134 586.818 170.417 584.847C172.012 583.469 172.836 581.471 175.255 582.6C179.969 584.8 184.807 587.422 186.651 592.493C186.956 593.329 188.241 590.06 188.318 589.92C189.065 588.564 189.896 587.11 191.145 586.151C191.835 585.622 192.816 585.653 193.428 585.1C194.425 584.2 194.968 583.122 196.273 582.582C198.142 581.808 200.607 585.418 201.98 586.477C202.835 587.137 204.086 589.086 205.242 589.086" stroke="black" stroke-width="3" stroke-linecap="round"/>
<path d="M206.872 591.696C206.872 587.018 211.015 582.564 215.66 582.564C219.35 582.564 219.678 586.428 220.208 589.34C220.352 590.132 220.896 590.742 220.896 591.514C220.896 592.417 221.806 589.049 221.911 588.615C222.627 585.661 224.548 582.737 226.767 580.752C228.645 579.071 231.06 582.924 231.985 584.122C233.407 585.962 233.678 588.63 234.667 590.717C235.042 591.509 234.946 590.935 235.174 590.319C235.866 588.451 236.307 586.795 237.53 585.173C238.745 583.56 240.491 581.995 242.404 581.277C244.737 580.402 247.222 584.666 248.256 586.332C249.134 587.747 249.823 591.529 251.427 588.199C253.446 584.005 257.582 581.657 261.646 579.828C262.991 579.223 264.766 582.012 265.505 582.89C267.017 584.685 267.856 586.976 269.419 588.688C269.668 588.96 270.22 590.391 270.47 590.391C271.623 590.391 272.423 588.463 273.079 587.782C275.767 584.992 278.431 582.283 281.233 579.628C283.099 577.86 286.294 584.04 286.922 585.028C287.883 586.537 288.251 588.29 289.35 589.703C290.25 590.859 291.048 589.101 291.524 588.217C292.938 585.591 295.168 583.915 297.504 582.111C298.083 581.663 299.493 581.04 299.823 580.462C300.053 580.059 301.404 580.281 301.78 580.281C303.348 580.281 303.867 580.686 304.896 581.948C306.704 584.163 308.216 586.361 309.317 588.978C309.781 590.078 310.731 590.718 311.383 591.623C312.2 592.758 313.323 590.372 313.666 589.847C316.022 586.249 318.955 580.321 324.103 580.607C326.262 580.727 327.314 583.107 328.596 584.52C330.374 586.481 331.717 587.436 332.51 589.992C332.707 590.627 333.081 591.705 333.488 592.203C334.116 592.97 333.772 590.241 333.959 589.268C334.328 587.359 335.3 585.446 336.097 583.687C336.981 581.739 340.078 574.235 343.218 577.218C346.346 580.19 347.809 583.677 349.379 587.601C349.614 588.188 349.909 589.291 350.538 589.431C350.794 589.488 351.873 590.284 351.988 589.884C352.724 587.306 354.615 595.212 354.615 590.518C354.615 586.509 356.182 578.65 361.464 578.65C364.837 578.65 366.378 582.34 367.48 585.173C368.046 586.629 369.379 588.787 370.343 589.992C370.963 590.768 371.854 591.256 372.481 592.022C373.31 593.036 372.921 592.043 373.532 592.348" stroke="black" stroke-width="3" stroke-linecap="round"/>
<path d="M370.27 590.065C372.102 583.605 379.609 581.869 384.711 578.541C386.646 577.279 389.528 581.598 389.766 583.433C390.008 585.298 389.317 587.759 390.002 589.54C390.247 590.178 390.528 589.241 390.672 588.869C391.749 586.093 392.727 583.425 394.187 580.788C395.152 579.046 397.895 576.895 400.13 577.708C402.834 578.691 404.142 584.413 404.588 586.985C404.738 587.853 405.494 590.348 405.494 589.467C405.494 585.156 407.111 579.331 410.784 576.766C412.425 575.62 414.316 574.911 415.785 576.439C418.563 579.328 419.488 583.948 420.967 587.528C421.361 588.481 422.098 589.234 422.453 590.21C422.892 591.416 422.816 590.208 422.978 589.54C423.987 585.395 427.464 580.777 431.513 579.121C433.965 578.118 436.688 582.346 437.438 584.031C438.348 586.081 439.321 588.07 440.318 590.065C440.332 590.092 440.502 588.277 440.554 587.854C440.992 584.266 440.65 580.303 443.634 577.726C446.518 575.236 447.033 574.811 449.777 577.599C453.026 580.902 453.634 586.095 456.444 589.739C456.995 590.453 457.387 591.101 457.858 591.841C458.651 593.087 458.181 590.11 458.166 589.938C457.713 584.869 457.567 579.087 458.727 574.12C458.972 573.075 459.95 571.185 461.264 571.149C464.341 571.063 466.85 573.527 468.421 576.041C469.838 578.308 471.641 580.303 473.259 582.382C475.003 584.625 475.696 586.419 476.611 589.05C477.656 592.055 477.571 591.041 477.571 588.833C477.571 584.006 477.268 578.905 478.242 574.156C478.51 572.848 479.001 572.348 480.235 572.471C481.346 572.582 482.521 572.687 483.623 572.852C485.88 573.189 486.2 575.449 486.848 577.273C488.505 581.931 490 587.571 493.081 591.533C493.484 592.05 493.775 592.701 494.205 593.181C494.859 593.913 493.789 590.694 493.734 590.464C493.205 588.253 491.978 584.272 493.589 582.056C494.5 580.803 496.576 581.259 497.937 581.259C502.259 581.259 506.321 581.957 510.439 583.452C514.831 585.045 517.023 588.517 520.731 591.007C521.956 591.83 523.088 592.64 524.21 593.58C525.046 594.28 526.839 593.933 527.797 593.979" stroke="black" stroke-width="3" stroke-linecap="round"/>
<path d="M523.884 591.696C521.522 588.709 521.066 586.488 521.293 582.745C521.395 581.053 523.099 578.976 524.935 578.976C527.843 578.976 530.561 580.302 532.037 582.926C533.205 585.002 534.559 586.849 535.788 588.76C537.143 590.868 536.532 588.492 536.603 587.13C536.735 584.635 536.436 579.031 539.067 577.835C541.448 576.753 544.314 581.627 545.735 583.216C546.031 583.546 546.468 585.173 546.388 585.173" stroke="black" stroke-width="3" stroke-linecap="round"/>
<path d="M95.6569 123.027C88.0441 119.946 80.6543 113.575 80.6543 104.763" stroke="black" stroke-width="3" stroke-linecap="round"/>
<path d="M560.086 123.679C564.871 122.117 565.415 121.067 568.203 117.483C569.237 116.153 571.827 112.629 571.827 110.96C571.827 108.804 572.385 108.143 573.639 106.575C574.71 105.236 572.708 102.366 574.436 101.502" stroke="black" stroke-width="3" stroke-linecap="round"/>
<path d="M95.0044 590.065C93.1567 598.482 86.7584 611.947 78.0449 614.852" stroke="black" stroke-width="3" stroke-linecap="round"/>
<path d="M553.563 594.631C553.644 598.051 554.373 601.39 555.665 604.56C556.107 605.645 558.086 608.916 559.107 609.597C562.258 611.698 563.534 616.156 567.913 616.156" stroke="black" stroke-width="3" stroke-linecap="round"/>
<path d="M75.4365 618.113C170.94 618.113 266.387 618.766 361.936 618.766C408.633 618.766 455.107 618.766 501.706 618.766C523.983 618.766 546.401 619.418 568.566 619.418" stroke="black" stroke-width="3" stroke-linecap="round"/>
<path d="M576.393 101.502C574.314 112.414 575.437 123.196 575.74 134.116C576.217 151.264 575.74 168.491 575.74 185.647C575.74 217.226 576.393 248.702 576.393 280.228" stroke="black" stroke-width="3" stroke-linecap="round"/>
<path d="M576.393 280.228C576.393 298.178 576.393 316.128 576.393 334.078C576.393 341.611 577.598 349.695 579.365 356.981C580.653 362.294 577.871 369.285 580.307 374.158" stroke="black" stroke-width="3" stroke-linecap="round"/>
<path d="M580.307 372.853C580.979 376.382 580.372 378.548 579.799 381.985C579.261 385.217 579.654 388.763 579.654 392.023C579.654 398.341 579.654 404.658 579.654 410.976C579.654 426.893 579.002 442.748 579.002 458.629C579.002 468.744 576.013 478.527 574.509 488.308C572.988 498.192 573.274 508.054 570.885 517.951C569.43 523.978 570.522 531.403 570.522 537.592C570.522 542.037 570.522 546.483 570.522 550.928C570.522 561.485 570.522 572.043 570.522 582.6C570.522 591.256 569.218 599.839 569.218 608.329C569.218 610.852 570.377 620.216 569.218 621.375" stroke="black" stroke-width="3" stroke-linecap="round"/>
<path d="M75.4362 616.156C74.4416 609.816 75.4362 603.94 75.4362 597.602C75.4362 592.469 75.4362 587.335 75.4362 582.201C75.4362 574.345 76.0884 566.594 76.0884 558.755" stroke="black" stroke-width="3" stroke-linecap="round"/>
<path d="M80.0018 102.154C78.7555 108.697 79.3495 115.597 79.3495 122.23C79.3495 129.579 78.0449 136.71 78.0449 144.118C78.0449 155.581 78.0449 167.044 78.0449 178.508C78.0449 199.828 78.0449 221.148 78.0449 242.468C78.0449 250.669 78.9489 258.391 79.6756 266.53C79.9063 269.113 78.4187 285.634 80.6541 286.751" stroke="black" stroke-width="3" stroke-linecap="round"/>
<path d="M78.6978 287.404C78.6978 316.239 77.3932 345 77.3932 373.868C77.3932 401.825 72.1749 429.342 72.1749 457.288C72.1749 468.474 72.1749 479.659 72.1749 490.845C72.1749 500.839 73.1898 511.39 71.6676 521.285C69.3999 536.025 73.4795 550.731 73.4795 565.278" stroke="black" stroke-width="3" stroke-linecap="round"/>
<path d="M81.3066 101.502C91.0452 104.685 101.795 103.458 111.964 103.458C124.623 103.458 137.283 103.458 149.942 103.458C164.456 103.458 179.752 102.873 194.152 100.994C205.418 99.5248 216.983 100.197 228.325 100.197C237.023 100.197 245.523 99.2373 254.163 98.9287C261.54 98.6652 268.976 99.3034 276.341 98.7475C286.176 98.0052 296.042 98.2402 305.911 98.2402C329.913 98.2402 353.914 98.2402 377.916 98.2402C415.484 98.2402 453.098 97.5879 490.653 97.5879C512.651 97.5879 534.769 98.2402 556.824 98.2402C563.898 98.2402 570.769 99.5448 577.697 99.5448" stroke="black" stroke-width="3" stroke-linecap="round"/>
<path d="M75.4362 100.849C75.4362 110.431 72.8271 119.431 72.8271 129.043C72.8271 140.264 72.1748 151.495 72.1748 162.817C72.1748 187.436 73.4794 212.068 73.4794 236.525" stroke="black" stroke-width="3" stroke-linecap="round"/>
<path d="M72.8271 235.873C72.8271 251.648 72.8271 267.424 72.8271 283.2C72.8271 290.411 73.4794 297.578 73.4794 304.762C73.4794 313.636 72.0918 323.744 73.6244 332.556C75.1462 341.307 74.1317 350.899 74.1317 359.735C74.1317 374.948 73.4794 390.419 73.4794 405.83C73.4794 419.572 72.8271 433.653 72.8271 447.214" stroke="black" stroke-width="3" stroke-linecap="round"/>
<path d="M72.1752 408.077C72.0288 414.663 70.8706 421.084 70.8706 427.718C70.8706 431.795 70.4818 435.667 70.1821 439.713C69.6789 446.506 68.8155 453.217 68.2252 460.006C67.8472 464.353 66.9569 468.585 66.9569 472.979C66.9569 478.655 67.9814 485.362 66.8119 490.917C64.0802 503.893 67.3078 517.285 66.1596 530.489C65.2044 541.474 65.6523 552.609 65.6523 563.647C65.6523 572.957 65 582.272 65 591.623C65 598.062 65 604.5 65 610.938C65 615.295 66.3046 619.48 66.3046 623.984" stroke="black" stroke-width="3" stroke-linecap="round"/>
<path d="M66.9561 626.593C79.7589 626.688 92.442 628.55 105.224 628.55C112.085 628.55 118.946 628.55 125.807 628.55C143.105 628.55 160.402 628.55 177.7 628.55C198.862 628.55 219.971 626.235 241.117 625.941C252.563 625.782 264.077 624.119 275.543 623.984C284.334 623.881 293.133 623.984 301.924 623.984C329.202 623.984 356.444 624.636 383.714 624.636C398.319 624.636 412.903 625.289 427.526 625.289C437.621 625.289 448.254 624.42 458.292 625.615C475.459 627.658 493.354 625.289 510.584 625.289C530.998 625.289 551.412 625.289 571.827 625.289" stroke="black" stroke-width="3" stroke-linecap="round"/>
<path d="M573.131 625.289C571.405 616.224 572.479 606.486 572.479 597.276C572.479 591.59 571.921 585.601 572.515 579.955C572.809 577.166 573.534 574.311 573.929 571.511C574.686 566.132 575.003 560.827 575.596 555.421C576.282 549.158 575.741 542.588 575.741 536.288C575.741 518.131 576.393 500.006 576.393 481.785" stroke="black" stroke-width="3" stroke-linecap="round"/>
<path d="M575.741 481.785C575.741 435.479 577.045 389.194 577.045 342.848" stroke="black" stroke-width="3" stroke-linecap="round"/>
<path d="M580.959 94.3264C580.959 107.01 580.959 119.693 580.959 132.377C580.959 145.341 579.654 158.264 579.654 171.296C579.654 192.955 579.654 214.613 579.654 236.271C579.654 259.077 579.654 281.883 579.654 304.689C579.654 317.844 579.654 330.998 579.654 344.153C579.654 347.74 579.654 351.328 579.654 354.915C579.654 357.558 580.533 362.077 579.002 364.373" stroke="black" stroke-width="3" stroke-linecap="round"/>
<path d="M74.7841 97.5879C74.2614 100.267 74.1318 102.71 74.1318 105.415" stroke="black" stroke-width="3" stroke-linecap="round"/>
<path d="M74.7842 95.631C121.699 95.631 168.59 96.9736 215.533 96.2833C221.089 96.2016 226.508 94.9787 232.13 94.9787C238.001 94.9787 243.872 94.9787 249.742 94.9787C262.13 94.9787 274.452 94.8042 286.814 94.3627C306.441 93.6617 326.125 93.6741 345.773 93.6741C356.243 93.6741 366.726 92.3696 377.156 92.3696C412.826 92.3696 448.497 92.3696 484.167 92.3696C504.473 92.3696 524.778 92.3696 545.083 92.3696C550.966 92.3696 556.849 92.3696 562.731 92.3696C565.959 92.3696 570.67 91.5492 573.712 92.7319C575.676 93.496 577.506 94.3264 579.655 94.3264" stroke="black" stroke-width="3" stroke-linecap="round"/>
<path d="M232.638 93.6742C239.865 88.8558 245.98 82.5284 252.859 77.2221C254.402 76.0317 254.892 74.3178 256.845 73.5983C260.4 72.2886 262.468 70.9125 265.614 68.9598C268.363 67.2537 272.017 66.2929 275.036 65.1185C278.04 63.9506 279.928 62.3328 282.501 60.48C286.181 57.8311 290.576 56.8804 293.953 53.5948C297.725 49.9242 303.385 48.8934 306.998 45.0788C309.476 42.4633 312.768 39.6927 315.623 37.5775C318.253 35.6295 322.984 31.4685 325.263 34.3161" stroke="black" stroke-width="3" stroke-linecap="round"/>
<path d="M411.364 91.7174C401.765 82.3069 391.185 74.0098 380.96 65.2997C373.268 58.7467 364.794 52.3869 356.427 46.7095C352.347 43.9411 347.583 43.1209 343.526 40.5128C340.544 38.5958 337.499 36.5543 334.104 35.5844C332.347 35.0824 331.157 33.1158 329.176 33.0115C327.667 32.9321 325.319 31.3102 323.958 30.4023" stroke="black" stroke-width="3" stroke-linecap="round"/>
<path d="M325.915 35.6205C321.833 33.0937 318.789 29.639 315.116 26.6334C313.97 25.6958 311.661 23.6975 310.912 22.5747" stroke="black" stroke-width="3" stroke-linecap="round"/>
<path d="M310.26 18.0089C306.786 20.5354 303.549 24.1474 307.651 27.7932C310.584 30.4002 314.684 23.1692 314.826 20.6181C315.046 16.6618 314.188 14.7819 310.26 16.8493C307.712 18.1902 305.963 27.826 309.209 27.1047C311.576 26.5787 313.623 20.0246 310.586 19.3497C307.526 18.6698 309.021 29.9264 312.833 22.9373C313.585 21.5592 314.174 19.9057 314.174 18.3351C314.174 15.6804 314.412 16.7236 314.862 18.2988C315.756 21.4252 316.596 25.8364 312.217 25.8364" stroke="black" stroke-width="3" stroke-linecap="round"/>
<path d="M312.217 25.1841C317.139 27.1765 319.131 30.2182 322.943 33.3377C324.454 34.5733 326.794 37.0007 328.524 37.5775" stroke="black" stroke-width="3" stroke-linecap="round"/>
</svg>
