<svg width="401" height="116" viewBox="0 0 401 116" fill="none" xmlns="http://www.w3.org/2000/svg">
<path d="M206.978 51.5518C203.494 56.5978 198.009 61.256 192.339 63.524C190.553 64.2383 196.322 63.2802 197.978 62.3018C200.362 60.8928 203.1 58.0382 204.367 55.5518C205.839 52.6626 207.113 50.2458 208.978 47.5518C211.116 44.4629 209.38 46.7052 207.978 48.1073C203.217 52.8683 199.415 58.3473 193.784 62.2462C193.311 62.5734 191.745 63.0268 192.061 63.0795C193.84 63.376 195.751 63.7789 197.2 62.3295C201.003 58.527 204.394 54.1913 208.2 50.3851C211.897 46.688 201.264 58.5012 196.7 61.0518C195.512 61.7157 195.178 62.0518 193.784 62.0518C193.078 62.0518 194.478 63.346 194.478 64.0518" stroke="black" stroke-width="3" stroke-linecap="round"/>
<path d="M192.478 64.0516C195.001 65.9066 202.271 71.5678 199.339 70.4683C196.859 69.5382 195.81 66.6617 193.589 65.2739C193.455 65.19 196.315 67.3969 196.95 67.7461C198.714 68.7159 200.72 69.3764 202.422 70.4405C203.236 70.9489 202.463 71.0715 201.978 70.9405C200.313 70.4905 198.645 69.1382 197.339 68.0794C194.777 66.0019 194.982 65.3801 197.728 67.0516C203.853 70.7797 195.181 64.7323 196.034 64.7739C198.339 64.8863 201.1 66.9909 202.45 68.7461C204.213 71.0375 202.052 69.2838 200.95 68.2183C200.663 67.9406 196.686 63.4449 197.089 63.1627C197.923 62.5791 204.211 66.9206 205.034 67.4405C208.027 69.3336 205.477 69.2355 203.756 67.9961C203.413 67.7494 201.543 66.2142 201.7 65.6627C202.065 64.3877 203.83 67.2448 204.922 67.9961C205.206 68.191 208.488 70.3198 208.367 70.4405C207.496 71.3114 206.978 69.5819 206.978 69.0516" stroke="black" stroke-width="3" stroke-linecap="round"/>
</svg>
