<svg width="401" height="116" viewBox="0 0 401 116" fill="none" xmlns="http://www.w3.org/2000/svg">
<path d="M181.5 61.5C182.187 62.4451 183 63.2922 183 64.5C183 64.8733 182.862 65.577 183.111 65.8889C183.742 66.678 184.287 67.7577 184.472 68.7778C184.738 70.2421 184 71.3512 184 72.75C184 75.4716 184.105 73.8289 184.611 72.5C185.643 69.7924 186 65.668 186 62.75C186 60.8338 185.814 59.5 183 59.5" stroke="#D3646B" stroke-width="3" stroke-linecap="round"/>
<path d="M178.573 53C184.535 48.3423 191.06 41 198.795 41C206.4 41 212.099 41.0811 217.795 46.7778C221.053 50.035 227.919 52.1181 227.573 58C227.513 59.0173 219.573 61.5397 219.573 58.5C219.573 54.9485 226.627 56 223.573 56" stroke="black" stroke-width="3" stroke-linecap="round"/>
<path d="M180.573 54.0001C179.933 58.2662 180.178 58.2876 183.573 59.5001C185.345 60.1327 187.182 60.3527 187.518 58.0001C187.892 55.3814 182.475 55.0011 180.796 56.2223C178.498 57.893 183.659 59.3327 185.018 58.9445C187.502 58.2349 184.247 52.706 182.796 52.2223C181.481 51.7841 178.864 55.7044 179.129 56.5001C180.743 61.3422 185.918 57.2962 180.907 56.2223C167.415 53.3311 177.069 64.0031 181.573 61.0001" stroke="black" stroke-width="3" stroke-linecap="round"/>
</svg>
