<svg width="401" height="116" viewBox="0 0 401 116" fill="none" xmlns="http://www.w3.org/2000/svg">
<path d="M174.838 61C181.58 69.5566 189.503 74 200.338 74C204.583 74 211.057 75.4556 212.838 70.5556C214.271 66.6158 219.425 64.2413 220.838 60" stroke="black" stroke-width="3" stroke-linecap="round"/>
<path d="M176.838 62C178.589 64.8705 179.889 68.4183 183.394 69.0556C185.048 69.3563 187.88 69.6897 189.338 70.5C192.962 72.5132 197.15 73 201.338 73C205.143 73 209.173 73.1102 212.061 70.2222C213.504 68.7788 211.976 66.5776 213.061 65.2222C214.109 63.9117 215.279 63.6768 215.838 62" stroke="black" stroke-width="3" stroke-linecap="round"/>
<path d="M176.838 58C183.559 66.6025 197.494 75.5513 208.838 71.5C210.861 70.7774 216.898 68.0894 217.838 66.4444C219.008 64.3974 221.838 58.2534 221.838 60.6111C221.838 65.4382 210.733 67.7 207.616 69.7778C203.805 72.3185 196.133 70.9288 192.838 68C191.17 66.517 188.75 66.4675 187.06 64.7778C185.602 63.3194 183.583 60.5631 181.894 60C177.248 58.4513 173.694 58.2588 171.338 62.5C169.198 66.3518 177.836 66 179.838 66" stroke="black" stroke-width="3" stroke-linecap="round"/>
<path d="M219.838 62.0001C220.776 61.4514 228.838 56.2605 228.838 60.5001C228.838 63.0892 225.338 65.2278 223.616 66.7778C221.863 68.3555 219.162 65.5547 218.894 63.9445C218.382 60.8713 222.824 62.0001 224.838 62.0001" stroke="black" stroke-width="3" stroke-linecap="round"/>
</svg>
