<svg width="401" height="116" viewBox="0 0 401 116" fill="none" xmlns="http://www.w3.org/2000/svg">
<path d="M197 70C197.585 70.3102 203.823 74.0977 200.389 71.6111C198.868 70.5095 197.007 69.5091 195.833 68C195.623 67.7292 194.702 65.8842 194.778 65.8889C198.986 66.1519 201.876 70.3754 205.25 72.25C205.413 72.3406 206.594 72.7441 206.167 72.1944C204.637 70.2276 201.652 69.528 199.611 68.2778C197.76 67.1436 195.499 65.7235 194.111 64C193.536 63.2859 191.352 62.29 192.222 62C195.396 60.942 199.206 65.5 202.5 65.5C203.837 65.5 205.683 66.351 204 65.75C201.852 64.9829 200.219 63.3436 198.5 61.8889C197.686 61.1997 195.858 60.0297 195.333 59.1111C194.453 57.5699 198.643 60.4109 200.222 61.2222C201.799 62.0324 203.061 63.3694 204.889 63.5C206.794 63.6361 204.867 63.0178 203.667 61.6944C201.348 59.1376 198.102 56.8773 196 54.25C195.646 53.8081 200.031 54.4662 200.389 54.5556C200.431 54.566 205.123 56.4102 205.167 56.2778C205.437 55.4676 199.105 50.9849 198 49.7222C197.716 49.3976 200.957 49.5 201.389 49.5C204.396 49.5 203.688 48.9948 201.472 47.2778C200.955 46.8773 194.425 41.7608 196.056 41.5278C197.778 41.2817 200.466 43.136 201 41" stroke="#FF7A7A" stroke-width="3" stroke-linecap="round"/>
<path d="M195.006 45.2704C192.605 53.4601 192.812 62.1897 195.506 70.2704C196.392 72.9282 197.829 75.1978 200.617 76.1593C202.853 76.9303 203.764 75.6348 205.033 74.0482C206.218 72.5677 207.722 71.7638 207.95 69.7148C208.176 67.6843 208.006 65.5624 208.006 63.5204C208.006 60.2701 209.291 56.0199 208.395 52.8815C207.8 50.8001 208.006 58.345 208.006 59.0482C208.006 63.3568 208.351 67.5447 205.7 71.2148C204.499 72.8783 202.365 73.2704 200.506 73.2704C198.73 73.2704 196.133 74.2787 194.506 73.4648C192.836 72.6299 192.149 70.4717 192.033 68.7426C191.86 66.141 192.078 63.5149 191.978 60.9093C191.88 58.3592 191.045 55.9464 191.006 53.3815C190.943 49.2483 191.415 45.2053 191.506 41.1037C191.593 37.1808 191.506 44.907 191.506 45.7982C191.506 52.6889 193.006 59.4424 193.006 66.2704" stroke="black" stroke-width="3" stroke-linecap="round"/>
</svg>
