<svg width="401" height="116" viewBox="0 0 401 116" fill="none" xmlns="http://www.w3.org/2000/svg">
<path d="M194 48C202.22 52.8116 211.987 59.225 221.444 60.9444C225.802 61.7367 232.309 65.1139 235.555 68C236.477 68.8195 238.913 72.6419 237.778 73.7778C235.268 76.2877 227.432 72.1852 225.666 71.0556C220.045 67.4581 214.197 67.6539 208.444 64.7778C203.97 62.5406 197.653 61.0897 192.5 59.9444C188.882 59.1404 181.826 52.7928 179.222 58C177.025 62.393 179.873 70.0273 183.5 63.5C185.585 59.7463 183 58.5707 183 61.5C183 66.3837 180.537 61.7687 179 61" stroke="black" stroke-width="3" stroke-linecap="round"/>
<path d="M187 42C192.433 45.3125 198.167 50.894 204.556 52.0556C207.143 52.526 210.592 52.619 213 53.5556C216.007 54.7247 218.169 57 221.5 57C224.845 57 229.049 59.2153 232 60.7778C233.125 61.3733 234.279 62.0227 235.222 62.7778C236.712 63.9692 236.816 65.3717 238.222 66.7778C239.981 68.5364 242.351 70.74 244.556 72C246.051 72.8547 236.904 71 234.5 71C226.005 71 217.279 69.2382 209 68.0556C202.238 67.0895 195.429 64.8257 190 60C186.973 57.3094 183.363 53.4399 179.5 56.4444C178.482 57.2363 176.19 58 174.945 58C171.754 58 171.057 59.5705 168.556 61C166.917 61.9363 173.315 69.8879 176.778 64C177.713 62.4098 180.843 63.591 180 63.2222C178.614 62.6157 176.492 63 175 63C172.929 63 166.707 63.0183 167 63C169.662 62.8337 177.667 63 175 63" stroke="black" stroke-width="3" stroke-linecap="round"/>
<path d="M158 56C156.381 58.2266 155 59.8131 155 62.5556C155 63.0626 155.386 67.4859 155.778 66.5556C156.994 63.6662 155.101 60.0199 156.556 57.1111C156.963 56.2965 159.661 54.4106 158.5 56.5C157.34 58.5873 157 61.1314 157 63.5C157 66.9843 159.762 66.5236 161 69" stroke="black" stroke-width="3" stroke-linecap="round"/>
</svg>
