<svg width="401" height="116" viewBox="0 0 401 116" fill="none" xmlns="http://www.w3.org/2000/svg">
<path d="M162.218 50C154.347 60.8217 162.099 65 172.718 65C178.63 65 176.528 57 181.218 57C183.516 57 186.218 56.1025 186.218 59C186.218 61.1035 188.841 63.6004 185.44 64.7778C175.002 68.391 180.024 56.267 175.218 56C171.817 55.8111 164.591 62.0387 169.773 65C173.898 67.357 178.802 67.7838 181.218 63.5556C184.261 58.2296 176.218 55.7185 176.218 61" stroke="black" stroke-width="3" stroke-linecap="round"/>
<path d="M230.218 48C235.802 48.1396 237.395 50.3183 239.718 54.5C241.359 57.4543 242.618 63.7 237.218 64C233.786 64.1906 228.229 64.964 226.218 61.4444C224.468 58.3823 216.218 59.2714 216.218 63.5C216.218 67.0821 223.052 70.3655 223.218 66.2222C223.287 64.488 223.218 62.7359 223.218 61C223.218 58.5605 219.802 58.1229 219.273 60.5C218.404 64.4098 224.311 67.4627 226.996 64.7778C228.892 62.881 223.387 59.7456 221.218 63" stroke="black" stroke-width="3" stroke-linecap="round"/>
<path d="M178.718 59C175.613 59 174.854 59.6011 172.329 60.6111C170.308 61.4193 175.718 61.5 176.468 61.5C177.959 61.5 179.204 59 177.218 59C175.279 59 173.985 60.9649 173.218 62.5" stroke="black" stroke-width="3" stroke-linecap="round"/>
<path d="M171.718 65C170.323 65 164.141 65.3469 163.746 62.9722C163.469 61.3131 163.174 59.7216 162.746 58.2222C162.34 56.8025 161.718 56.2922 161.718 54.5C161.718 52.5739 161.597 50.8955 161.218 49" stroke="black" stroke-width="3" stroke-linecap="round"/>
<path d="M222.718 63C221.009 67.5569 223.869 64.4024 223.606 64.1111C222.764 63.1755 222.828 64.5 224.468 64.5C227.119 64.5 229.069 66 231.468 66C235.957 66 239.218 63.7817 239.218 59" stroke="black" stroke-width="3" stroke-linecap="round"/>
<path d="M231.718 67.5001C229.847 67.5001 227.977 67.5001 226.107 67.5001C225.522 67.5001 222.813 67.5001 224.829 67.5001C226.707 67.5001 227.325 67.5028 228.829 66.5001C229.408 66.1141 233.005 64.4281 230.718 65.0001" stroke="black" stroke-width="3" stroke-linecap="round"/>
</svg>
