<svg width="401" height="116" viewBox="0 0 401 116" fill="none" xmlns="http://www.w3.org/2000/svg">
<path d="M190.381 53.6871C194.189 57.3721 197.92 59.2775 202.659 61.4649C205.124 62.6026 198.27 58.2675 196.103 56.6315C193.698 54.8152 191.291 52.9796 188.714 51.4093C188.495 51.2754 187.815 50.9103 188.048 51.0204C188.647 51.304 189.232 51.6153 189.826 51.9093C192.783 53.3738 195.739 54.8176 198.881 55.8537C200.07 56.2459 205.76 56.9033 206.381 58.3537C207.667 61.3546 200.563 55.3103 197.992 53.2982C197.401 52.8356 195.84 51.1885 194.992 51.1037C194.294 51.0339 198.123 55.3009 198.27 55.4093C201.4 57.7235 205.037 59.346 208.603 60.8537C209.758 61.3418 212.405 63.3049 212.159 62.076C211.985 61.2079 208.443 59.8259 207.937 59.576C204.332 57.7968 200.54 56.4552 196.881 54.7982C192.23 52.6918 200.828 58.4831 201.52 58.9093C203.95 60.4069 206.54 61.6912 209.159 62.826C210.588 63.4453 206.428 61.3261 205.048 60.6037C202.001 59.0094 199.117 57.1546 195.881 55.9649C194.127 55.32 192.496 54.7541 190.937 53.7149C189.367 52.6686 191.033 53.2193 191.742 53.6315C195.838 56.0127 198.963 58.982 203.492 60.8537C206.362 62.0398 210.63 62.6422 213.159 64.576C214.988 65.9747 208.566 63.9681 206.381 63.2426C202.156 61.8398 198.112 59.9476 193.937 58.4093C192.577 57.9082 188.724 57.1686 190.02 56.5204C190.917 56.0717 200.881 66.2315 200.881 62.6871" stroke="black" stroke-width="3" stroke-linecap="round"/>
</svg>
