<svg width="401" height="116" viewBox="0 0 401 116" fill="none" xmlns="http://www.w3.org/2000/svg">
<path d="M192.765 50.9604C191.196 55.4814 188.971 58.7225 186.543 62.7382C185.11 65.1083 184.456 66.5623 185.543 63.1826C186.696 59.5928 187.627 54.2097 190.32 51.5159C194.762 47.0738 191.822 53.473 190.32 56.9048C189.426 58.9502 186.177 66.9408 189.765 60.9604" stroke="black" stroke-width="3" stroke-linecap="round"/>
<path d="M208.765 51.9604C209.799 53.3393 215.845 62.6977 215.765 61.7381C215.551 59.1705 212.104 55.8598 210.765 53.5159C209.541 51.3748 209.571 51.7344 211.32 53.9604C211.906 54.7052 214.876 56.4261 214.876 57.2937C214.876 59.7328 210.948 54.3149 209.431 52.4048C206.46 48.6636 211.825 54.0031 212.543 54.9604C213.546 56.2982 214.615 58.1265 215.098 59.7381C215.784 62.023 211.812 56.2763 210.265 54.4604C205.174 48.4837 205.824 50.9081 210.265 55.3492C211.573 56.6576 216.587 58.0495 214.765 58.9604" stroke="black" stroke-width="3" stroke-linecap="round"/>
</svg>
