<svg width="401" height="116" viewBox="0 0 401 116" fill="none" xmlns="http://www.w3.org/2000/svg">
<path d="M124 48.5L128.5 42.5L136.5 38.5L143.5 37L155.5 38.5L160.5 44V50.5V62.5L162 72.5L158 80.5L151.5 86.5L140 89.5C135.5 89 134 83.5 129 81C127.525 80.2624 125.833 72.3333 122.5 70L121.5 57.5L124 48.5Z" fill="#FFD9D9"/>
<path d="M231.5 48.5L236 42.5L244 38.5H250.5L258 41L263 46.5L265.5 52L266.5 62.5L264.5 72L257.5 80L253.5 86.5H246.5C242 86 239 85 234 82.5C232.525 81.7624 230 76 230 70L229 57.5L231.5 48.5Z" fill="white"/>
<path d="M253.75 84.5001C252.072 84.8275 250.398 84.7501 248.695 84.7501C247.222 84.7501 244.956 85.0626 243.653 84.3612C242.966 83.9915 242.292 83.7454 241.625 83.3751C240.56 82.7832 239.543 82.9949 238.5 82.5557C237.57 82.164 236.855 82.2598 236 81.5001C235.442 81.0043 234.229 80.1124 234.014 79.3612C233.534 77.6817 233 75.4403 233 73.6251C233 71.4074 232.5 69.295 232.5 67.0557C232.5 64.1594 231.886 60.434 232.625 57.6251C232.972 56.3059 232.944 54.9747 233.625 53.764C234.484 52.2373 234.522 50.4117 235.5 48.9446C236.234 47.8441 237.07 46.6803 238 45.7501C238.888 44.8627 240.228 42.134 241.5 42.0001C242.876 41.8553 243.972 40.585 245.5 40.5001C246.356 40.4526 244.5 40.5001 244.278 40.5001C243.325 40.5001 242.41 40.4252 241.5 40.7501C239.895 41.3234 238.394 41.1067 237.125 42.3751C236.322 43.1782 236.306 43.9425 236.25 45.0001C236.186 46.2176 235.25 47.0945 235.25 48.389C235.25 49.8539 235 51.2524 235 52.7501C235 54.1891 235.372 56.1286 234.25 57.2501C234.001 57.4996 233.477 57.9756 233.153 58.0835C233.009 58.1314 233.003 54.8686 232.986 54.4724C232.968 54.0296 232.218 49.3968 233.014 49.264C233.515 49.1806 234.527 48.3612 234.75 48.3612C235.472 48.3612 233.792 49.485 233.556 50.1668C232.55 53.067 233 56.4506 233 59.4724C233 61.5548 232.854 62.6337 232.139 64.4724C231.08 67.1965 231.75 70.1007 231.75 72.9446C231.75 74.1013 231.841 75.2096 232.361 76.2501C232.579 76.6848 232.398 77.1276 232.75 77.5001C233.124 77.8962 233.331 78.2408 233.5 78.7501" stroke="#FC3131" stroke-width="3" stroke-linecap="round"/>
<path d="M158.75 64.25C158.034 66.8913 158.067 70.3902 156.5 72.6944C156.05 73.357 156 74.1619 156 74.9444C156 75.3083 155.793 76.5752 156.056 76.8056C156.745 77.4084 158.271 74.7912 158.473 74.4028C159.416 72.5839 159.25 66.2567 159.25 68.3056C159.25 70.0912 159.434 72.02 158.889 73.75C158.525 74.9072 158.095 75.5781 157.625 76.6111C157.274 77.3837 156.008 78.9774 155.375 79.4722C154.75 79.9614 154.281 80.4103 153.75 81C153.55 81.2223 153.58 81.586 153.375 81.75C152.769 82.2352 151.85 83.2627 151.167 83.5556C150.504 83.8396 151.764 82.2427 152.056 81.5833C152.618 80.3129 153.143 79.0065 153.945 77.8611C154.574 76.9622 154.83 76.3611 154.75 75.25C154.696 74.4836 154.178 76.6862 153.764 77.3333C153.358 77.9678 152.842 78.4394 152.375 79.0139C151.877 79.627 150.408 81.0622 149.625 81.2361C148.354 81.5187 147.524 81.1494 146.306 81.8889C144.954 82.7095 142.313 82.25 140.806 82.25C139.746 82.25 138.532 82.4302 137.5 82.1944C136.539 81.9746 135.852 81.287 135 80.8611C134.113 80.4174 133.65 79.9917 132.625 79.7639C131.748 79.569 131.024 80.0233 130.306 79.3056C130.106 79.106 129.698 77.8539 130.195 78.3056C131.327 79.3349 131.99 81.016 133.361 81.7639C134.308 82.2802 135.078 83.8282 135.861 84.6111C136.426 85.1762 137.116 85.6908 137.889 85.875C139.95 86.3657 143.817 86.3676 145.556 85.25C146.954 84.3515 148.691 84.4527 150.056 83.6944C150.526 83.4332 150.747 83.0528 151.125 82.75C151.142 82.7366 148.949 83.1832 148.473 83.2361C147.337 83.3623 146.13 83.25 144.986 83.25C143.967 83.25 143.235 83.75 142.25 83.75" stroke="#FC3131" stroke-width="3" stroke-linecap="round"/>
<path d="M145.46 39.043C142.416 39.043 136.373 37.9316 133.516 39.5985C131.984 40.4918 131.036 42.1161 129.46 43.043C125.812 45.1891 121.694 52.5995 121.46 57.043C120.797 69.6529 124.115 75.3337 136.294 78.9874C141.983 80.6941 147.405 82.3412 151.516 76.4319C156.448 69.3419 157.569 64.2927 159.96 56.3207C162.607 47.4974 160.284 37.043 149.238 37.043C137.201 37.043 125.993 39.4846 124.46 54.043C123.949 58.896 121.513 62.5587 122.682 67.8207C124.402 75.5582 130.723 82.4676 136.46 87.4874C141.644 92.0235 153.536 84.6862 157.405 81.543C160.761 78.8163 161.862 74.0497 161.405 69.9319C160.372 60.6423 160.46 51.4299 160.46 42.043" stroke="black" stroke-width="3" stroke-linecap="round"/>
<path d="M143.46 40.0429C136.39 41.6337 136.744 48.0429 143.905 48.0429C146.495 48.0429 152.402 42.7961 148.96 40.0429C145.104 36.9583 141.195 39.538 141.46 44.0429C141.569 45.892 144.46 46.7754 144.46 44.0429C144.46 40.3258 142.46 45.3016 142.46 44.0429" stroke="black" stroke-width="3" stroke-linecap="round"/>
<path d="M259.46 42.043C250.857 38.9705 237.46 42.6524 237.46 53.543C237.46 58.5873 233.46 62.4304 233.46 67.9319C233.46 71.7866 234.434 80.4845 239.46 81.043C243.069 81.444 247.722 84.4459 251.46 82.8208C257.701 80.1075 261.641 78.5165 264.96 72.543C266.981 68.9054 266.46 61.2893 266.46 57.2652C266.46 52.2046 263.492 49.1154 261.46 44.543C258.226 37.2674 244.623 38.2848 238.682 40.2652C229.343 43.3783 229.46 58.7158 229.46 66.4874C229.46 77.0306 230.34 86.043 243.238 86.043C249.62 86.043 251.973 88.776 255.904 82.5986C256.836 81.134 255.955 79.4983 256.682 78.043C257.718 75.971 259.46 75.6195 259.46 73.043" stroke="black" stroke-width="3" stroke-linecap="round"/>
<path d="M247.46 43.043C247.262 44.0569 245.149 49.9071 247.46 50.043C250.192 50.2037 248.665 48.6522 249.96 47.0985C251.608 45.1208 249.46 40.8158 249.46 46.043C249.46 49.0822 250.221 55.0405 254.96 53.9874C258.963 53.0979 255.843 47.043 252.46 47.043" stroke="black" stroke-width="3" stroke-linecap="round"/>
<path d="M167.46 76.043C166.547 81.8633 164.683 89.842 160.46 94.4874C158.597 96.5367 155.573 99.816 154.46 102.043" stroke="black" stroke-width="3" stroke-linecap="round"/>
<path d="M220.46 77.043C222.393 81.8194 224.94 88.0826 228.46 92.043C230.764 94.6347 231.636 95.7683 235.46 97.043" stroke="black" stroke-width="3" stroke-linecap="round"/>
<path d="M123.46 18.043C118.627 20.1647 118.952 21.554 116.46 25.043C113.185 29.628 116.266 23.8628 117.516 21.5985C118.787 19.2935 120.837 14.043 123.96 14.043C126.626 14.043 126.605 14.5878 124.96 16.5985C122.989 19.0077 121.691 21.7066 121.46 24.8207C121.302 26.9507 120.591 23.016 122.46 21.043C125.899 17.4131 130.486 15.043 135.46 15.043" stroke="black" stroke-width="3" stroke-linecap="round"/>
<path d="M268.46 14.043C271.254 14.7082 276.711 15.9889 278.238 19.043C279.522 21.6107 280.177 23.7765 279.349 18.5986C279.012 16.4911 274.09 12.3059 276.071 13.0986C278.496 14.0685 279.72 18.11 281.46 20.043C282.881 21.6216 286.192 33.7775 285.516 29.043C284.975 25.2623 283.508 18.3922 279.46 17.043" stroke="black" stroke-width="3" stroke-linecap="round"/>
</svg>
