<svg width="401" height="116" viewBox="0 0 401 116" fill="none" xmlns="http://www.w3.org/2000/svg">
<g clip-path="url(#clip0_3_419)">
<path d="M107.5 54L120 47L123.5 44H135.5L146.5 49L158 54L167 61.5L169.5 77L165 92.5L158 100L147.5 104.5L132.5 106C128 105.5 121.5 104.5 116.5 102C115.025 101.262 109.333 88.3333 106 86L104 71.5L107.5 54Z" fill="white"/>
<path d="M245 50.5L251 44L257.5 42H267L281 44L289.5 49L296.5 57L298.5 73.5L294 86L289.5 93L279 99.5L263.5 103C259 102.5 253 99.5 248 97C246.525 96.2624 242.333 82.8333 239 80.5L241 66L245 50.5Z" fill="white"/>
<path d="M117.5 47.0273C112.476 50.3146 105.579 53.1874 105.5 60.0273C105.427 66.3009 105.315 72.6187 105.527 78.8884C105.761 85.778 108.436 90.2924 111.889 96.0273C115.473 101.981 119.208 104.618 126.222 105.472C133.016 106.299 140.761 106.777 147.5 105.305C152.506 104.212 156.357 101.574 160.25 98.5273C163.908 95.6643 166.158 91.9906 167 87.4717C167.647 83.9977 169 80.889 169 77.2773C169 69.2845 169.138 62.5454 162.777 56.8051C161.011 55.2107 158.741 53.8045 156.444 53.1384C153.666 52.3326 150.416 52.2571 148 50.4995C145.661 48.7986 143.392 47.2284 140.777 46.0273C136.513 44.068 132.218 44.5273 127.611 44.5273C124.343 44.5273 119.429 43.8085 118.5 47.5273" stroke="black" stroke-width="3" stroke-linecap="round"/>
<path d="M254 43.0272C249.552 44.5705 245.727 46.9663 244 51.6383C242.181 56.562 240.568 62.526 240.056 67.7772C239.599 72.4565 239.257 78.8807 240.5 83.4161C242.016 88.9459 244.903 91.93 248.778 95.805C251.033 98.0595 253.345 100.851 256.334 102.138C259.787 103.626 264.737 103.356 268.389 102.916C271.693 102.518 275.253 100.48 278.445 99.4716C281.214 98.5972 284.645 96.5478 286.778 94.5272C288.875 92.5405 291.431 91.0961 293.5 89.0272C296.549 85.9783 296.871 82.8362 297.5 78.7494C298.231 74.0018 297.708 69.481 297.528 64.7216C297.344 59.8446 297.199 56.6765 293.722 52.8605C291.423 50.3372 288.733 46.5792 285.334 45.6383C280.675 44.3489 275.97 42.8032 271.25 41.7772C265.443 40.5148 258.985 41.0272 253.056 41.0272C247.217 41.0272 244.6 41.6299 243.278 47.8605C242.541 51.3355 243.245 55.0084 242.889 58.5272C242.549 61.8919 241.589 65.1855 241.111 68.5272C240.81 70.6374 240.356 72.8093 239.5 74.7772C238.638 76.7595 239 79.1518 239 81.2772C239 85.7726 241.208 89.2425 244 92.6383C250.033 99.9757 260.677 103.815 269.889 100.638C272.497 99.7388 276.022 98.7873 278.389 97.5272C281.242 96.0088 288.681 93.7604 289.445 89.9438C289.582 89.2567 289.776 80.1302 290.722 83.3605C291.079 84.576 292.189 87.0901 291.195 88.305C290.129 89.6069 288.1 89.7664 286.611 90.2494C284.352 90.9821 282.078 91.98 279.972 93.0827C276.237 95.0392 273.121 98.5272 269 98.5272C267.521 98.5272 265.721 98.4208 264.5 97.4716C263.05 96.3434 262.228 94.5272 260.222 94.5272C255.781 94.5272 252.45 91.9942 249.111 89.2494C247.13 87.6206 246.583 85.7484 245.472 83.5272C244.285 81.1518 242.5 78.7445 242.5 75.9994C242.5 71.086 240.682 66.3746 241.028 61.5272C241.28 57.9948 244.51 53.7023 246.5 50.9161C250.003 46.0115 253.238 43.8244 259.25 43.4994C262.529 43.3222 265.688 43.0272 269 43.0272C272.485 43.0272 278.436 41.8071 281.722 43.3605C284.664 44.7513 287.087 47.0364 289.417 49.2494C291.269 51.0094 290.911 53.7915 291.528 56.055C292.982 61.3868 294.884 67.0153 295.889 72.4161C296.472 75.5518 296.873 78.8961 295.445 81.8327C293.991 84.8213 291.393 86.3602 289.5 88.9161C286.808 92.5509 280.78 91.416 277 91.5272" stroke="black" stroke-width="3" stroke-linecap="round"/>
<path d="M254.5 61.5271C253.8 65.5106 250.984 73.9592 257.194 74.4993C263.029 75.0067 258.613 64.0813 255.833 62.3604C253.275 60.777 252.48 68.0659 252.389 69.2493C252.102 72.9786 252 76.7047 252 80.4438C252 82.5857 251.328 86.5813 253.083 88.2493C256.482 91.4781 260.446 88.8057 262.111 85.0271C264.994 78.4843 265.252 72.1922 265.472 65.1382C265.56 62.3388 265.465 58.8749 261.944 58.5549C259.518 58.3343 251.913 57.2172 251 60.1382C250.216 62.6484 250.5 65.5835 250.5 68.166C250.5 71.5747 249.978 75.6579 251.222 78.916C252.623 82.5826 257.621 86.5166 261.583 84.1938C267.413 80.7764 267.925 73.596 266.972 67.7215C266.59 65.3643 265.721 58.2823 262.5 57.6382C258.715 56.8811 254.216 75.0716 253.639 77.3327C253.254 78.8404 250.827 87.8493 253.722 88.916C257.076 90.1515 261.068 77.0185 261.278 75.1382C261.696 71.3964 261.741 66.9744 260.25 63.4438C260.133 63.167 259.078 60.4024 258.25 61.1382C255.072 63.9629 253.557 81.6428 259.889 79.916C263.775 78.8562 262.814 71.2322 261.889 68.5271C261.205 66.527 259.432 63.3052 258.028 66.5827C256.851 69.3285 255.797 76.2665 258.111 78.6938C261.465 82.2115 262.792 74.1963 262.944 72.3327C263.1 70.4283 263.436 63.6641 260.694 63.0549C256.791 62.1875 253.837 74.9616 253.611 77.5271C253.423 79.6693 252.553 84.9992 255 86.416C257.396 87.8033 260.156 80.7593 260.639 79.4993C261.818 76.4242 263.185 64.3707 257 64.0271C252.555 63.7802 251.28 68.3455 250.611 72.1938C250.129 74.9677 252.643 81.4695 256.528 79.7215C262.761 76.9166 261.155 67.6641 261 62.2493C260.925 59.6207 258.148 59.5271 256.25 59.5271C250 59.5271 248.466 67.2984 248.028 72.5549C247.821 75.0332 248 77.5947 248 80.0827C248 83.0532 248.399 84.0271 251.389 84.0271C252.948 84.0271 254.556 84.1423 256.111 84.0271C258.823 83.8262 259.433 79.1936 259.722 77.3327C260.32 73.4896 260.702 68.3643 259.75 64.5549C258.782 60.6843 255.586 67.3331 255.111 68.6938C254.679 69.9317 248.356 87.8712 254.722 87.5271C258.495 87.3232 260.607 81.6251 260.889 78.6382C261.231 75.0167 261.753 71.2599 261.472 67.6104C261.322 65.659 259.778 66.0271 258.222 66.0271C252.743 66.0271 252.607 75.0501 252.389 79.0271C252.245 81.6389 250.361 91.7333 254.5 92.916C257.796 93.8576 260.288 89.6117 260.694 86.9438C261.836 79.4595 261.746 68.9024 258 62.1382C255.711 58.0054 253.964 64.0604 253.25 66.1104C252.305 68.823 249.289 78.8939 253 80.7493C255.424 81.9615 257.438 80.4331 258.778 78.3049C261.203 74.4539 257.998 62.1413 253.5 69.8882C251.108 74.0083 250.126 83.1504 252.778 87.4438C255.309 91.5417 261.121 89.37 263.167 85.916C266.203 80.7903 266.163 68.5146 260.583 64.8882C259.602 64.2503 258.391 64.4331 257.5 65.0271" stroke="black" stroke-width="3" stroke-linecap="round"/>
<path d="M123.75 66.5273C120.934 67.1979 120.958 69.8374 120.5 72.3329C120.12 74.4009 119.75 76.4719 119.75 78.5829C119.75 79.7367 120 80.822 120 81.944C120 83.8327 120.598 84.9189 121.444 86.5273C122.621 88.7633 126.48 88.1582 128.389 87.2773C131.787 85.7088 131.5 79.4117 131.5 76.3885C131.5 72.9179 131.426 69.7245 127.861 68.0135C126.693 67.4526 124.731 66.567 123.389 67.0551C122.887 67.2375 122.245 68.5248 121.861 68.9162C121.172 69.6185 120.475 70.269 120.014 71.1523C118.058 74.9003 119 79.057 119 83.0412C119 84.7619 119.269 86.5708 121.139 87.2357C122.933 87.8735 124.814 88.4921 126.75 88.5273C128.73 88.5633 129.56 88.2665 130.944 86.8329C132.25 85.4803 132.793 82.3091 132.944 80.5273C133.244 76.9966 133 73.3772 133 69.8329C133 68.1781 132.393 66.795 131.055 65.7773C129.06 64.2594 125.758 64.054 123.361 64.0273C121.261 64.004 119.475 64.8193 118.667 66.9162C117.948 68.779 117.75 71.31 117.75 73.2773C117.75 76.659 117.746 80.0165 117.514 83.3885C117.311 86.3239 117.043 89.6769 120.403 90.6523C122.545 91.2742 124.171 92.2773 126.486 92.2773C128.344 92.2773 128.938 90.4587 130.319 89.3329C131.577 88.3083 131.793 85.994 132.139 84.4857C133.122 80.197 133.543 75.4007 132.861 71.0135C132.728 70.1615 132.06 69.1805 131.444 68.5829C130.97 68.1229 129.074 66.4773 128.417 66.5968C128.082 66.6576 127.29 69.9226 127.194 70.2496C125.974 74.4033 126.035 79.1277 126 83.4162C125.992 84.3251 124.99 90.2452 127.75 88.9162C129.339 88.1509 129.534 85.418 129.625 83.9301C129.804 80.9878 129.734 78.0284 128.417 75.3329C128.298 75.0894 127.88 73.7067 127.375 73.819C126.657 73.9785 126.015 76.4629 125.805 77.0551C125.28 78.5388 125.25 80.1636 125.25 81.7218C125.25 81.7615 125.204 82.9514 125.361 82.8607C126.575 82.1577 126.5 80.4612 126.5 79.2912C126.5 77.046 126.698 74.4564 125.889 72.3051C124.533 68.7016 122.448 74.7171 122.25 75.5273C122.013 76.4999 120.102 84.9776 122.805 84.7773C123.994 84.6893 124.548 82.607 124.722 81.7635C125.205 79.4313 125.871 75.9279 124.611 73.7079C122.527 70.0359 121.724 78.0439 121.653 78.8885C121.592 79.6121 120.794 86.4398 123.139 86.0135C124.003 85.8563 125.127 84.1092 125.639 83.4718C126.631 82.2347 127.222 80.2013 127.222 78.6107C127.222 77.7559 126.65 73.5551 125.125 73.5551C124.188 73.5551 123.278 79.7196 123.222 80.1385C122.856 82.8951 122.707 85.7473 122.819 88.5273C122.855 89.4239 122.852 91.3725 123.847 91.9579C126.182 93.3316 125.827 84.2057 125.722 83.6385C125.684 83.4321 124.467 80.2693 124.305 80.694C123.508 82.7955 123.71 86.1857 123.805 88.3746C123.852 89.4463 124.154 91.4226 125.5 91.7218C126.687 91.9855 127.091 89.7529 127.305 89.0273C127.86 87.1494 127.802 85.2402 127.736 83.2912C127.671 81.3627 127.087 82.1949 126.805 83.5829C126.418 85.4895 125.157 90.35 127.5 91.5829C128.883 92.311 129.974 89.6584 130.194 88.5829C130.535 86.9159 130.25 84.9726 130.25 83.2773C130.25 82.236 129.75 81.3344 129.75 80.2773C129.75 78.611 129.314 76.9542 129.5 75.2773C129.59 74.4686 131.652 76.2184 131.194 74.3885C130.892 73.1804 129.735 72.2602 128.625 72.0135C127.909 71.8544 126.949 70.2269 126.375 69.6523C125.937 69.2142 124.519 69.2657 124.125 69.7912C122.849 71.492 121.924 72.631 121.125 74.6523C120.35 76.6132 119.5 78.3652 119.5 80.5135C119.5 81.9563 119.395 83.4477 119.625 84.8746C119.782 85.849 119.495 86.723 120.25 87.4023C121.065 88.1355 121.162 89.1102 121.75 89.8746C122.301 90.5909 123.033 90.5763 123.5 91.2773" stroke="black" stroke-width="3" stroke-linecap="round"/>
<path d="M126.25 92.5273C125.47 92.4179 123.386 92.5749 122.625 92.1523C122.344 91.9963 122.062 92.0273 121.75 92.0273C121.14 92.0273 121.413 91.6168 121 91.3329C120.566 91.0344 120 90.2748 120 89.7773C120 87.4121 119.614 84.9139 119.5 82.5273" stroke="black" stroke-width="3" stroke-linecap="round"/>
<path d="M120.75 72.0273C120.869 71.4012 120.826 69.2219 121.75 69.0273C122.278 68.9161 123.013 68.521 123.5 68.2773" stroke="black" stroke-width="3" stroke-linecap="round"/>
<path d="M169.5 97.0273C163.394 106.559 157.737 112.527 145.944 112.527C144.045 112.527 141.734 112.196 139.889 112.75C137.819 113.371 136.564 115.027 134.278 115.027C132.357 115.027 130.863 114.027 129 114.027" stroke="black" stroke-width="3" stroke-linecap="round"/>
<path d="M242.5 104.027C249.41 109.007 257.454 108.527 265.5 108.527" stroke="black" stroke-width="3" stroke-linecap="round"/>
<path d="M271.5 108.527C274.956 108.392 277.4 106.356 280.5 105.027" stroke="black" stroke-width="3" stroke-linecap="round"/>
<path d="M117.5 112.027C120.045 113.181 122.385 114.214 124.5 116.027" stroke="black" stroke-width="3" stroke-linecap="round"/>
<path d="M103 24.0273C106.499 20.5286 109.264 17.8832 113.944 16.194C121.408 13.5005 129.073 10.709 137.056 10.0829C139.413 9.89794 140.381 10.9376 142.444 11.5273C144.966 12.2477 137.344 10.0618 134.722 10.0273C127.709 9.93502 119 8.55722 113.778 14.2773C110.989 17.3314 102 18.9993 102 23.7218C102 25.4742 102.06 20.2107 102.278 18.4718C102.693 15.1483 103.577 12.6068 106 10.2495C109.606 6.74131 113.868 5.52731 118.75 5.52731C121.287 5.52731 127.265 4.73937 128.611 7.02731C129.253 8.11836 131.378 8.74682 132.5 9.02731" stroke="black" stroke-width="3" stroke-linecap="round"/>
<path d="M263.5 13.0273C270.572 13.7919 277.402 14.3962 281.694 20.9996C281.973 21.4286 284.039 25.1604 284 23.8051C283.91 20.6396 280.646 18.6206 278.278 17.0273C275.174 14.9397 272.332 13.5273 268.528 13.5273C264.652 13.5273 260.685 13.7712 256.833 13.2773C255.062 13.0503 252.1 13.1154 255.222 11.7773C258.115 10.5377 261.394 11.0273 264.5 11.0273C271.328 11.0273 276.463 14.8036 280.611 20.0273C282.22 22.0538 282.273 20.3351 281.944 18.5273C281.475 15.9443 277.948 13.3404 276.222 11.5551C273.511 8.75016 269.123 9.5776 265.556 9.52734C262.196 9.48002 258.875 9.02734 255.5 9.02734C254.155 9.02734 253.293 10.4506 252.222 11.194C250.65 12.2861 247.026 10.8135 245.5 10.5273" stroke="black" stroke-width="3" stroke-linecap="round"/>
<path d="M121 9.52722C116.765 10.3743 114.343 10.7588 111.5 13.805C111.067 14.2696 106.978 19.6739 106.528 16.5272C106.058 13.238 108.771 11.8237 111.5 10.5272C115.078 8.82769 119.743 8.99613 123.611 8.52722C125.42 8.30798 126.701 7.52722 128.611 7.52722C132.404 7.52722 134.231 7.46655 137.472 9.24945C138.603 9.87129 140.012 11.0515 139 9.02722C138.063 7.15265 136.699 6.60619 134.778 5.99945C133.015 5.4426 131.705 4.02722 129.75 4.02722C127.963 4.02722 126.176 4.02722 124.389 4.02722C121.987 4.02722 116.5 3.50577 116.5 7.02722" stroke="black" stroke-width="3" stroke-linecap="round"/>
<path d="M166 96C163.674 99.1983 161.855 100.917 158.889 103.389C157.658 104.415 156.765 105.408 155.25 106.25C154.465 106.686 153.244 107.042 152.389 107.278C151.871 107.421 150.481 107.266 150.111 107.722C149.811 108.091 149.996 108.451 149.389 108.5C144.788 108.868 140.204 109 135.5 109C131.261 109 124.782 111.522 121 109" stroke="#C580C7" stroke-width="3" stroke-linecap="round"/>
<path d="M244.5 99.5C246.589 102.373 246.599 104.859 250.278 105.528C252.111 105.861 253.043 106.897 255 107C256.968 107.104 258.855 107.5 260.889 107.5C267.875 107.5 273.904 106.231 279.5 102.5" stroke="#C580C7" stroke-width="3" stroke-linecap="round"/>
</g>
<defs>
<clipPath id="clip0_3_419">
<rect width="401" height="116" fill="white"/>
</clipPath>
</defs>
</svg>
