<svg width="401" height="116" viewBox="0 0 401 116" fill="none" xmlns="http://www.w3.org/2000/svg">
<path d="M83.9987 51.5128C87.9913 51.6338 91.9208 52.3344 95.9153 52.4573C108.59 52.8472 121.32 52.5128 133.999 52.5128C162.721 52.5128 191.443 52.5128 220.165 52.5128C245.452 52.5128 270.739 52.5128 296.026 52.5128C357.98 52.5128 172.119 52.0128 110.165 52.0128C106.079 52.0128 93.8286 51.5128 97.9153 51.5128C149.276 51.5128 200.542 48.2558 251.888 47.5128C270.852 47.2384 289.809 47.0128 308.776 47.0128C314.619 47.0128 320.462 47.0128 326.304 47.0128C327.541 47.0128 332.833 46.9144 328.304 47.2628C319.718 47.9233 310.989 47.8069 302.388 47.9017C278.853 48.161 255.311 48.0116 231.776 47.7628C204.169 47.471 176.437 46.9001 148.832 47.735C129.62 48.3161 110.394 48.3897 91.1931 49.0406C32.7357 51.0222 208.174 49.5128 266.665 49.5128C276.036 49.5128 285.406 49.5128 294.776 49.5128C325.184 49.5128 233.962 49.0128 203.554 49.0128C171.184 49.0128 138.813 49.0128 106.443 49.0128C99.8816 49.0128 93.3765 49.25 86.832 49.6239C83.1861 49.8323 79.6207 50.0128 75.9709 50.0128C74.1653 50.0128 72.3598 50.0128 70.5542 50.0128C62.832 50.0128 85.9987 50.0128 93.7209 50.0128C153.48 50.0128 332.758 50.0128 272.999 50.0128" stroke="black" stroke-width="3" stroke-linecap="round"/>
<path d="M110.499 52.5127C110.593 56.5784 113.165 60.5034 117.499 60.9849C118.437 61.0892 120.539 61.3128 121.387 60.7905C122.609 60.0385 122.115 59.0582 122.999 58.2627C123.788 57.5525 126.112 53.143 123.387 54.1238C122.623 54.399 121.254 56.2182 120.999 56.9849C120.684 57.9284 118.696 57.5127 117.887 57.5127C115.685 57.5127 112.027 55.2012 114.999 57.5127C118.429 60.1808 119.753 56.5127 115.36 56.5127C113.767 56.5127 120.918 57.8176 120.137 56.4294C119.866 55.9464 116.842 53.069 116.499 55.0127C116.367 55.7608 114.771 57.0127 116.276 57.0127C117.982 57.0127 119.326 56.1848 120.499 55.0127" stroke="black" stroke-width="3" stroke-linecap="round"/>
<path d="M255.999 52.0127C253.587 56.3111 258.25 56.9667 261.887 57.0127C264.639 57.0476 267.953 57.6192 269.276 54.6238C269.616 53.8557 271.219 49.6025 270.387 52.5127C269.475 55.705 265.492 57.2424 262.582 57.485C261.152 57.6041 259.685 57.5127 258.249 57.5127C256.387 57.5127 256.752 55.6812 255.887 54.6238C255.256 53.8518 254.624 53.9837 254.11 53.0127C253.004 50.924 257.038 54.3726 258.026 54.735C260.75 55.7337 263.083 55.6725 265.693 54.5127C266.245 54.2675 260.83 54.5784 260.082 54.485C259.072 54.3587 264.863 55.0127 266.082 55.0127C267.286 55.0127 263.674 55.0127 262.471 55.0127C261.766 55.0127 257.999 54.458 257.999 55.6238C257.999 57.7161 262.307 59.5127 263.999 59.5127C264.322 59.5127 265.921 59.2761 265.776 58.6238C265.706 58.3087 262.844 58.5127 262.471 58.5127C260.605 58.5127 257.088 58.3939 255.776 56.7072C255.524 56.3826 255.177 53.6563 254.499 55.0127" stroke="black" stroke-width="3" stroke-linecap="round"/>
<path d="M247.999 58.5127C250.249 62.1127 253.471 66.1607 256.999 68.5127" stroke="black" stroke-width="3" stroke-linecap="round"/>
<path d="M127.999 61.5127C125.882 62.4122 124.835 63.6759 123.249 65.2627C122.156 66.3554 122.225 67.7858 120.999 69.0127" stroke="black" stroke-width="3" stroke-linecap="round"/>
</svg>
