<svg width="401" height="116" viewBox="0 0 401 116" fill="none" xmlns="http://www.w3.org/2000/svg">
<path d="M111.5 67.171C131.054 66.8451 150.692 66.2146 170.222 64.9487C175.379 64.6145 180.556 64.6072 185.722 64.671C187.714 64.6956 191.863 65.171 187 65.171C160.759 65.171 134.518 65.171 108.278 65.171C87.24 65.171 150.351 65.671 171.389 65.671C172.639 65.671 173.889 65.671 175.139 65.671C178.343 65.671 168.731 65.6474 165.528 65.7265C148.672 66.1427 131.863 66.671 115 66.671C113.484 66.671 110.854 66.9183 109.5 67.5599C107.998 68.2714 102.977 68.671 104.639 68.671C119.676 68.671 134.713 68.671 149.75 68.671C156.355 68.671 162.905 68.171 169.528 68.171C171.785 68.171 174.106 67.7588 176.389 67.671C177.659 67.6221 182.558 67.5552 183 66.671" stroke="black" stroke-width="3" stroke-linecap="round"/>
<path d="M215.5 64.6709C237.142 66.1926 258.9 65.6709 280.584 65.6709C286.574 65.6709 292.565 65.6709 298.556 65.6709C299.381 65.6709 301.913 65.6091 299.5 65.282C293.267 64.4369 286.424 65.1709 280.167 65.1709C264.183 65.1709 248.201 65.6709 232.222 65.6709C227.556 65.6709 222.889 65.6709 218.222 65.6709C217.158 65.6709 216.093 65.6709 215.028 65.6709C213.38 65.6709 218.325 65.6775 219.972 65.6153C230.731 65.2094 241.333 64.1709 252.111 64.1709C265.232 64.1709 278.275 63.1709 291.389 63.1709C316.04 63.1709 242.095 62.1709 217.445 62.1709C214.102 62.1709 204.074 62.1709 207.417 62.1709C217.889 62.1709 228.361 62.1709 238.834 62.1709C256.889 62.1709 274.945 62.1709 293 62.1709" stroke="black" stroke-width="3" stroke-linecap="round"/>
<path d="M224 65.1709C224.116 70.9864 227.31 74.0948 232.778 75.0598C237.498 75.8928 243.48 76.457 247.722 74.3931C249.623 73.4686 252.211 73.6439 253.5 71.782C254.342 70.5661 255.877 69.5611 256.389 68.282C256.565 67.8424 257.974 66.2263 258 66.6709C258.145 69.1297 255.528 71.0689 253.722 72.3931C250.673 74.6296 246.089 77.6709 242.222 77.6709C239.173 77.6709 234.963 78.4095 232.25 76.9487C229.348 75.3862 227.77 73.3097 225.306 71.3931C223.71 70.1524 223.218 67.9102 221 67.1709" stroke="black" stroke-width="3" stroke-linecap="round"/>
<path d="M120.5 70.1708C124.184 75.5879 130.185 79.6708 137 79.6708C139.878 79.6708 144.995 79.3268 146.222 76.1708C147.227 73.5878 149.522 73.6313 150.75 71.4208C152.014 69.146 150.682 72.4126 150.194 73.1708C148.443 75.8959 143.86 75.6708 141 75.6708C136.693 75.6708 133.276 77.9725 129.222 75.3931C127.815 74.4976 125.562 72.7423 124.889 71.1708C124.702 70.7346 125.793 71.469 126.222 71.6708C127.417 72.232 128.606 72.5202 129.889 72.782C131.715 73.1546 133.525 73.2374 135.389 73.1708C137.085 73.1103 139.983 73.0088 141.611 72.5597C142.664 72.2692 147.272 71.9328 147 71.782C142.326 69.1852 136.156 70.1708 131 70.1708C129.344 70.1708 127.653 70.0736 126 70.1708C124.664 70.2494 128.552 71.1114 129.889 71.1708C131.726 71.2525 133.199 72.5072 135 72.6708C136.079 72.769 137.195 72.6399 138.278 72.6708C140.909 72.746 143.724 73.1708 146.5 73.1708" stroke="black" stroke-width="3" stroke-linecap="round"/>
<path d="M226.5 66.6709C226.63 69.9243 227.379 71.1709 230.5 71.1709C233.037 71.1709 235.574 71.1709 238.111 71.1709C242.809 71.1709 250.426 73.3552 252.5 68.1709C252.649 67.798 253.395 65.7099 252.944 66.9486C252.161 69.1042 248.923 70.7232 246.778 71.0597C241.817 71.838 236.975 71.7615 232.028 71.1431C230.685 70.9752 229.734 70.0185 228.778 69.1986C228.232 68.7308 234.835 68.6968 235.722 68.6431C237.813 68.5164 239.693 67.6709 241.75 67.6709C243.493 67.6709 245.261 67.7624 247 67.6709C248.638 67.5846 250.166 66.5044 247.167 67.5042C245.611 68.0228 234.538 73.216 235.083 73.6709C237.154 75.3967 242.482 74.9166 244.944 74.6431C245.417 74.5905 246.242 74.3448 246.5 73.8931C247.454 72.2229 243.907 72.3523 243 72.1709" stroke="black" stroke-width="3" stroke-linecap="round"/>
<path d="M99 39.1708C102.033 39.4624 104.782 40.6023 107.722 41.3375C114.699 43.0817 121.994 43.7795 129.111 44.6708C142.617 46.3622 156.132 47.7806 169.722 48.5597C173.322 48.766 177.477 48.8526 180.972 49.7264C182.428 50.0902 182.436 50.8685 180.75 50.5875C169.219 48.6656 158.123 44.8611 146.472 43.2541C137.032 41.9521 126.159 41.3898 117.222 37.5597C114.454 36.3733 106.079 33.2898 108.556 35.0041C110.171 36.1224 112.764 36.5478 114.556 37.2264C119.456 39.0817 124.274 40.7649 129.389 41.9486C134.316 43.0887 139.204 44.2611 144.056 45.6986C154.001 48.6453 163.674 50.1708 174 50.1708" stroke="black" stroke-width="3" stroke-linecap="round"/>
<path d="M213 53.6709C219.352 51.3446 225.345 48.7354 231.389 45.6709C234.971 43.8544 238.907 42.814 242.444 40.9486C244.196 40.0249 245.55 38.7732 247.389 37.9486C251.849 35.9492 256.304 34.8155 261.139 34.0042C264.768 33.3952 268.883 33.4082 272.389 32.1709C275.135 31.2015 277.502 29.4527 280.278 28.4486C281.945 27.8457 284.109 27.8481 285.5 26.6709C286.1 26.1635 286.533 25.5644 287.222 25.1709C287.85 24.8121 285.756 25.102 285.056 25.282C278.291 27.0196 271.838 28.6565 264.889 29.6709C256.913 30.8352 249.752 34.2938 242 35.9486C237.871 36.8301 234.444 38.1284 230.583 39.9209C227.02 41.5754 224.518 44.2676 221.5 46.6153C220.294 47.5533 219.249 48.2279 218.25 49.4486C217.557 50.2956 214.742 51.7548 215.833 51.6709C219.248 51.4082 222.34 48.7461 225.444 47.5597C230.298 45.7051 232.894 43.6087 236.722 40.4764C237.954 39.4687 240.868 39.209 242.444 38.4209C244.212 37.5371 245.54 36.6608 247.5 36.1709" stroke="black" stroke-width="3" stroke-linecap="round"/>
<path d="M157 78.6709C157.382 79.1966 159 81.8764 159 81.6709" stroke="black" stroke-width="3" stroke-linecap="round"/>
<path d="M162.5 76.1709C164.508 78.1202 165.5 78.418 165.5 81.1709" stroke="black" stroke-width="3" stroke-linecap="round"/>
<path d="M261 76.1709C261.469 76.6394 265.042 79.6294 264.5 80.1709" stroke="black" stroke-width="3" stroke-linecap="round"/>
<path d="M269 75.1709C270.008 76.1791 272.256 79.1709 273.5 79.1709" stroke="black" stroke-width="3" stroke-linecap="round"/>
<path d="M154.5 86.1709C152.294 87.9093 150.969 89.6468 148.111 90.282C147.123 90.5015 144.915 90.3401 144.5 91.1709" stroke="black" stroke-width="3" stroke-linecap="round"/>
<path d="M221.5 82.1709C222.22 82.6013 228.011 86.6709 228 86.6709" stroke="black" stroke-width="3" stroke-linecap="round"/>
</svg>
