<svg width="401" height="116" viewBox="0 0 401 116" fill="none" xmlns="http://www.w3.org/2000/svg">
<path d="M217.915 49.1487C228.85 54.4597 240.96 58.5658 252.638 61.8709C255.345 62.6372 257.692 63.8803 260.193 65.1487C262.968 66.5554 265.922 67.3003 268.693 68.6487C273.143 70.8134 277.499 73.1905 281.915 75.3987C283.016 75.9487 284.062 76.5589 285.138 77.1487C286.017 77.6309 285.598 77.6783 284.804 77.3153C282.944 76.4642 281.274 75.0542 279.582 73.9265C275.876 71.456 272.642 68.7523 269.138 66.0653C263.38 61.6511 256.011 59.8292 249.193 57.7042C245.612 56.5879 241.801 56.084 238.138 55.2598C232.844 54.0688 227.777 52.5932 222.36 51.8709C220.678 51.6467 218.458 52.0578 216.888 51.3709C216.394 51.1547 213.495 50.1962 215.415 51.4542C216.995 52.4888 218.95 52.9449 220.693 53.5931C224.938 55.1716 228.923 57.1917 232.971 59.2042C237.958 61.6839 242.782 64.3514 247.86 66.6487C255.669 70.1812 263.626 72.8027 271.249 76.7876C274.428 78.4495 278.651 78.5227 282.082 79.9265C283.279 80.4162 289.361 83.5659 285.249 81.5098C281.504 79.6376 278.05 77.1434 274.36 75.1487C271.655 73.6868 270.012 70.802 267.304 69.2598C263.61 67.1556 259.148 65.8709 255.193 64.3709C253.734 63.8174 252.082 63.343 250.693 62.6487C249.244 61.924 248.333 60.6381 246.804 60.0376C244.309 59.0574 241.508 57.7 239.165 56.3987C236.786 55.0768 235.09 53.0401 232.415 52.1487" stroke="black" stroke-width="3" stroke-linecap="round"/>
<path d="M99.9155 76.1487C105.199 72.752 111.006 69.7748 116.86 67.482C119.968 66.2646 123.034 65.0319 126.11 63.732C129.038 62.4949 132.29 62.2171 135.082 60.6765C142.226 56.7352 149.393 53.5003 157.332 51.3987C157.463 51.364 161.494 49.4943 161.582 49.7598C162.048 51.156 132.547 60.3783 130.638 61.0098C123.858 63.2521 117.74 66.8577 111.193 69.6487C107.816 71.0886 104.994 74.0701 102.416 76.6487C99.8055 79.2588 101.079 78.1513 103.416 76.3987C110.472 71.1062 119.998 69.8936 128.304 67.482C133.98 65.8342 139.525 64.5663 144.86 61.8987C147.757 60.4501 150.372 58.9067 153.416 57.7598C157.962 56.0467 161.756 53.8671 165.916 51.5376C166.749 51.0706 166.975 50.1736 167.638 49.732C168.274 49.3077 166.493 50.7633 165.832 51.1487C163.852 52.3036 161.396 52.187 159.249 52.8709C157.009 53.5845 155.01 55.1015 152.916 56.1487" stroke="black" stroke-width="3" stroke-linecap="round"/>
<path d="M234.916 59.6487C234.916 63.0764 234.295 67.3456 235.027 70.7598C235.808 74.4067 238.501 75.7153 241.304 77.6487C244.096 79.5737 247.706 80.7483 251.193 80.6487C253.797 80.5743 257.416 74.5483 257.416 72.1209C257.416 71.0237 257.93 69.156 257.082 70.982C256.356 72.546 254.413 74.8808 252.916 75.8431C250.485 77.4057 246.222 75.9549 244.416 74.1487C243.21 72.9429 241.918 71.8046 240.666 70.6487C239.581 69.6474 239.648 68.2912 238.804 67.2598C238.175 66.4906 237.405 66.3752 236.888 65.4265C235.014 61.9911 235.49 67.5999 235.971 68.8709C237.829 73.782 242.853 76.6487 247.943 76.6487C250.704 76.6487 252.011 75.6177 254.527 74.8709C256.535 74.2745 260.533 74.8521 261.416 72.4265C261.956 70.9399 262.416 66.2058 262.416 67.7876C262.416 75.0894 252.203 78.1487 246.527 78.1487C241.879 78.1487 241.475 74.2817 241.416 70.0931C241.388 68.1334 241.214 67.383 243.027 68.4542C246.302 70.3896 256.393 75.0493 253.777 72.2876C251.307 69.6807 246.783 67.2686 243.304 66.3709C242.455 66.1516 241.287 66.3941 241.527 67.5376C241.858 69.1201 244.306 70.0417 245.582 70.5653C246.243 70.8364 247.483 71.3763 248.249 71.1209C249.29 70.7739 246.271 70.1689 245.304 69.6487C242.504 68.1406 240.083 67.1487 236.916 67.1487" stroke="black" stroke-width="3" stroke-linecap="round"/>
<path d="M119.416 67.6486C119.588 77.6741 130.031 79.4669 138.193 76.3708C144.868 73.8391 146.219 67.9909 147.804 61.6486C148.065 60.6061 147.55 64.2741 147.388 64.843C146.835 66.7776 144.668 68.7631 143.221 70.0375C140.785 72.1832 134.973 77.3998 130.916 75.3708C128.342 74.0838 127.408 73.1549 126.416 70.4264C126.307 70.1279 124.971 68.27 124.971 68.9264C124.971 70.6007 128.528 71.0481 129.582 71.1208C132.828 71.3446 137.396 71.7591 138.916 68.0375C139.646 66.2487 138.953 62.3235 140.027 60.9819C140.23 60.7274 140.361 63.7651 140.304 64.0375C139.402 68.3496 132.587 67.6486 129.471 67.6486C128.858 67.6486 125.297 67.1413 125.527 68.2875C126.008 70.6956 127.608 72.1486 129.943 72.1486C134.872 72.1486 139.61 70.8458 142.804 67.0375C143.398 66.3303 143.395 65.3544 143.416 64.4819C143.424 64.1117 143.767 63.2537 143.416 63.3708C142.35 63.726 141.569 65.9379 140.916 66.7597C138.378 69.9503 134.444 73.1486 130.193 73.1486C128.422 73.1486 124.88 72.0769 125.916 74.1486" stroke="black" stroke-width="3" stroke-linecap="round"/>
<path d="M224.416 80.6487C226.819 82.7089 229.901 86.6487 233.416 86.6487" stroke="black" stroke-width="3" stroke-linecap="round"/>
<path d="M155.416 68.6487C154.629 72.0311 152.777 73.5411 150.749 76.1487C149.985 77.1314 148.803 77.9873 148.416 79.1487" stroke="black" stroke-width="3" stroke-linecap="round"/>
<path d="M254.916 85.1487C255.062 85.562 255.852 88.7762 256.416 87.6487" stroke="black" stroke-width="3" stroke-linecap="round"/>
<path d="M261.916 85.1487C263.185 86.4503 264.416 87.3159 264.416 89.1487" stroke="black" stroke-width="3" stroke-linecap="round"/>
<path d="M116.916 81.1487C116.54 82.1118 116.336 83.6886 115.416 84.1487" stroke="black" stroke-width="3" stroke-linecap="round"/>
<path d="M105.416 35.1487C109.81 37.6733 115.163 38.0814 120.11 38.5931C129.652 39.5803 139.238 39.4284 148.805 39.982C154.997 40.3404 161.267 41.3071 167.416 41.6487C173.514 41.9875 155.375 39.5475 149.305 38.8709C138.956 37.7174 128.779 37.4199 118.527 35.4265C115.877 34.9111 113.015 34.1487 110.332 34.1487C109.494 34.1487 103.271 33.9356 104.416 34.7598C108.403 37.6303 114.248 38.035 118.916 38.5376C131.158 39.8555 143.491 39.6177 155.749 40.6487C158.98 40.9205 162.269 41.4505 165.416 42.2598C165.602 42.3077 166.834 42.6487 166.555 42.6487C163.529 42.6487 160.48 42.2805 157.471 42.0376C147.861 41.2616 138.278 40.4762 128.638 40.1765C124.394 40.0445 120.012 40.1563 115.805 39.4265C112.869 38.9172 110.163 38.6487 107.194 38.6487C105.59 38.6487 104.096 38.1487 102.499 38.1487C99.5971 38.1487 93.565 38.0455 100.194 39.4265C121.089 43.7797 142.36 42.518 163.416 44.6487C166.292 44.9398 169.17 45.4348 172.055 45.6209C172.925 45.6771 174.496 45.4028 172.749 44.6487C163.484 40.6503 152.364 39.3563 142.555 37.5376C131.384 35.4665 120.229 33.9761 108.971 32.5376C103.718 31.8664 98.7652 30.36 93.5824 29.3987C89.2305 28.5915 84.5391 28.4818 80.3046 27.1487C78.7567 26.6614 83.5306 27.5088 85.138 27.732C99.691 29.7533 114.317 30.6147 128.944 31.8987C139.159 32.7954 149.275 33.6344 159.221 36.1209C168.869 38.5329 139.362 34.9067 129.471 33.8709C124.082 33.3066 112.211 32.0582 106.11 31.3987C104.526 31.2275 102.944 31.0449 101.36 30.8709C100.634 30.7911 102.803 31.1016 103.527 31.2043C116.458 33.0391 129.373 34.3817 142.416 35.0931C147.809 35.3873 153.125 35.8968 158.471 36.6487C159.702 36.8218 160.516 37.0264 161.527 37.6487C162.78 38.4197 163.99 37.8373 165.305 38.2598C167.002 38.8053 171.952 40.7195 170.194 40.4265C168.763 40.188 167.394 38.5215 166.138 37.8709C162.291 35.8787 157.87 34.9895 153.805 33.5376C151.784 32.8159 144.267 30.568 150.36 32.6487C155.275 34.327 160.953 34.081 166.082 34.6209C166.88 34.7049 169.43 34.6487 167.055 34.6487C154.665 34.6487 142.755 33.5479 130.527 31.5098C129.056 31.2647 124.647 30.6487 126.138 30.6487C128.236 30.6487 130.369 31.2649 132.416 31.6487" stroke="black" stroke-width="3" stroke-linecap="round"/>
<path d="M229.416 43.6487C257.821 41.6198 343.116 37.6487 314.638 37.6487C295.404 37.6487 276.175 38.0112 256.971 39.1487C249.051 39.6178 240.902 39.2754 233.027 40.2598C228.645 40.8076 224.273 40.567 219.86 40.6487C219.083 40.6631 217.465 42.3119 217.416 43.1487C217.34 44.433 238.24 43.1598 239.805 43.0376C244.972 42.6341 250.004 41.5543 255.138 40.9543C262.624 40.0792 270.361 40.3286 277.888 40.1765C278.823 40.1576 281.629 40.1487 280.693 40.1487C273.704 40.1487 266.709 40.067 259.721 40.2321C248.751 40.4912 237.85 42.1487 226.888 42.1487C223.98 42.1487 221.149 42.6487 218.221 42.6487C213.398 42.6487 221.364 41.1947 222.027 41.1487C246.084 39.4795 270.323 40.3269 294.36 38.0376C296.597 37.8246 301.37 36.6905 296.471 36.2598C290.723 35.7545 284.771 36.2829 279.027 36.3987C268.369 36.6136 257.676 36.3827 247.027 36.8709C241.197 37.1382 236.074 38.2733 230.471 39.1487C226.71 39.7364 222.877 39.6487 219.082 39.6487C216.49 39.6487 224.269 39.6619 226.86 39.5654C242.834 38.9701 258.747 36.8881 274.693 35.8154C282.773 35.2719 290.936 35.3817 298.999 34.6487C303.049 34.2806 307.217 34.3405 311.36 34.0932C312.166 34.0451 316.97 32.2567 316.249 32.1765C312.818 31.7953 309.127 32.1487 305.693 32.1487C294.081 32.1487 282.471 32.1463 270.86 32.3987C258.682 32.6635 246.517 32.8842 234.36 33.6209C229.874 33.8929 225.339 35.2206 221.249 37.1487C220.88 37.3226 219.944 37.7357 220.305 37.9265C221.939 38.7919 227.268 38.1069 228.555 38.0654C237.949 37.7623 247.316 36.8303 256.638 35.6487C264.431 34.6608 272.658 33.9192 280.249 31.8709C286.059 30.3032 291.798 30.4776 297.805 29.4265C304.658 28.2271 294.226 29.7999 292.693 29.8709C284.957 30.2296 277.202 29.9179 269.471 30.3709C266.126 30.567 262.798 31.1487 259.443 31.1487C253.074 31.1487 247.694 30.7597 241.916 33.6487" stroke="black" stroke-width="3" stroke-linecap="round"/>
<path d="M246.916 58.1487C246.292 62.5142 250.321 61.4757 253.193 63.5376C254.398 64.4028 256.09 66.1487 257.666 66.1487C258.885 66.1487 259.31 66.543 260.166 67.3987C260.65 67.8827 264.378 69.9607 262.304 69.5376C254.194 67.8823 246.563 64.3131 238.721 61.9265C236.265 61.1791 233.613 60.2475 231.416 59.1487" stroke="black" stroke-width="3" stroke-linecap="round"/>
<path d="M154.416 53.6487C151.791 54.2901 147.51 55.4037 145.304 57.0931C142.253 59.4304 140.125 60.3603 136.693 61.8987C133.588 63.2905 130.968 65.6225 127.916 67.1487" stroke="black" stroke-width="3" stroke-linecap="round"/>
</svg>
