<svg width="401" height="116" viewBox="0 0 401 116" fill="none" xmlns="http://www.w3.org/2000/svg">
<path d="M166.5 69H100.5L102 74C103.667 76.5 107.2 81.7 108 82.5L115.5 90C119.333 91 127.3 93 128.5 93H142C143.2 93 148.167 89 150.5 87L159.5 78.5L166.5 69Z" fill="white"/>
<path d="M299 65H229L233 69.5C234.667 72 239.7 77.7 240.5 78.5L248 86C251.833 87 259.8 89 261 89H274.5C275.7 89 280.667 85 283 83L292 74.5L299 65Z" fill="white"/>
<path d="M98.1931 69.1074C116.804 69.1074 135.416 69.1558 154.026 69.1074C159.394 69.0935 165.329 69.5753 170.582 68.1074C171.129 67.9547 175.159 66.2719 172.971 66.1352C165.453 65.6653 157.774 66.1074 150.249 66.1074C141.217 66.1074 132.222 65.958 123.249 67.0796C117.869 67.7522 112.353 67.256 107.082 68.4963C104.492 69.1058 101.457 68.5387 98.8042 68.7185C98.2837 68.7538 92.2047 69.2311 94.5265 68.9963C103.726 68.066 113.017 67.9309 122.249 67.4963C131.818 67.0458 141.694 67.4159 151.221 66.3574C157.473 65.6628 163.904 65.6074 170.193 65.6074" stroke="black" stroke-width="3" stroke-linecap="round"/>
<path d="M226.193 64.1074C237.997 65.6639 249.589 65.5747 261.471 65.6074C268.275 65.6262 275.063 66.1074 281.86 66.1074C285.212 66.1074 288.564 66.1074 291.916 66.1074C295.203 66.1074 298.52 66.2247 301.804 66.1074C322.529 65.3673 260.348 64.6074 239.61 64.6074C236.721 64.6074 233.832 64.6074 230.943 64.6074C230.395 64.6074 227.24 64.6074 227.86 64.6074C242.601 64.6074 257.342 64.6074 272.082 64.6074C279.539 64.6074 286.907 65.1074 294.332 65.1074C304.713 65.1074 273.574 65.6074 263.193 65.6074" stroke="black" stroke-width="3" stroke-linecap="round"/>
<path d="M100.693 69.6074C102.054 75.8067 106.159 82.1032 110.693 86.3852C113.092 88.6503 115.543 90.3639 118.582 91.2185C123.027 92.4686 127.223 92.5173 131.693 93.2185C135.089 93.7512 139.284 94.4411 142.304 92.6074C143.823 91.6854 145.811 90.7586 147.471 90.1074C149.419 89.3434 150.62 87.2389 152.582 86.3296C153.613 85.8521 154.711 84.7261 155.693 83.9963C157.298 82.8043 159.231 81.4233 160.693 80.1074C163.058 77.979 166.182 76.0346 167.082 72.9963C167.344 72.1113 167.193 71.0261 167.193 70.1074C167.193 68.4488 163.731 72.7772 163.027 73.3852C160.158 75.8629 158.808 79.6822 155.693 81.9963C152.506 84.3641 149.712 87.3908 146.693 90.1074C143.8 92.7112 139.497 92.1074 135.916 92.1074C130.375 92.1074 123.295 93.2695 118.193 90.7185C116.463 89.8533 113.879 87.3409 112.693 85.7185C110.914 83.2841 106.693 81.3801 106.693 78.1074" stroke="black" stroke-width="3" stroke-linecap="round"/>
<path d="M236.193 66.1074C236.297 71.7367 237.575 76.989 241.582 80.9963C244.017 83.4316 247.218 84.3891 250.082 86.1074C253.688 88.2707 258.704 88.1074 262.804 88.1074C267.956 88.1074 273.988 88.2631 278.165 84.6074C279.426 83.5044 280.27 82.1924 281.693 81.2185C283.963 79.6655 286.694 79.7513 288.915 77.8852C291.136 76.0198 293.374 73.9073 294.304 71.2185C294.703 70.066 296.205 69.7704 296.915 68.8574C297.512 68.0908 297.452 67.4441 297.804 66.6074C298.544 64.8518 298.055 68.3986 297.915 68.8574C297.263 71.0019 295.784 72.4687 294.165 73.8852C291.588 76.1406 288.988 78.8066 285.804 80.1074C282.758 81.3523 281.773 83.4864 279.332 85.3852C275.159 88.6313 269.361 88.1074 264.415 88.1074C260.8 88.1074 257.267 87.6074 253.693 87.6074C250.758 87.6074 249.14 85.5386 246.582 84.4963C244.936 83.8255 244.121 82.1725 242.971 80.913C241.594 79.4045 239.809 78.1104 238.693 76.3852C238.126 75.508 237.98 74.4868 237.471 73.6074C236.824 72.4894 235.454 72.1611 234.527 71.3574C233.45 70.4244 231.502 69.0288 230.721 67.8574C229.608 66.1881 228.328 65.6074 231.443 65.6074C234.412 65.6074 236.16 65.5877 238.693 67.1074" stroke="black" stroke-width="3" stroke-linecap="round"/>
<path d="M304.693 66.6074C302.514 68.5145 300.467 70.5597 299.193 73.1074" stroke="black" stroke-width="3" stroke-linecap="round"/>
<path d="M108.193 54.6074C112.474 45.2827 119.729 35.9447 128.166 29.9685C133.243 26.3723 139.973 27.0581 145.082 30.1074C147.75 31.6995 149.343 34.1646 151.416 36.3852C152.946 38.0254 154.062 39.7794 155.416 41.5519C156.413 42.8583 157.87 43.5856 158.888 44.8296C159.939 46.1149 159.164 44.7914 158.693 44.0519C157.023 41.4266 156.483 37.808 154.36 35.4963C150.331 31.1087 146.566 30.1074 140.749 30.1074C138.166 30.1074 135.582 30.1074 132.999 30.1074C130.145 30.1074 129.422 31.1439 127.304 32.8852C123.934 35.6563 121.408 40.1225 119.471 43.9963C118.552 45.8341 114.694 46.6075 118.693 47.1074" stroke="black" stroke-width="3" stroke-linecap="round"/>
<path d="M239.193 53.1075C242.343 49.9583 245.295 46.5508 248.554 43.5242C251.937 40.3831 255.906 38.5938 260.082 36.7186C263.101 35.3631 270.089 32.6138 273.027 35.552C276.273 38.7982 279.443 42.4086 282.304 45.9964C283.788 47.856 285.441 49.558 287.082 51.2742C287.692 51.9112 287.986 52.9974 288.693 53.4964C289.823 54.2941 288.129 52.3568 287.693 51.3297C285.261 45.5965 284.232 39.7684 280.443 34.6353C276.955 29.9092 273.621 27.1118 267.638 28.6075C264.742 29.3316 261.451 29.1305 258.804 30.7186C256.815 31.9124 255.219 33.9077 253.693 35.6075C251.901 37.6049 251.389 40.4865 249.666 42.6075C248.456 44.0965 247.26 46.0405 245.943 47.3575C245.558 47.7426 245.365 48.0643 245.193 48.5797C244.691 50.0882 246.955 45.9295 247.749 44.552C251.695 37.7056 255.239 30.6484 260.11 24.3853C261.373 22.7612 262.289 20.6827 262.693 23.1075" stroke="black" stroke-width="3" stroke-linecap="round"/>
<path d="M116.693 70.6076C115.29 72.7556 113.252 76.5773 115.582 78.9965C116.774 80.2351 119.973 80.704 121.582 80.9965C124.528 81.5322 125.166 80.6552 127.193 78.9965C129.139 77.4039 128.693 75.4225 128.693 73.1076C128.693 71.682 128.569 69.6764 129.082 72.4965C129.749 76.1672 126.405 76.7567 123.693 77.6076C122.688 77.9228 119.655 78.7459 118.693 77.8854C117.232 76.5783 117.525 74.6333 116.582 73.2187C116.325 72.8342 115.972 69.2362 115.804 70.0521C115.239 72.7937 118.737 76.6763 121.582 74.8854C122.933 74.0348 123.491 70.48 121.193 70.6076C120.17 70.6645 120.189 76.3799 123.193 75.4965C125.239 74.8946 125.065 70.0997 123.193 69.2187C122.909 69.085 121.873 74.5035 124.582 74.6076C126.837 74.6944 126.296 71.7601 126.193 70.1076C126.149 69.3993 125.618 70.4674 125.443 70.6076C124.373 71.4635 127.325 72.8623 127.693 73.1076" stroke="black" stroke-width="3" stroke-linecap="round"/>
<path d="M242.693 65.6074C244.215 69.5064 247.229 75.4548 251.916 76.0796C255.612 76.5725 255.851 72.3511 257.193 70.2185C258.115 68.7545 258.59 63.4371 258.166 68.1074C257.894 71.0926 253.739 76.1003 250.304 74.9963C247.21 74.0017 248.099 72.3745 247.193 69.8852C246.473 67.9038 244.693 67.8731 244.693 70.1074C244.693 73.8019 246.945 74.4406 250.193 74.0796C252.821 73.7876 256.223 69.3041 257.443 67.1352C258.683 64.9313 258.001 66.9197 257.193 67.9963C256.256 69.2458 255.075 71.1074 253.304 71.1074C250.746 71.1074 248.876 69.0379 250.721 66.8852C251.168 66.3641 252.215 66.9271 252.666 67.1352C253.361 67.4563 255.291 67.5655 254.749 68.1074C254.365 68.491 251.859 68.1074 251.193 68.1074C248.875 68.1074 247.066 71.5538 246.666 73.3574C245.972 76.4769 249.77 75.6074 252.193 75.6074C254.139 75.6074 258.191 71.4934 258.666 69.3574C258.774 68.8707 258.413 67.5668 258.804 67.2185C259.586 66.5236 259.988 70.4798 259.582 70.9963C258.435 72.456 254.916 72.6072 253.304 73.6074C252.414 74.1604 251.718 74.1074 250.693 74.1074" stroke="black" stroke-width="3" stroke-linecap="round"/>
</svg>
