<svg width="401" height="116" viewBox="0 0 401 116" fill="none" xmlns="http://www.w3.org/2000/svg">
<path d="M116.5 57.5L129 48L132.5 45H144.5L155.5 50L163.5 59V72.5L159 87L151 94.5L142.5 96.5C138 96 128.6 94.9 127 94.5C125.4 94.1 118.333 89.3333 115 87L111.5 72.5L116.5 57.5Z" fill="#FEE97B"/>
<path d="M249.5 58L262.308 49H267.385H278.462L288.615 53.3689L296 61.233V73.0291L291.846 85.699L284.462 92.2524L276.615 94C272.462 93.5631 263.785 94.3495 262.308 94C260.831 93.6505 254.308 87.7379 251.231 85.699L246 73.0291L249.5 58Z" fill="#FEE97B"/>
<path d="M287.141 91.2886C276.888 94.1665 267.354 95.693 257.141 92.2886" stroke="black" stroke-width="3" stroke-linecap="round"/>
<path d="M162.141 60.2885C161.912 50.8987 153.37 48.7613 145.641 45.7885C141.242 44.0968 134.655 45.2885 129.918 45.2885C124.978 45.2885 121.769 45.1046 118.141 48.733C113.84 53.0333 112.11 61.8499 111.196 67.7885C110.618 71.5476 109.715 75.3867 110.196 79.233C110.487 81.5564 117.289 90.7104 119.641 91.233C133.384 94.287 148.242 104.942 157.641 88.233C162.904 78.8758 165.141 69.9961 165.141 59.2885" stroke="black" stroke-width="3" stroke-linecap="round"/>
<path d="M282.141 52.2886C267.665 46.9024 256.486 50.3597 247.363 61.5108C244.855 64.5762 246.141 72.5258 246.141 76.2886C246.141 81.0747 252.768 86.1666 255.585 89.7886C261.317 97.1586 279.967 99.6851 286.696 92.3441C289.073 89.7507 292.105 86.7265 293.585 83.3441C295.015 80.0766 293.512 76.23 294.641 72.8441C296.278 67.933 296.359 58.9183 291.918 55.8441C284.637 50.8035 274.093 48.5372 265.141 48.2886C256.869 48.0588 252.696 51.7887 249.363 59.2886C247.105 64.3698 247.141 68.5853 247.141 74.2886C247.141 78.4375 253.452 86.2776 257.752 87.233C262.964 88.3913 267.732 93.2886 273.641 93.2886C277.398 93.2886 278.334 93.5524 280.641 90.733C282.351 88.6423 285.513 84.745 286.141 82.233C287.616 76.3318 290.141 73.1326 290.141 66.7886C290.141 63.839 290.995 55.7159 288.141 54.2886" stroke="black" stroke-width="3" stroke-linecap="round"/>
<path d="M155.141 53.2887C148.478 49.3888 138.977 47.2247 131.141 48.3442C127.074 48.9251 120.975 55.6086 118.363 58.5109C116.809 60.2371 117.625 69.359 117.085 71.7887C115.409 79.3289 117.49 84.6671 122.196 90.8442C127.083 97.2581 134.836 96.2887 142.141 96.2887C151.151 96.2887 154.501 92.1257 159.641 85.8442C163.42 81.2252 167.117 57.777 160.141 54.2887" stroke="black" stroke-width="3" stroke-linecap="round"/>
<path d="M140.141 72.2885C141.043 76.9138 142.141 80.9872 142.141 74.2885C142.141 74.2866 143.141 77.2953 143.141 73.2885C143.141 72.0053 143.141 75.7678 143.141 74.1774C143.141 73.7288 143.141 70.5663 143.141 72.5107C143.141 78.8618 143.911 66.1939 143.085 64.9552C140.439 60.9866 142.141 74.4633 142.141 79.2329C142.141 87.456 142.141 76.2971 142.141 73.7885C142.141 70.0107 142.141 58.6774 142.141 62.4552C142.141 65.7329 142.141 69.0107 142.141 72.2885" stroke="black" stroke-width="3" stroke-linecap="round"/>
<path d="M271.14 67.2887C271.561 68.3662 273.353 76.4663 272.363 72.0665C271.804 69.5816 272.629 63.0309 270.64 64.622C269.492 65.5408 270.14 70.0761 270.14 71.2332C270.14 73.622 270.14 80.7887 270.14 78.3998C270.14 74.8628 270.14 71.3258 270.14 67.7887C270.14 58.347 269.96 72.3138 271.363 74.0665C273.248 76.4231 272.14 64.8941 272.14 71.2887" stroke="black" stroke-width="3" stroke-linecap="round"/>
<path d="M232.141 33.2886C237.313 24.8051 235.052 26.8946 238.696 32.6219C239.935 34.5691 240.884 30.9137 241.196 30.2886C242.054 28.5723 241.929 23.6804 243.363 24.9553C244.701 26.1445 244.995 31.0257 247.752 30.1775C250.761 29.2517 256.023 19.5195 257.696 23.3442C257.933 23.8844 261.78 32.7594 262.141 28.0664C262.285 26.19 266.842 16.2168 267.141 21.2886C268.088 37.3981 272.321 19.3997 275.641 19.3997C277.316 19.3997 274.622 26.2886 277.141 26.2886C278.615 26.2886 279.81 21.123 280.641 21.4553C283.036 22.4136 279.37 28.5032 283.141 24.2886C285.646 21.4886 288.141 12.8729 288.141 22.2886C288.141 25.0689 288.731 28.218 290.696 24.2886C293.844 17.9924 295.277 24.5204 296.141 28.6219C296.391 29.81 297.232 32.7354 298.585 33.1219C299.426 33.3623 299.868 30.0056 300.363 29.5108C301.021 28.8522 301.393 31.4294 301.696 31.7331C302.539 32.5761 304.061 32.2886 305.141 32.2886" stroke="black" stroke-width="3" stroke-linecap="round"/>
<path d="M175.141 25.2887C174.935 25.7837 170.435 33.3795 171.363 30.0665C171.569 29.3289 172.251 25.409 172.141 28.0665C171.935 32.9897 168.843 24.2189 165.641 28.8998C165.127 29.6507 161.723 35.2688 160.641 34.0665C160.312 33.701 158.641 29.274 158.141 29.8998C156.804 31.571 157.141 32.1637 157.141 29.3443C157.141 27.548 157.462 22.1881 157.141 23.9554C156.969 24.898 154.522 30.7391 154.363 30.3998C153.226 27.985 155.001 24.7248 153.918 22.2887C152.766 19.6962 150.288 37.2721 148.585 31.6776C147.998 29.7504 147.195 26.6204 146.085 24.9554C145.607 24.2387 144.141 30.8192 144.141 29.0665C144.141 21.9142 142.126 33.1323 140.085 32.622C134.756 31.2898 131.3 23.7045 129.141 32.3443C126.619 42.4316 114.019 27.5417 113.363 29.5109C113.274 29.777 112.826 34.5292 111.363 33.0665C110.726 32.4298 110.141 27.178 110.141 30.0665C110.141 35.2727 112.864 25.3997 115.585 25.0109C116.635 24.861 116.08 30.8383 115.696 31.7332C115.435 32.3433 130.517 30.9488 131.696 30.8443C135.987 30.464 140.838 30.8917 145.029 29.7887C146.225 29.4741 144.138 29.5878 143.696 29.7887C141.424 30.8215 138.37 30.2887 135.918 30.2887C130.226 30.2887 121.712 31.268 117.252 35.2332C114.088 38.0455 100.767 36.6625 103.141 34.2887" stroke="black" stroke-width="3" stroke-linecap="round"/>
<path d="M135.141 73.2887C138.437 73.2887 148.262 72.6977 145.03 73.3442C141.723 74.0055 138.209 76.1775 134.807 76.1775C130.977 76.1775 149.971 74.2887 146.141 74.2887C143.678 74.2887 141.215 74.2887 138.752 74.2887C135.789 74.2887 144.678 74.2887 147.641 74.2887C152.555 74.2887 151.734 74.2887 147.141 74.2887C142.807 74.2887 138.474 74.2887 134.141 74.2887" stroke="black" stroke-width="3" stroke-linecap="round"/>
<path d="M282.14 70.2886C276.041 70.4272 257.984 73.2886 264.085 73.2886C268.203 73.2886 272.159 72.2886 276.14 72.2886C277.654 72.2886 281.491 72.6405 277.64 73.233C274.046 73.786 258.886 73.2886 271.14 73.2886C272.026 73.2886 279.626 72.2886 276.529 72.2886C273.066 72.2886 269.603 72.2886 266.14 72.2886" stroke="black" stroke-width="3" stroke-linecap="round"/>
<path d="M114.141 78.2885C114.141 80.9714 115.179 89.0956 113.363 82.5108C112.493 79.357 112.141 74.5977 112.141 71.2885C112.141 66.2193 114.204 63.6068 116.363 59.2885C117.287 57.4406 120.412 56.0266 122.141 55.0663C125.799 53.0337 124.894 54.7719 122.141 56.5108C121.191 57.1105 117.259 62.4162 117.141 60.2885C117.017 58.065 116.464 55.03 118.363 53.5108C121.381 51.0963 127.736 52.7808 129.918 49.2885C131.382 46.9475 125.37 50.1592 124.141 50.2885C122.565 50.4544 119.71 53.8441 119.141 53.8441C119.036 53.8441 123.035 51.2885 124.918 51.2885C128.585 51.2885 132.252 51.2885 135.918 51.2885C141.209 51.2885 145.865 52.2885 151.141 52.2885" stroke="black" stroke-width="3" stroke-linecap="round"/>
<path d="M286.141 86.2886C289.696 84.7774 292.141 83.3533 292.141 79.2886C292.141 77.6884 291.43 73.4293 292.696 72.3441C294.534 70.7688 297.094 63.2654 295.141 62.2886" stroke="black" stroke-width="3" stroke-linecap="round"/>
<path d="M172.141 35.2886C171.657 32.7491 171.857 28.196 169.696 26.3442C169.021 25.765 169.77 23.1038 169.141 23.733C167.157 25.7163 166.866 29.5632 164.641 31.7886C159.491 36.9385 161.054 31.6139 159.918 28.0664C158.566 23.8407 161.626 37.0924 159.196 32.233C158.27 30.3798 157.649 23.4631 155.363 28.2886C155.189 28.6558 151.711 35.5334 151.196 33.733C150.751 32.1756 149.753 23.851 147.363 29.0664C146.816 30.2602 145.762 31.4858 144.641 32.233C142.553 33.6247 143.347 31.1717 142.141 29.8442C138.22 25.5317 140.667 33.3324 137.641 32.1219C136.442 31.6425 137.691 29.2835 136.918 28.5108C135.405 26.9976 132.986 32.4869 132.585 33.2886C130.733 36.9934 129.964 32.9214 129.085 29.8442C128.37 27.3419 123.57 35.936 123.141 32.2886C122.409 26.0676 112.369 34.2284 112.141 32.2886C111.579 27.5173 109.184 35.1399 108.196 36.6219C107.58 37.5466 108.206 34.3979 108.141 33.2886C108.044 31.6498 106.054 32.9842 105.141 33.2886" stroke="black" stroke-width="3" stroke-linecap="round"/>
<path d="M233.141 32.2885C239.362 40.2518 236.904 32.3967 241.641 31.3441C243.705 30.8854 245.236 34.6958 246.141 33.8441C247.399 32.6596 251.016 24.3996 251.696 24.3996C254.759 24.3996 251.738 32.4352 256.141 31.1774C257.649 30.7463 261.638 21.9458 262.918 23.5107C264.117 24.9752 261.724 34.0472 266.085 28.233C267.005 27.0069 269.219 20.127 270.363 22.2885C272.63 26.5713 275.809 20.6258 275.918 20.9552C276.532 22.7967 275.784 24.8229 276.196 26.6774C276.521 28.1378 280.6 22.6268 281.085 21.8996C282.75 19.4017 280.018 32.9669 282.141 30.8441C284.133 28.8515 285.835 24.6847 288.141 22.9552C288.744 22.5028 288.027 33.7182 290.696 33.233C292.853 32.8409 296.054 26.2677 296.141 28.5107C296.215 30.4556 296.3 32.4411 295.641 34.2885C294.504 37.4711 296.002 32.7606 296.585 31.8441C299.869 26.6841 295.965 33.385 299.141 35.0663C302.137 36.6526 303.141 29.3007 303.141 36.2885" stroke="black" stroke-width="3" stroke-linecap="round"/>
<path d="M105.141 35.2886C103.705 35.2527 100.97 35.6639 99.9184 34.2886C99.7145 34.0218 99.1407 32.5093 99.1407 32.9553C99.1407 34.6557 100.917 39.5318 100.085 35.7886C98.8188 30.0902 100.288 43.4178 97.5851 42.0664C96.5799 41.5638 96.1407 37.0347 96.1407 35.9553C96.1407 34.4502 96.1433 40.6465 94.6962 40.233C93.5804 39.9142 94.1407 37.3857 94.1407 41.2886C94.1407 42.3845 94.1407 46.7096 94.1407 43.2886" stroke="black" stroke-width="3" stroke-linecap="round"/>
</svg>
