<svg width="401" height="116" viewBox="0 0 401 116" fill="none" xmlns="http://www.w3.org/2000/svg">
<path d="M196 72.9767C195.517 70.3996 194.43 62.2902 193.056 68.4767C192.34 71.6975 192.505 67.4005 191.222 64.9767C190.974 64.5084 191 70.7403 191 72.4211C191 76.462 191.772 74.9147 189.778 72.7545C187.544 70.3343 184.77 61.4837 184.056 64.6989C183.344 67.8987 184 77.8101 184 74.5322C184 71.4571 183.349 67.3383 182.444 64.3656C179.966 56.2233 179.788 61.3411 178.5 65.9767C175.763 75.8297 174.293 55.2521 172 53.5322C170.863 52.6798 168.987 70.2334 167.944 59.81C167.83 58.6627 166.856 47.3278 163.778 49.4211C160.707 51.5092 161.112 55.8873 158.5 57.9767C154.43 61.2325 155.529 46.7558 153.778 45.1989C152.625 44.1742 149 63.8001 149 49.9767C149 46.6401 148.328 51.2522 148.056 52.4767C147.065 56.9336 146.122 48.5435 145.778 48.1989C145.458 47.879 144.764 55.2481 144.056 56.31C142.438 58.7364 141.861 45.4914 140.778 48.1989C139.748 50.7727 137.304 58.3113 134.556 52.4211C133.742 50.6785 134.36 45.5058 133 46.8656C132.066 47.7998 133.778 51.1751 131.556 51.81C130.855 52.0102 130.864 46.1296 129.778 47.9767C127.273 52.2344 126.439 52.3482 125 48.0322C123.427 43.3137 121.909 51.4512 119.556 54.4767C118.554 55.7646 118.2 62.5322 116 62.5322C115.445 62.5322 116.753 54.6185 114.5 60.4767C114.17 61.3349 113.574 67.9955 112.778 67.1989C110.725 65.1457 111.409 66.1584 110 68.9767" stroke="black" stroke-width="3" stroke-linecap="round"/>
<path d="M200 67.9766C201.426 71.6319 202 74.2073 202 77.9766" stroke="black" stroke-width="3" stroke-linecap="round"/>
<path d="M210 66.9766C210.599 70.0452 211 72.8704 211 75.9766" stroke="black" stroke-width="3" stroke-linecap="round"/>
<path d="M221 65.9766C220.085 68.8915 218 80.6686 218 71.4211C218 70.8516 217.493 65.5632 218.222 65.1988C222.286 63.167 220.519 78.9238 225.5 64.9766C226.562 62.0023 226.918 56.8725 228.444 62.9766C230.209 70.0365 232.604 61.1667 234 57.7544C234.763 55.8895 235.562 53.4902 237.222 52.1988C238.633 51.1018 237.316 57.0015 238.611 54.6988C240.523 51.2999 241.989 46.7425 244.056 43.6433C246.395 40.1347 246 51.9265 246 56.1433C246 58.6988 246 51.0322 246 48.4766C246 45.6423 247 51.2049 247 52.1988C247 61.4093 252 51.6022 252 52.5877C252 62.3861 253.848 46.7477 258 53.7544C259.333 56.0031 259 64.1461 259 61.5322C259 59.2846 258.546 55.2282 261.222 54.1988C263.582 53.2913 265 53.8481 265 56.1988C265 56.8649 265.354 62.671 265.944 59.4211C267.774 49.3595 270 62.0455 270 65.7544C270 73.6586 274.428 51.9758 277 60.9766C277.318 62.0886 277.655 63.5235 278.222 64.5322C278.774 65.5131 279.025 63.8186 279.5 64.1988C282.197 66.3565 282 77.7083 282 74.2544C282 62.2683 281.503 75.5322 283.222 75.5322C284.589 75.5322 286.053 70.4739 287.778 72.1988C289.089 73.5104 289 77.2621 289 78.9211C289 82.3214 289 80.8774 289 78.4766C289 75.3717 288.588 77.3297 286 77.9766" stroke="black" stroke-width="3" stroke-linecap="round"/>
<path d="M225 75.9766C225.059 75.5977 226.485 59.3372 228.5 60.1432C230.378 60.8943 229.51 68.9322 230.056 66.4766C230.853 62.8878 232.958 58.3288 234.778 55.1988C239.004 47.9298 238.261 57.2707 239.222 60.7544C240.617 65.8109 245.117 51.6178 246.444 49.5321C249.044 45.4474 250 47.5081 250 51.5877C250 54.51 249.388 58.1224 250 60.9766C250.698 64.2362 253.291 55.1325 255.444 52.5877C255.685 52.304 257.714 49.5652 257.778 49.6432C259.302 51.5063 259 56.6151 259 58.921C259 65.9792 260.972 59.9754 263 56.7544C266.176 51.7097 266.585 55.6495 268 59.9766C271.656 71.1608 269.019 60.5056 275.444 59.5877C276.355 59.4576 276 69.177 276 70.1988C276 72.9211 275.045 80.893 276.056 78.3655C277.62 74.455 278.875 70.7821 280.778 66.9766C282.85 62.8324 282 72.4762 282 74.1988C282 83.1622 283.806 76.8128 287 72.1988C288.148 70.5399 288 82.1953 288 83.9766" stroke="black" stroke-width="3" stroke-linecap="round"/>
<path d="M194 77.9765C193.092 75.1388 192.933 71.0553 191.5 68.4765C190.832 67.2736 189.341 65.7594 189.056 64.4765C188.936 63.9383 189 80.3598 189 68.1432C189 65.1665 189.312 62.288 188 59.5321C185.868 55.0555 186.052 61.9615 185.5 64.4765C184.591 68.6193 183.903 74.0033 182 77.8098C180.528 80.7542 181.173 80.6222 180.944 77.3098C180.525 71.2258 180.56 60.3737 177.444 55.0321C175.554 51.792 172.386 72.0789 171.444 71.8098C169.62 71.2887 168.107 55.7792 166.444 56.2543C163.401 57.1237 163.404 74.7583 160.556 60.9209C159.739 56.9559 158.555 53.9318 157.222 50.1987C156.148 47.1904 155.846 50.686 155 52.7543C154.49 53.9999 153.293 58.9765 151.778 58.9765C148.999 58.9765 146.496 54.1794 145.222 52.1987C141.255 46.0277 139.278 62.1428 138.778 60.7543C137.491 57.1811 135.827 50.4319 132 54.9765C131.594 55.4587 130.217 59.9788 129.222 58.5321C127.83 56.5073 127.023 54.5126 126.222 52.1987C124.819 48.1449 123.327 57.1058 121 56.9765C119.649 56.9015 119.206 55.0731 118.778 55.9765C117.314 59.0671 116.27 62.4956 115.222 65.7543C114.124 69.171 113.85 67.5513 111 68.9765" stroke="black" stroke-width="3" stroke-linecap="round"/>
<path d="M144 77.9767C140.736 77.3398 136.901 75.6429 135.222 79.4211C134.435 81.1925 134.576 85.8141 135.5 87.4767C136.82 89.8534 140.791 89.0739 143.222 88.9767C145.159 88.8992 146 85.3113 146 83.4767C146 78.296 140.531 72.2651 137.889 79.5322C137.41 80.8487 133.093 86.285 135.444 87.7544C137.945 89.3172 140.889 89.4368 143.444 87.9767C146.435 86.2679 145.904 74.1295 141.778 73.9767C135.186 73.7325 132 81.0419 132 86.9767C132 88.4725 135.117 90.9767 136.556 90.9767C141.122 90.9767 143.638 86.7281 144.778 82.6433C145.185 81.1835 149.034 76.4566 146.444 74.9767C143.313 73.1872 142.105 75.1344 144 77.9767Z" stroke="black" stroke-width="3" stroke-linecap="round"/>
<path d="M256 77.9767C251.744 77.166 246.615 75.4097 243.445 78.9767C241.534 81.1257 244.349 87.3251 246 88.9767C249.623 92.5993 265.561 86.186 256.445 80.9767C254.456 79.8403 251.726 78.5269 249.5 78.0322C244.6 76.9434 245 79.4711 245 83.4211C245 89.6006 253.013 90.9642 257 86.9767" stroke="black" stroke-width="3" stroke-linecap="round"/>
<path d="M148 80.9766C148 85.9718 146.271 88.2779 145.056 92.5321C144.138 95.7439 140 94.9538 140 97.9766" stroke="black" stroke-width="3" stroke-linecap="round"/>
<path d="M244 82.9766C243.169 87.2347 242.081 92.1393 244 95.9766" stroke="black" stroke-width="3" stroke-linecap="round"/>
<path d="M253 82.9766C250.676 82.3955 248 79.4865 248 81.9766C248 84.7526 248.454 84.3401 250.5 85.4766C252.808 86.7586 256.747 82.0794 255 81.9766C253.817 81.907 247.393 81.3518 247.055 82.5321C245.933 86.46 252 88.6239 252 85.4766C252 82.2881 253.758 80.9766 248.778 80.9766C243.938 80.9766 241.327 80.9766 247.5 80.9766C253.397 80.9766 259.285 86.9766 250 86.9766" stroke="black" stroke-width="3" stroke-linecap="round"/>
<path d="M141 80.9766C140.973 81.0408 136 90.7883 136 86.4766C136 84.9393 138.492 81.8199 140 81.1988C140.584 80.9582 140 93.5999 140 83.9766" stroke="black" stroke-width="3" stroke-linecap="round"/>
<path d="M242 81.9766C236.864 89.0381 238.772 91.8243 245 95.9766" stroke="black" stroke-width="3" stroke-linecap="round"/>
<path d="M122 92.4766C124.425 94.3714 127.345 100.477 130.5 100.477" stroke="black" stroke-width="3" stroke-linecap="round"/>
<path d="M265.5 92.4766C262.435 93.7173 254.195 99.2846 256.806 97.2543C258.038 96.2958 259.125 96.1831 260.111 95.0877C260.941 94.166 261.458 93.5611 262 92.4766" stroke="black" stroke-width="3" stroke-linecap="round"/>
<path d="M170 27.0001C180.434 22.9282 196.016 24.1341 207.111 25.7779C214.626 26.8912 222.38 27.0001 230 27.0001" stroke="black" stroke-width="3" stroke-linecap="round"/>
<path d="M199 16H213" stroke="black" stroke-width="3" stroke-linecap="round"/>
</svg>
