<svg width="401" height="132" viewBox="0 0 401 132" fill="none" xmlns="http://www.w3.org/2000/svg">
<path d="M178.216 90.5623C181.56 93.2545 192.415 104.343 188.716 92.5068C186.63 85.8323 186.258 78.5553 184.216 71.7846C182.134 64.8839 179.228 57.887 176.66 51.1179C176.315 50.2091 169.013 30.6375 166.438 35.8957C163.9 41.0777 165.194 48.7085 166.716 53.9512C168.301 59.412 172.751 61.7627 175.216 66.5623C177.136 70.3025 178.844 75.4248 182.993 77.3401C185.284 78.3973 188.297 82.3214 189.216 84.6179C190.376 87.5194 192.899 90.9941 194.993 93.3401C197.898 96.5935 198.489 99.7262 197.716 91.8401C196.006 74.404 197.216 58.5628 197.216 41.1179C197.216 35.1002 197.054 39.5492 197.271 43.4512C197.581 49.021 201.014 53.4005 201.993 58.7846C203.257 65.7346 202.69 72.7772 203.993 79.7846C204.537 82.7079 207.273 94.5443 208.271 85.5623C209.707 72.6351 209.357 59.3008 212.771 46.6179C213.207 45.0007 214.606 39.2668 215.216 43.8401C216.248 51.5798 218.216 58.4707 218.216 66.3401C218.216 70.8957 218.216 75.4512 218.216 80.0068C218.216 81.621 217.407 86.0522 218.438 87.3401C219.81 89.0553 221.027 90.4853 222.604 92.0623C224.702 94.1598 228.58 82.1832 229.216 79.6735C229.952 76.7647 236.196 63.0526 235.216 62.5623" stroke="black" stroke-width="3" stroke-linecap="round"/>
</svg>
