<svg width="401" height="131" viewBox="0 0 401 131" fill="none" xmlns="http://www.w3.org/2000/svg">
<path d="M188.011 60.0146C189.915 58.5536 192.077 57.0926 194.233 56.0146C196.205 55.0289 198.251 55.4253 200.233 54.7646C202.076 54.1504 204.017 54.6778 205.789 55.2923C207.342 55.831 208.801 56.3834 210.456 56.4868C211.265 56.5374 212.527 56.265 213.289 56.6257C215.53 57.6871 216.689 61.3831 218.206 63.2368C218.462 63.5508 214.062 59.0761 212.4 59.0146C206.979 58.8138 197.743 56.7875 192.511 59.4034C190.681 60.3184 189.147 62.0421 187.261 62.7368C183.968 63.95 184.315 62.5406 186.789 60.2646C189.946 57.3603 192.033 55.1018 196.289 53.7368C200.696 52.3233 205.928 53.0146 210.483 53.0146C211.966 53.0146 213.063 53.25 214.233 54.2646C215.696 55.5324 217.517 56.3855 218.9 57.6257C219.553 58.2109 224.011 63.438 224.011 61.0146C224.011 58.5735 220.934 56.0004 219.011 54.7646C216.795 53.3397 215.122 52.3846 212.289 51.9034C207.503 51.0908 197.559 50.1299 194.039 54.2368C192.15 56.4402 189.495 58.5302 187.4 60.6257C186.449 61.5765 181.714 65.6515 184.317 61.5423C187.607 56.3467 196.651 56.1493 202.178 55.6257C209.666 54.9162 214.048 59.5513 220.456 62.5146C221.865 63.1663 222.897 64.3069 224.233 65.0146C224.577 65.1964 226.456 66.464 226.456 66.2646C226.456 65.7309 225.238 62.0477 224.9 61.6257C222.477 58.5965 219.563 55.2224 215.483 54.5423C212.833 54.1006 210.614 53.0146 207.9 53.0146C204.507 53.0146 200.979 52.7291 197.706 53.8201C195.624 54.514 193.091 55.399 191.011 55.5146C189.565 55.5949 185.79 56.7508 184.622 57.5146C182.861 58.6661 179.606 62.7534 178.4 59.4034C177.838 57.8427 176.279 56.6923 176.039 55.0146C175.593 51.8914 176.011 48.4188 176.011 45.2646C176.011 42.3282 176.117 38.9399 177.9 36.5146C180.392 33.1254 184.382 32.121 188.039 30.2923C195.893 26.3653 209.492 24.8736 217.261 29.2646C221.629 31.7334 226.011 38.4009 226.011 43.5423C226.011 46.7635 227.266 53.5372 224.9 55.9034C224.376 56.4278 221.76 58.959 222.428 58.959C227.836 58.959 231.511 55.4119 231.511 50.2923C231.511 43.3446 233.097 34.6172 227.428 29.5146C223.631 26.0971 219.271 26.2884 214.733 25.0146C212.306 24.3333 209.881 24.5004 207.456 23.7368C205.2 23.0268 202.821 23.0146 200.483 23.0146C193.119 23.0146 186.131 23.3277 183.511 31.6257C182.652 34.3475 182.262 37.0656 181.483 39.7923C180.755 42.3428 180.011 43.3226 180.011 46.1257C180.011 48.9358 180.021 51.1673 180.956 53.7368C181.187 54.3743 181.011 55.3402 181.011 56.0146C181.011 56.6743 181.812 57.8055 181.178 57.9868C174.412 59.9198 178.356 37.6694 181.261 34.7646C183.344 32.6821 186.503 30.7697 189.067 29.2923C189.703 28.9258 194.742 26.5557 194.678 26.8757C193.923 30.6482 190.703 33.7275 189.789 37.6257C188.888 41.4673 187.616 45.2492 187.511 49.2368C187.368 54.6853 187.511 48.6273 187.511 46.6257C187.511 45.2845 187.366 42.8327 186.761 45.7923C186.158 48.7417 186.011 57.8027 186.011 54.7923C186.011 48.2439 186.511 28.605 186.511 35.1534C186.511 39.6911 185.321 43.9146 184.511 48.3479C184.395 48.9819 183.357 54.2278 183.539 51.0423C183.817 46.1811 185.474 41.0383 187.511 36.6257C188.785 33.8648 189.539 32.8427 189.511 36.3479C189.459 42.8557 188.899 49.2952 187.622 55.6812C186.994 58.8207 188.028 49.2768 188.594 46.1257C189.175 42.8947 189.753 39.5132 190.733 36.3757C190.962 35.645 191.477 33.8334 191.956 34.4312C192.341 34.9135 192.011 37.5869 192.011 37.9868C192.011 42.6573 191.9 47.2977 191.622 51.959C191.528 53.5336 191.511 55.1047 191.511 56.6812C191.511 57.9525 191.659 54.1428 191.761 52.8757C192.206 47.3548 192.919 42.3009 195.011 37.1257C195.953 34.7948 195.511 40.5889 195.511 40.959C195.511 43.422 195.511 45.8849 195.511 48.3479C195.511 48.764 195.217 54.3517 195.594 51.209C195.933 48.3844 196.75 45.6716 196.928 42.8201C197.15 39.2667 196.95 35.7049 197.261 32.1534C197.309 31.6113 197.511 29.3624 197.511 31.5423C197.511 34.2183 197.511 36.8942 197.511 39.5701C197.511 41.7732 197.484 43.9783 197.511 46.1812C197.519 46.8603 197.492 48.7245 197.9 48.1812C198.609 47.2365 198.354 44.0855 198.4 43.1257C198.592 39.142 198.65 35.1556 199.011 31.1812C199.335 27.6151 199.511 29.6159 199.511 31.8757C199.511 35.582 199.099 46.4293 200.4 42.959C201.525 39.9601 200.511 35.1333 200.511 31.959C200.511 30.6812 200.511 29.4034 200.511 28.1257C200.511 26.5483 200.613 31.2838 200.817 32.8479C201.204 35.8143 201.875 38.7332 202.206 41.709C202.431 43.7412 202.189 46.0978 202.789 48.0701C203.345 49.8968 203.511 44.0947 203.511 43.5146C203.511 42.3434 203.481 35.3691 203.511 39.959C203.542 44.7208 203.698 49.4794 203.9 54.2368C203.979 56.0955 203.731 58.9094 204.761 60.6257C205.986 62.6674 206.011 55.2983 206.011 55.2923C206.011 54.2365 205.87 41.4002 204.789 41.709C203.384 42.1103 206.008 54.7013 206.261 55.8201C206.498 56.8674 206.837 60.1772 208.011 60.8479C209.345 61.6102 209.004 57.8845 209.011 56.3479C209.062 45.4217 209.671 34.23 208.622 23.3479C208.263 19.6215 208.829 30.834 209.067 34.5701C209.102 35.1235 209.778 40.459 210.761 40.459C211.31 40.459 211.018 29.0444 211.011 28.0701C210.998 26.2292 210.985 24.3287 210.622 22.5146C210.105 19.9302 210.825 27.788 211.15 30.4034C212.051 37.66 213.332 44.865 214.4 52.0979C214.515 52.8766 214.598 58.7383 216.011 59.4034C216.791 59.7703 216.446 57.7083 216.4 56.8479C216.15 52.1405 216.04 47.4519 216.011 42.7368C215.98 37.5619 215.85 32.4061 215.622 27.2368C215.421 22.6772 216.254 31.164 216.317 31.5979C216.816 35.0546 217.595 38.4612 218.178 41.9034C218.329 42.7982 218.301 44.1499 218.789 44.9868C219.771 46.6703 219.049 39.3908 218.9 38.7368C217.893 34.3303 217.91 34.0503 218.233 39.4034C218.576 45.0852 218.784 50.7931 219.344 56.459C219.575 58.7919 219.233 64.7088 220.789 66.709C221.352 67.4333 221.516 58.5009 221.511 57.9034C221.453 51.2488 220.011 44.6293 220.011 38.0423C220.011 33.5873 221.141 46.8807 221.761 51.2923C221.791 51.5031 223.453 56.6294 223.511 54.2923C223.635 49.3359 223.511 44.3613 223.511 39.4034C223.511 34.2542 223.821 39.0124 224.567 41.4034C225.762 45.2389 227.511 49.514 227.511 53.5979C227.511 54.8406 227.97 51.1455 228.011 49.9034C228.091 47.4975 229.202 40.4044 227.511 38.5146C225.252 35.9893 221.971 37.2058 218.983 36.459C217.29 36.0356 216.493 35.0146 214.567 35.0146C213.548 35.0146 212.53 35.0146 211.511 35.0146C208.335 35.0146 205.511 33.8746 205.511 37.7646C205.511 39.3444 205.956 42.2544 206.011 38.9034C206.034 37.5142 205.089 32.6544 206.567 35.2923C206.853 35.8032 209.919 39.4882 209.15 37.1812C208.428 35.0163 205.728 31.7911 204.122 30.1257C203.221 29.1908 202.927 29.9718 201.9 30.0146C200.502 30.0728 204.75 30.0146 205.233 30.0146C211.253 30.0146 217.403 29.5146 223.511 29.5146C225.34 29.5146 227.276 32.6375 228.761 33.7923C230.195 34.9077 230.511 36.8429 230.511 38.5146C230.511 42.0917 232.358 52.9435 228.733 55.0146C226.94 56.0392 226.976 58.6788 225.789 60.0146C225.184 60.6949 224.813 61.0511 223.9 61.0146C222.207 60.9469 223.904 57.8372 223.983 56.7646C224.126 54.8322 224.755 50.6365 223.9 48.7368C222.376 45.3507 222.791 40.3501 220.039 37.5979C217.377 34.9359 214.588 41.1167 214.233 42.7923C214.015 43.8243 213.402 47.4438 214.122 48.4034C214.268 48.5974 209.303 44.715 207.928 43.9868C207.46 43.7391 207.511 48.8908 207.511 49.5701C207.511 51.8397 206.262 45.1307 205.011 43.2368C204.4 42.312 202.312 40.5213 201.317 42.0701C200.013 44.0972 200.397 40.7881 199.678 39.7923C198.927 38.7535 197.291 37.4646 196.011 37.1257C194.823 36.8113 193.948 37.333 193.289 36.0146C192.19 33.8174 193.099 30.0088 193.011 27.6257C192.96 26.254 189.062 25.0146 187.733 25.0146C184.532 25.0146 179.685 27.7547 177.733 30.2646C174.463 34.4689 176.011 42.6887 176.011 47.7646C176.011 50.2309 177.602 52.3159 179.622 53.7923C183.742 56.803 182.511 48.7333 182.511 46.2368C182.511 41.7917 181.68 35.8872 184.122 31.8479C185.172 30.1108 185.002 38.9514 184.983 39.6257C184.948 40.9053 184.588 45.9319 184.594 45.9034C185.234 43.0251 185.714 40.1156 186.344 37.2368C187.105 33.7638 189.058 30.3967 189.511 26.9034C189.827 24.4629 194.678 23.9798 197.039 24.5701C198.687 24.9821 199.115 26.0146 201.011 26.0146C203.357 26.0146 204.776 26.6842 206.233 28.5701C207.357 30.0248 207.723 35.0089 206.872 36.6257C206.007 38.2701 200.327 37.5482 198.789 37.4034C195.424 37.0868 195.384 36.7714 194.511 39.9034C193.988 41.7811 193.206 43.5628 192.261 45.2646C191.825 46.0499 192.137 46.8894 191.983 47.7368C191.81 48.69 189.548 50.4536 188.9 51.2368C187.721 52.663 186.431 54.1009 185.539 55.7368C185.293 56.1872 185.401 57.4025 185.4 57.4034C184.504 58.4116 181.899 57.645 181.539 59.2646C181.318 60.2591 181.619 60.3687 180.511 60.7646C177.984 61.667 182.69 58.9422 183.289 58.7368C192.496 55.5776 201.63 55.723 211.178 56.4868C213.283 56.6552 215.205 57.2726 217.261 57.7368C218.686 58.0584 220.218 57.719 221.511 58.4034C223.961 59.7005 226.326 62.0198 228.511 63.7368C230.935 65.6413 226.039 65.0715 225.122 62.9034C224.217 60.7628 220.381 60.9494 218.511 60.0146" stroke="black" stroke-width="3" stroke-linecap="round"/>
<path d="M173.511 60.5145C171.428 62.5977 169.5 64.6867 167.733 67.0423C166.826 68.2526 164.949 69.6733 164.483 71.0701C161.91 78.7897 161.511 86.0334 161.511 94.1534C161.511 94.7327 161.719 99.2476 161.4 97.2923C160.964 94.6217 160.867 92.1667 161.511 89.5145C162.555 85.2187 162.749 80.0332 165.511 76.4034C168.274 72.773 170.721 68.2878 174.261 65.2923C175.347 64.3736 176.125 63.2271 177.233 62.3201C178.359 61.3994 179.987 61.1639 181.206 60.3201C181.636 60.0219 182.716 58.5145 181.511 58.5145C179.776 58.5145 177.515 60.0608 176.011 60.7923C174.686 61.4368 173.212 61.5359 172.122 62.6256C170.252 64.4964 168.594 66.6182 166.733 68.5145C163.624 71.6833 160.511 78.0926 160.511 82.5145C160.511 84.6372 159.511 86.4311 159.511 88.5423C159.511 90.7093 159.597 92.8675 159.261 95.0145C158.552 99.5528 159.511 113.386 159.511 108.792C159.511 100.203 159.006 92.7387 160.9 84.1812C161.518 81.388 162.853 78.8398 163.511 76.0423C163.957 74.1492 164.914 70.5255 166.15 69.0423C167.884 66.9613 170.673 65.6457 173.122 64.709C176.928 63.254 180.375 61.0505 184.233 59.7645C186.753 58.9248 189.88 58.6058 192.039 56.9867C195.319 54.527 201.468 55.0145 205.261 55.0145C207.81 55.0145 209.053 55.2739 211.261 56.3201C212.376 56.8481 213.087 57.8596 214.289 58.2923C214.949 58.5298 215.647 58.4233 216.261 58.7645C217.551 59.4808 218.85 60.2514 220.122 61.0145C222.118 62.212 223.365 64.0303 225.456 65.1256C231.089 68.0762 235.07 72.2674 238.122 77.9034C239.914 81.2114 239.011 86.1273 239.011 89.7367C239.011 93.496 238.739 104.762 239.039 101.015C239.498 95.2788 241.425 88.3714 239.011 82.8201C238.02 80.5406 236.627 78.5609 235.4 76.4034C233.83 73.6425 233.396 70.3615 232.011 67.5145C231.328 66.1098 226.409 62.915 229.011 61.1256C232.113 58.993 235.197 67.2657 236.595 69.2923C238.199 71.6188 240.292 73.1085 241.011 75.9867C241.561 78.1863 241.511 80.265 241.511 82.5423C241.511 84.8664 241.511 87.1904 241.511 89.5145C241.511 91.0265 242.099 93.8955 241.4 95.2923C241.177 95.7379 241.334 91.6291 241.4 91.1256C242.062 86.0803 241.386 80.1264 239.511 75.459C237.272 69.8839 233.688 64.3292 229.206 60.4312C225.808 57.4764 223.969 49.3349 218.817 48.5423C214.074 47.8126 209.264 48.7285 205.011 50.7367C202.119 52.1023 198.106 51.5145 194.9 51.5145C192.558 51.5145 190.485 51.7917 188.4 52.6256C185.633 53.7327 184.584 54.4414 182.511 56.5145" stroke="black" stroke-width="3" stroke-linecap="round"/>
<path d="M230.511 74.0147C228.326 73.9776 226.915 73.305 224.9 72.5424C222.559 71.6568 220.101 71.0233 217.761 70.0702C216.165 69.4198 214.717 67.7536 213.289 66.7646C211.972 65.853 210.96 64.4462 209.761 63.3758C208.771 62.492 207.412 61.2362 206.956 59.9591C206.857 59.6827 206.761 59.4357 206.761 59.1396C206.761 58.6758 206.321 58.798 206.594 59.3063C208.101 62.1047 211.184 63.7576 214.039 64.7091C216.543 65.5436 218.824 67.2752 221.372 67.9035C222.914 68.2836 225.267 67.4699 226.636 68.4174C227.92 69.3062 228.916 70.2077 230.567 70.2646C231.401 70.2934 232.065 70.7117 232.608 71.3758C233.022 71.8815 232.003 71.7646 231.775 71.7646C229.414 71.7646 227.053 71.7646 224.692 71.7646C222.91 71.7646 222.093 71.0334 220.733 69.9313C218.671 68.2598 215.764 68.1457 214.011 66.1535C212.948 64.9457 211.725 64.0444 210.706 62.7646C209.899 61.7516 209.532 60.6074 209.206 59.3758C208.698 57.4574 211.792 61.2045 212.289 61.598C214.6 63.4279 217.942 64.573 220.761 65.4591C221.316 65.6334 221.527 65.9828 221.914 66.4035C222.805 67.3721 223.901 67.9703 224.942 68.7508C226.142 69.6512 227.016 71.297 228.108 72.3896C228.724 73.005 229.808 72.7755 230.706 72.9591C231.66 73.1543 232.735 73.4865 233.622 73.8897C234.723 74.3902 233.88 73.9956 232.872 74.0147C232.183 74.0277 231.536 74.2647 230.844 74.2647C229.463 74.2647 228.638 73.5074 227.456 72.8758C224.59 71.3443 222.298 70.0791 220.011 67.7924C218.184 65.9655 215.719 65.0113 213.539 63.7091C212.117 62.8598 210.695 62.198 209.511 61.0146C209.013 60.5166 208.138 59.3701 207.719 59.1258C207.15 58.7935 206.726 58.3409 206.261 57.8758C205.68 57.2948 205.176 57.9323 204.511 58.2646C203.143 58.9485 201.894 59.7209 200.761 60.7508C200.168 61.2897 199.65 61.8144 199.108 62.4035C197.977 63.6335 196.333 64.0721 194.872 64.7924C192.516 65.9542 190.141 67.0787 188.317 69.0146C187.233 70.1644 185.769 69.9245 184.497 70.6396C182.58 71.7178 180.009 71.253 177.928 71.2646C176.203 71.2743 174.509 71.5146 172.789 71.5146C171.212 71.5146 169.617 71.4156 168.108 71.7508C167.64 71.8548 167.722 71.7646 168.289 71.7646C172.037 71.7646 175.799 71.8437 179.539 71.5424C185.115 71.0933 191.314 70.3824 196.275 67.5841C197.362 66.9712 198.242 66.101 199.344 65.5146C200.269 65.0231 201.3 64.7165 202.164 64.1119C203.604 63.1037 205.847 60.7831 205.997 58.9035C206.062 58.0887 205.854 57.5064 205.761 56.7646C205.717 56.4146 205.278 56.984 205.192 57.0563C204.035 58.0204 202.757 58.9271 201.497 59.7508C199.173 61.2703 196.838 63.3015 194.289 64.4035C191.513 65.6034 188.509 65.2077 185.706 66.0702C183.306 66.8086 180.675 66.4559 178.206 66.8202C176.933 67.008 175 67.2974 174.15 68.3896C173.802 68.8377 173.004 68.9869 172.414 68.7508C172.225 68.675 173.812 68.1352 173.872 68.1258C178.179 67.4439 182.609 67.7014 186.928 67.0424C189.827 66.6 192.303 65.5359 194.844 64.1396C196.879 63.022 198.445 61.2861 200.469 60.1258C202.084 59.2005 204.149 58.5007 205.456 57.1258C205.608 56.9653 205.936 56.5324 205.511 56.5146C203.708 56.4395 201.974 56.9959 200.289 57.5702C198.157 58.2966 195.493 58.9796 193.761 60.5146C192.794 61.3722 191.921 62.3269 191.011 63.2369C190.756 63.4925 190.279 63.5776 190.067 63.8202C189.025 65.0109 193.037 62.7294 194.511 62.1535C198.005 60.7883 201.635 59.8631 205.15 58.5702C205.781 58.3381 207.559 57.5424 206.886 57.5424C206.748 57.5424 206.738 57.8044 206.706 57.8758C206.447 58.4378 205.916 58.8004 205.456 59.1813C203.11 61.1207 201.254 62.5371 198.275 63.4869C193.299 65.0735 188.602 67.6199 183.289 68.0285C182.65 68.0777 181.325 69.0195 180.761 68.7091C179.953 68.2647 179.561 67.8511 178.567 67.7091C178.419 67.6881 176.992 67.5146 177.317 67.5146C178.717 67.5146 179.353 66.8256 180.122 65.6258C181.149 64.0237 181.284 62.385 179.15 63.7508C178.825 63.9588 177.637 64.8479 178.761 64.7646C179.783 64.689 181.483 64.4406 182.094 63.5146C182.316 63.1791 182.24 62.7404 182.469 62.4035C182.844 61.8534 183.471 61.8053 184.011 61.5146" stroke="black" stroke-width="3" stroke-linecap="round"/>
</svg>
