<svg width="401" height="132" viewBox="0 0 401 132" fill="none" xmlns="http://www.w3.org/2000/svg">
<path d="M194.697 106.363C186.165 105.039 177.373 102.831 176.752 92.5849C176.562 89.4418 177.997 74.5351 183.919 76.5849C188.733 78.2515 190.345 83.4933 186.697 87.3627C178.105 96.4752 166.487 73.7949 172.808 67.4738C183.778 56.503 179.619 99.7823 173.197 74.8071C171.243 67.2112 170.715 63.7687 178.697 60.1405C181.692 58.7787 183.208 61.8498 180.697 63.9182C178.653 65.6015 175.629 45.1883 176.308 42.4738C177.485 37.7664 186.958 32.8466 191.085 36.9738C192.691 38.5795 191.844 50.1448 189.919 45.2516C186.249 35.9245 190.613 24.3117 199.252 19.5849C206.599 15.5649 203.697 33.4478 203.697 37.2516C203.697 38.9525 201.112 27.9615 204.03 26.5849C211.561 23.0324 220.953 28.5501 221.53 36.9182C221.62 38.2215 221.288 43.2516 219.197 43.2516C216.492 43.2516 218.136 34.4647 218.363 33.3071C218.978 30.1795 220.806 22.7232 225.252 22.8071C229.89 22.8946 229.64 34.8716 229.697 37.696C229.775 41.5652 229.908 51.6935 222.919 50.1405C217.677 48.9755 227.256 46.0267 229.53 48.5849C232.359 51.7672 227.26 66.8838 223.197 64.696C221.587 63.8293 218.578 59.4115 218.974 61.196C219.73 64.5972 222.679 68.3589 224.085 71.6405C226.439 77.1328 216.095 78.6726 216.641 83.8627C217.179 88.9758 214.265 93.9305 209.919 96.696C206.447 98.9053 202.273 95.5103 208.474 95.3627C214.314 95.2236 211.255 103.029 209.197 106.196C206.981 109.605 202.697 106.407 202.697 109.363C202.697 116.357 189.943 111.113 190.697 104.585C191.226 99.996 202.448 102.167 200.474 104.14C198.087 106.528 192.192 98.8503 191.697 97.3627" stroke="black" stroke-width="3" stroke-linecap="round"/>
</svg>
