<svg width="401" height="132" viewBox="0 0 401 132" fill="none" xmlns="http://www.w3.org/2000/svg">
<path d="M131.5 65.3428C127.263 62.1025 123.397 56.1694 121.111 51.3428C119.756 48.4811 125.547 49.7526 127.528 49.5928C136.454 48.8729 145.398 49.8428 154.333 49.8428C184.949 49.8428 215.531 50.3428 246.111 50.3428C256.345 50.3428 266.515 50.8428 276.75 50.8428C280.353 50.8428 292.5 49.2892 292.5 54.5928C292.5 57.6761 292.5 60.7595 292.5 63.8428C292.5 65.3222 293.104 67.6436 292.389 65.2317C291.933 63.6943 291.154 60.3984 289.278 59.9539C283.77 58.6496 276.589 59.8428 271.056 59.8428C254.38 59.8428 237.704 59.8428 221.028 59.8428C214.889 59.8428 208.75 59.8428 202.611 59.8428C202.111 59.8428 200.611 59.8428 201.111 59.8428C205.593 59.8428 210.074 59.8428 214.556 59.8428C225.692 59.8428 237.366 58.8128 248.472 59.8706C258.854 60.8593 227.622 60.466 217.194 60.5928C191.806 60.9017 166.38 60.3134 141 60.9539C139.347 60.9956 134.403 61.3166 136.056 61.3428C140.145 61.4077 144.244 61.3428 148.333 61.3428C164.602 61.3428 180.87 61.3428 197.139 61.3428C198.426 61.3428 202.287 61.3428 201 61.3428C197.833 61.3428 194.667 61.3428 191.5 61.3428C177.889 61.3428 164.278 61.3428 150.667 61.3428C148.901 61.3428 143.998 60.5602 142.111 61.4539C141.729 61.6347 142.697 62.1489 143.111 62.2317C144.781 62.5656 146.635 62.3428 148.333 62.3428C150.816 62.3428 143.336 62.171 140.889 62.5928C137.163 63.2352 135.514 60.1607 132.806 57.9539C128.491 54.4385 134.728 60.1983 136 61.2317C137.722 62.6311 131.559 59.6725 131.361 59.5928C128.82 58.5703 126.099 57.8973 123.667 56.6206C123.021 56.2815 121.417 55.0461 121.667 55.7317C122.252 57.3407 124.712 59.1462 126 60.2317C126.177 60.3806 129.04 62.3605 127.611 61.7317C125.785 60.9282 124.694 56.7925 123.75 55.0928C123.231 54.1591 130.674 58.9224 131.389 57.7317C131.757 57.1189 125.961 54.3428 126.056 54.3428C131.482 54.3428 136.874 54.2291 142.278 54.7317C148.334 55.2951 141.622 54.3428 139.5 54.3428" stroke="black" stroke-width="3" stroke-linecap="round"/>
<path d="M125.5 52.8428C143.398 52.8428 161.296 52.8428 179.195 52.8428C180.488 52.8428 183.391 52.2483 184.5 52.9539C186.609 54.2961 179.5 52.9052 177 52.8705C168.188 52.7481 159.369 52.8428 150.556 52.8428C146.66 52.8428 141.407 53.8049 137.528 52.5928C135.955 52.1013 131.782 52.1775 135.389 53.565C137.715 54.4597 140.286 54.7015 142.75 54.7872C152.925 55.1411 163.155 54.8428 173.333 54.8428C182.63 54.8428 191.926 54.8428 201.222 54.8428C207.537 54.8428 226.482 54.8428 220.167 54.8428C201.851 54.8428 146.908 55.1578 165.222 55.3428C172.146 55.4127 192.816 57.3679 185.972 56.315C180.187 55.4249 173.975 55.852 168.167 55.9539C156.391 56.1605 144.629 56.8565 132.861 57.315C130.731 57.398 128.467 57.3471 126.361 57.815C124.617 58.2026 129.935 57.8428 131.722 57.8428C140.056 57.8428 148.389 57.8428 156.722 57.8428C159.537 57.8428 167.953 57.4447 165.167 57.8428C155.794 59.1817 146.337 59.3583 136.889 59.8428C134.785 59.9507 128.804 60.3597 130.722 61.2316C132.533 62.0546 136.235 61.3428 138.139 61.3428C147.187 61.3428 174.326 60.8428 165.278 60.8428C157.034 60.8428 148.733 60.5262 140.5 60.9539C140.216 60.9686 133.227 60.9989 135.722 62.3428C139.826 64.5522 147.136 63.3319 151.5 63.3428C160.537 63.3651 169.574 63.3428 178.611 63.3428C179.843 63.3428 181.074 63.3428 182.306 63.3428C182.445 63.3428 182.028 63.3428 181.889 63.3428C175.628 63.3428 169.37 63.3462 163.111 63.565C147.234 64.1199 99.6997 65.7406 115.556 66.7316C122.427 67.1611 129.399 66.8428 136.278 66.8428C154.769 66.8428 173.259 66.8428 191.75 66.8428C212.926 66.8428 276.454 66.8428 255.278 66.8428C237.333 66.8428 219.389 66.8428 201.445 66.8428C193.389 66.8428 185.333 66.8428 177.278 66.8428C173.315 66.8428 185.204 66.8428 189.167 66.8428C212.552 66.8428 236.019 66.9896 259.361 65.3705C261.48 65.2236 267.756 64.8338 265.667 64.4539C259.818 63.3905 252.981 64.379 247.083 64.2872C235.682 64.1097 224.29 63.5765 212.889 63.3983C208.54 63.3304 206.557 63.3428 202.5 63.3428C202.052 63.3428 198.943 63.0378 198.111 63.4539C195.732 64.6437 203.423 63.8428 206.083 63.8428C215.153 63.8428 224.213 63.7511 233.278 63.4539C235.165 63.392 237.767 63.3428 234.611 63.3428C223.778 63.3428 212.945 63.3428 202.111 63.3428C186.333 63.3428 170.556 63.3428 154.778 63.3428C152.611 63.3428 150.445 63.3428 148.278 63.3428C145.713 63.3428 153.408 63.3428 155.972 63.3428C170.277 63.3428 184.584 63.4166 198.889 63.2872C206.893 63.2148 211.493 63.1461 219.167 62.8428C221.894 62.7349 229.893 63.1797 227.333 62.2316C226.167 61.7995 224.855 61.9958 223.611 61.9539C218.689 61.7877 213.757 61.8428 208.833 61.8428C198.957 61.8428 189.096 61.6795 179.222 61.4539C175.797 61.3756 168.945 61.3428 168.945 61.3428C168.945 61.3428 180.371 61.3844 186.083 61.2872C199.432 61.06 212.757 60.4172 226.111 60.3428C228.858 60.3274 234.229 60.3423 237.278 60.2316C238.407 60.1907 241.646 60.0733 240.611 59.6205C238.338 58.6261 234.081 59.3428 231.75 59.3428C219.148 59.3428 206.546 59.3428 193.945 59.3428C188.127 59.3428 181.986 59.844 176.167 59.315C175.086 59.2167 178.303 58.8485 179.389 58.8428C198.992 58.739 218.703 58.6925 238.278 57.5928C253.31 56.7483 208.167 57.3428 193.111 57.3428C186.732 57.3428 180.352 57.3428 173.972 57.3428C173.463 57.3428 172.954 57.3428 172.445 57.3428C170.741 57.3428 175.852 57.3428 177.556 57.3428C204.594 57.3428 231.583 55.8428 258.611 55.8428C285.03 55.8428 152.942 54.8428 179.361 54.8428C196.807 54.8428 214.228 54.4585 231.667 53.9539C233.199 53.9095 237.77 53.7876 236.25 53.5928C229.353 52.7085 222.036 53.3428 215.111 53.3428C203.833 53.3428 192.556 53.3428 181.278 53.3428C180.71 53.3428 180.313 53.567 179.778 53.7316C177.353 54.4778 184.852 53.8428 187.389 53.8428C205.232 53.8428 223.061 53.3428 240.889 53.3428C251.796 53.3428 262.704 53.3428 273.611 53.3428C277.463 53.3428 281.315 53.3428 285.167 53.3428C286.473 53.3428 286.5 53.5064 286.5 54.8428C286.5 55.5551 287 58.9652 287 58.2316C287 55.5812 287.899 56.8871 288.972 58.565C290.188 60.4638 291.076 60.97 290.222 58.2872C289.507 56.0399 289 54.3364 289 57.5928C289 58.921 289.1 59.9233 289.75 61.0928C291.006 63.3534 281.175 62.3428 279.5 62.3428C279.327 62.3428 275.769 62.6042 277.306 63.2872C278.064 63.6242 279.473 63.3428 280.278 63.3428C280.593 63.3428 273.132 63.3428 272.389 63.3428C265.493 63.3428 258.59 63.2516 251.695 63.3705C249.811 63.403 244.338 64.5046 246.056 63.7316C250.143 61.8925 256.327 62.3045 260.667 61.8705C263.296 61.6076 271.052 60.769 268.445 60.3428C261.2 59.1586 253.278 59.7488 246 59.5094C233.644 59.103 221.283 58.3428 208.917 58.3428C202.408 58.3428 212.732 58.3428 213.5 58.3428C222.778 58.3428 232.056 58.3428 241.333 58.3428C247.5 58.3428 253.667 58.3428 259.833 58.3428C261.074 58.3428 262.315 58.3428 263.556 58.3428C265.63 58.3428 259.408 58.3428 257.333 58.3428C251.815 58.3428 246.296 58.3428 240.778 58.3428C238.972 58.3428 237.167 58.3428 235.361 58.3428C232.727 58.3428 234.802 58.3463 237.306 58.315C247.734 58.1846 258.145 57.8511 268.556 57.2316C274.784 56.8611 281.076 56.6667 287.278 55.9539C287.898 55.8826 284.737 55.8428 284.167 55.8428C273.814 55.8428 263.341 55.3661 253 55.8705C242.567 56.3795 273.888 56.3428 284.333 56.3428C287.611 56.3428 294.385 56.3428 287 56.3428C282.426 56.3428 277.852 56.3428 273.278 56.3428C271.372 56.3428 268.189 56.3095 271.639 58.1205C274.22 59.4757 276.547 59.8428 279.389 59.8428C281.957 59.8428 274.242 60.4527 271.833 61.3428C270.304 61.908 270.771 63.0516 272.361 63.2872C274.264 63.5691 276.71 63.5246 278.556 63.0094C279.439 62.7628 280.274 61.8428 281.195 61.8428C311.446 61.8428 220.696 62.8428 190.445 62.8428C188.289 62.8428 186.15 62.8715 184 62.7316C178.207 62.3549 172.414 62.3428 166.611 62.3428C164.129 62.3428 161.316 62.6819 158.889 61.9539C155.919 61.0629 152.819 60.7703 149.778 60.1483C147.681 59.7195 147.832 59.3428 149.722 59.3428C151.23 59.3428 147.143 59.3428 146.778 59.3428C145.533 59.3428 137.688 58.4113 137.111 59.565C136.098 61.591 137.693 62.6598 134.778 63.7316C132.612 64.5279 130.479 64.1086 128.278 64.4539C126.171 64.7844 123.191 68.3975 121.5 64.5928C120.507 62.3594 117.135 61.2962 115.5 59.565C114.555 58.5643 112.062 57.2314 111.556 56.0928C111.229 55.3571 111.27 54.6845 110.5 54.2316C108.048 52.7895 113.36 52.7852 113.889 52.7316C116.203 52.4973 118.452 52.3428 120.778 52.3428C122.779 52.3428 120.158 51.9493 119.528 51.8705C119.04 51.8096 126.752 51.3428 118.667 51.3428C116.261 51.3428 114.097 51.3491 111.75 51.8705C108.925 52.4982 110.501 55.6552 111.389 57.3428C112.632 59.7037 114.5 61.2823 114.5 64.0928C114.5 66.5519 112.868 67.2486 111.222 64.7316C109.426 61.9847 111.766 57.6485 109.778 55.0928C109.077 54.1922 109.455 50.6297 110.111 49.8428C111.354 48.3511 117.838 49.2739 119.722 49.3705C120.16 49.393 123.865 49.7292 123.667 49.8428C121.52 51.0695 117.273 52.3394 117 55.3428C116.839 57.1117 120.255 56.805 121.222 56.9539C124.066 57.3913 123.065 56.9244 121.472 55.0928C120.319 53.7663 118.338 52.488 119.306 55.1761C119.704 56.2833 122.284 59.7503 121.889 59.0094C121.024 57.3883 117.994 53.8983 116.028 53.8983C114.348 53.8983 116.169 59.8172 116.611 60.565C116.683 60.6855 120.851 65.4906 120.778 63.5094C120.731 62.2566 116.593 56.4995 115.611 57.4816C112.707 60.3863 125.129 64.1003 125.972 64.2594C133.792 65.7349 118.79 57.1516 119 58.3428C119.205 59.5023 122.355 61.319 121.389 63.0094C120.686 64.2405 112.203 60.9562 111.139 60.1205C110.224 59.4019 109.727 58.4005 108.611 57.8428C106.411 56.7425 111.69 62.0508 111.778 64.5094C111.806 65.2946 107.897 61.8444 107.472 61.065C107.139 60.4532 99.67 52.3428 103.917 52.3428C106.334 52.3428 108.624 51.9559 111 51.8428C111.519 51.818 113.929 52.1034 112.778 51.2316C110.331 49.3779 107.057 48.6331 105.083 51.5928C104.453 52.5391 106.52 54.6419 107 55.2316C107.946 56.394 111.217 58.6951 108.111 56.8428C105.56 55.3212 105.368 55.0959 107.778 57.1205C110.151 59.1137 112.157 59.8428 115.222 59.8428C123.045 59.8428 130.786 59.6817 138.556 60.7316C140.04 60.9322 144.403 61.6292 142.917 61.815C140.541 62.1119 138.056 62.0892 135.667 62.2316C134.513 62.3004 129.921 61.9411 129 63.0928C128.322 63.9403 125.966 64.2976 124.945 64.3705C122.443 64.5492 119.475 65.5557 117.611 66.9539C115.03 68.89 113.169 68.1869 116.5 70.5928C123.86 75.9079 131.322 80.9554 140.639 81.8428C146.589 82.4094 152.013 83.3428 158 83.3428C163.416 83.3428 168.702 82.8428 174.139 82.8428C178.289 82.8428 183.916 81.7508 187 78.8428C189.202 76.767 193.201 76.3374 196.028 75.8428C201.47 74.8905 205.572 73.12 209.945 69.8983C210.282 69.6497 213.729 67.4463 213.389 66.8428C212.721 65.6553 210.263 65.8432 209.278 65.9539C203.512 66.6018 196.152 67.3376 191 70.3428C187.477 72.398 183.624 74.5075 179.667 75.4539C176.938 76.1065 174.292 76.3302 171.5 76.8705C168.89 77.3756 166.258 78.8428 163.611 78.8428C157.296 78.8428 150.982 78.8428 144.667 78.8428C140.508 78.8428 135.905 78.9214 132 77.3428C129.122 76.1791 127.333 75.0967 125.722 72.565C125.239 71.806 122.978 69.3202 124.611 70.9539C127.87 74.2127 130.055 77.1531 134.667 78.6205C136.539 79.2161 140.297 80.1955 137.445 77.3428C136.83 76.7284 131.621 72.8213 132.889 73.2316C140.875 75.8155 148.759 76.8428 157.167 76.8428C162.985 76.8428 152.85 74.1283 151.722 73.9539C145.084 72.9269 138.257 72.7137 131.556 72.3983C130.601 72.3534 127.979 72.2412 128.722 72.8428C130.99 74.6784 137.573 73.7912 139.972 73.8428C148.232 74.0204 156.573 74.5711 164.833 74.2316C166.742 74.1532 171.482 74.6689 170.445 73.065C169.532 71.6549 158.166 72.8428 157.028 72.8428C150.085 72.8428 129.36 72.787 136.222 73.8428C142.111 74.7487 148.728 74.29 154.583 74.2594C162.898 74.216 170.381 74.0856 178.695 73.7872C182.747 73.6417 190.951 74.1296 195.333 72.4539C197.117 71.7721 191.548 71.8428 189.639 71.8428C181.908 71.8428 174.176 71.8248 166.445 71.8428C161.164 71.855 155.821 71.7242 150.556 72.2316C148.002 72.4777 155.685 72.3428 158.25 72.3428C174.122 72.3428 189.97 72.0616 205.833 71.565C209.857 71.439 221.874 71.4398 217.889 70.8705C215.863 70.5811 213.511 70.8428 211.5 70.8428C198.259 70.8428 185.019 70.565 171.778 70.565C165.207 70.565 159.148 70.6328 152.611 70.7316C149.219 70.7829 144.222 70.2367 140.778 71.1483C140.193 71.3032 141.847 71.7749 142.445 71.8705C147.901 72.7435 153.545 72.9622 159.056 73.1205C169.2 73.412 179.285 72.7891 189.389 71.9539C191.162 71.8073 198.018 71.1992 200.278 70.9539C201.65 70.805 203.649 71.3188 204.333 70.1205C205.671 67.7795 199.412 72.3343 197.028 73.5928C196.867 73.6778 192.445 75.7306 193.111 74.8428C193.666 74.1026 203.011 71.5754 203.056 71.6761C204.029 73.8652 191.993 77.6469 189.472 77.815C185.453 78.0829 182.179 79.4062 178.111 79.7316C173.514 80.0994 169.781 81.8428 165 81.8428C162.902 81.8428 160.912 81.8003 158.833 81.4539C157.475 81.2275 156.336 80.5308 154.945 80.3983C149.008 79.8329 157.927 80.2537 159 80.2316C165.957 80.0887 173.33 80.5144 180.222 79.3428C181.269 79.1648 182.199 78.8428 183.278 78.8428C185.375 78.8428 189.158 77.8851 189.472 75.3705C189.733 73.2837 188.415 73.9634 187.111 75.065C186.255 75.788 185.665 76.9654 184.722 77.565C184.258 77.8606 182.17 78.0427 184.611 77.6205C191.336 76.4576 197.544 73.7579 203.778 71.1205C205.228 70.5069 206.604 70.03 208.278 69.8705C210.599 69.6495 212.235 68.8974 214.389 68.065C215.631 67.5851 217.052 67.6777 218.111 66.7316C220.325 64.7552 222.066 63.2935 224.972 64.565C228.85 66.2616 222.224 69.3237 220.278 69.8428C219.116 70.1526 218.361 70.5293 217.5 71.3428C216.29 72.4854 214.546 72.055 213.111 72.565C209.393 73.887 205.673 75.1366 202 76.565C199.841 77.4047 196.205 77.742 193.889 77.8428C189.892 78.0165 186.375 79.3428 182.25 79.3428C181.218 79.3428 177.462 79.9975 176.611 79.2316C175.13 77.8987 178.887 76.8701 179.278 76.7316C184.682 74.8161 190.401 73.765 195.639 71.3705C199.064 69.8047 202.765 70.1367 206.139 68.7872C207.839 68.1073 209.089 66.756 210.611 65.8428C213.266 64.2497 217.068 64.7878 220 64.2316C221.116 64.0199 221.979 63.3914 223 62.9539C225.772 61.7658 229.094 61.628 232.056 61.3705C236.392 60.9935 241.214 61.5542 245.445 60.5928C248.368 59.9284 251.577 60.4336 254.556 60.2316C256.195 60.1205 259.249 60.3618 260.611 59.4539C261.755 58.6911 265.127 59.3428 266.472 59.3428C268.056 59.3428 269.639 59.3428 271.222 59.3428C276.201 59.3428 281.19 59.2243 286.167 59.3428C287.943 59.385 286.746 61.3009 285.611 61.5928C285.253 61.6849 280.136 62.8428 281.778 62.8428C282.212 62.8428 283.81 62.9971 283.611 62.7316C283.463 62.5338 284.727 61.8588 285 61.8428C285.669 61.8034 287.05 62.1553 287.5 61.5928C288.279 60.6197 286.714 60.0544 286.278 58.7872C285.529 56.6092 285.822 52.8582 287.278 56.8428C287.808 58.2937 288.5 59.6442 288.5 61.1761C288.5 61.2463 288.287 64.9071 287.111 63.7316C286.687 63.3071 287 61.4649 287 60.8428" stroke="black" stroke-width="3" stroke-linecap="round"/>
<path d="M296.5 56.8428V67.3428" stroke="black" stroke-width="3" stroke-linecap="round"/>
<path d="M302 60.3428C302 61.5049 302.102 66.7917 301 67.3428" stroke="black" stroke-width="3" stroke-linecap="round"/>
<path d="M104 62.3428C104.683 63.989 106.131 64.9688 107.056 66.4817C107.322 66.9174 108.976 67.7864 107.75 68.0928" stroke="black" stroke-width="3" stroke-linecap="round"/>
<path d="M98 64.0928C98.9309 65.2154 99.9608 66.2597 100.875 67.3567C101.251 67.8076 102 68.7566 102 69.3428" stroke="black" stroke-width="3" stroke-linecap="round"/>
</svg>
