<svg width="401" height="131" viewBox="0 0 401 131" fill="none" xmlns="http://www.w3.org/2000/svg">
<path d="M166.907 43.2261C162.149 43.2261 153.162 42.0332 151.768 48.2261C151.139 51.0227 153.125 52.1638 155.324 53.1983C156.655 53.825 158.559 53.6937 156.574 52.2261C152.252 49.032 148.133 52.1023 146.713 56.2539C146.105 58.0306 145.468 60.7944 146.213 62.615C147.056 64.6756 148.45 62.9638 146.24 65.3372C141.66 70.2567 153.834 74.3967 157.351 73.615C159.19 73.2064 160.796 70.8967 160.796 69.0317C160.796 68.3478 160.453 67.7144 159.796 67.4483C157.676 66.5902 158.073 69.728 158.185 70.7817C158.605 74.7457 158.513 81.0335 163.296 81.3372C167.831 81.6251 174.46 82.7358 176.074 77.2817C177.121 73.7413 177.386 69.0484 173.629 67.0594C171.367 65.8618 173.632 68.7551 174.963 69.2539C179.41 70.9215 205.888 75.2058 201.185 63.4483C199.176 58.4263 194.856 62.2798 198.99 66.1705C200.704 67.783 210.566 70.7261 208.185 65.3372C206.817 62.2416 205.421 66.4262 205.518 67.7817C205.826 72.0853 209.419 75.3804 213.74 75.5039C216.001 75.5685 218.238 73.4554 219.463 71.7261C221.617 68.6849 219.295 65.2406 216.629 63.5039C210.263 59.3563 200.976 59.7817 193.713 59.7817C192.426 59.7817 189.515 59.5121 188.129 60.2261C187.922 60.3329 187.921 60.9172 187.907 60.7817C187.655 58.2644 186.271 55.2198 184.24 53.6705C181.429 51.5253 177.461 51.1555 174.101 50.865C166.251 50.186 157.885 50.2838 150.185 52.115C147.36 52.7867 144.133 53.6924 143.851 57.115C143.619 59.9342 144.859 63.6658 147.296 65.2817C149.06 66.4516 153.843 67.5183 155.268 65.3094C161.159 56.1784 136.186 55.0186 132.296 59.5039C128.994 63.3114 133.607 68.2356 137.018 69.5039C143.943 72.0785 154.65 72.7555 161.574 70.1705C167.729 67.8724 164.182 53.1887 156.851 57.2261C154.692 58.4156 154.963 63.5302 155.99 65.3928C156.116 65.6207 158.498 68.1357 158.796 67.0039C159.353 64.8854 153.689 64.0392 152.74 63.9483C148.853 63.5759 145.264 64.0649 143.713 68.0039C142.585 70.8649 142.436 75.912 147.129 75.115C151.925 74.3007 146.92 68.9226 142.99 70.3094C137.827 72.1319 142.356 78.1057 146.49 77.6705C148.953 77.4113 153.043 76.6918 154.685 74.6705C156.203 72.8015 155.149 70.7189 152.796 71.0594C146.085 72.0307 149.001 85.115 154.851 85.115C156.99 85.115 158.981 81.3775 159.518 79.8094C160.651 76.5022 161.143 70.3101 157.518 68.1705C153.637 65.8801 150.32 74.7693 153.796 77.0039C157.39 79.3143 164.032 72.4429 164.324 69.0872C164.502 67.0368 156.858 69.4258 155.963 69.7539C154.959 70.1214 152.375 71.1809 153.351 71.615C156.497 73.0131 164.847 67.2979 166.907 65.7817C171.487 62.4099 177.668 54.075 175.018 47.7817C174.759 47.1667 174.071 47.1423 173.574 47.4205C171.431 48.6202 171.255 51.9207 171.407 54.0317C171.612 56.8715 173.557 64.322 177.907 62.8928C181.212 61.8067 181.113 58.2321 180.824 55.3372C179.99 47.0027 165.289 53.9785 173.074 61.9483C178.696 67.7042 195.975 67.6824 195.185 56.4205C194.671 49.1055 183.295 48.2106 178.074 47.9205C170.576 47.504 157.436 49.6068 158.74 60.2261C159.654 67.663 171.996 67.4896 177.157 66.8094C187.311 65.4714 193.739 59.0722 194.963 48.7817C195.987 40.1607 184.568 39.2547 178.407 38.9483C170.458 38.5531 159.243 39.2711 160.935 49.9205C162.335 58.732 174.737 60.5292 181.935 61.5039C187.329 62.2344 192.863 62.2638 198.296 62.115C202.621 61.9965 208.815 62.1741 212.351 59.0594C217.085 54.8904 216.428 44.7228 210.351 42.1705C205.818 40.2665 193.849 38.6529 192.407 45.2539C189.891 56.7736 201.799 63.8949 211.24 58.365C213.001 57.3338 216.58 53.9621 214.824 51.5039C211.999 47.5493 203.317 49.0972 200.574 52.2261C192.424 61.5213 208.247 65.3142 214.851 63.3094C218.261 62.2743 220.788 58.8849 219.963 55.3094C218.161 47.5023 209.362 43.6967 201.963 44.1705C189.104 44.994 201.094 60.3969 207.24 54.1705C210.064 51.3102 210.938 47.8927 208.629 44.3928C205.061 38.9841 198.212 37.32 192.24 39.5594C189.858 40.4529 187.969 42.1145 191.213 43.1705C194.251 44.1597 196.524 43.4746 197.796 40.3928C198.709 38.1803 199.918 34.746 199.074 32.3372C198.099 29.5589 195.226 29.1996 194.463 32.1983C192.53 39.7897 203.99 48.9479 210.796 49.3928C214.192 49.6147 214.904 45.5987 213.907 43.1705C209.72 32.9765 182.857 35.7427 191.407 49.115C194.519 53.9831 202.874 54.7014 208.074 54.0039C215.477 53.0107 219.649 46.9066 219.768 39.8094C219.836 35.7563 220.334 27.6767 215.351 26.2817C209.038 24.5138 210.132 34.9156 210.963 38.5594C211.87 42.5394 215.115 45.8797 219.324 46.1428C223.498 46.4036 223.772 40.8944 223.796 38.0039C223.817 35.4467 223.015 23.9112 217.851 25.1705C211.557 26.7058 214.901 41.5519 216.601 45.0039C217.982 47.8056 225.079 56.5657 229.296 54.7817C231.489 53.8539 231.277 50.0366 230.407 48.3928C229.584 46.8383 226.702 45.8492 225.518 47.5594C223.456 50.5376 224.22 56.7358 226.907 59.0872C228.158 60.1821 231.465 61.7776 232.518 59.6705C235.145 54.4175 229.145 52.437 224.879 51.7261C218.879 50.726 204.769 48.7591 203.74 57.5872C202.978 64.1304 207.165 67.7991 213.129 69.0039C218.453 70.0793 219.017 60.3915 214.74 59.365C212.903 58.924 210.843 75.4026 217.129 76.7261C220.504 77.4366 224.177 75.1163 225.601 72.1428C226.061 71.184 227.777 65.638 224.907 65.9483C221.119 66.3578 220.451 83.3462 227.518 81.2261C231.762 79.953 233.663 75.1448 233.768 71.115C233.802 69.7943 233.817 67.922 232.685 66.9483C232.251 66.5754 230.533 65.8418 230.129 66.6705C228.768 69.461 230.271 75.6746 231.518 78.2261C232.832 80.9149 237.54 82.9716 240.435 81.865C245.163 80.0572 245.51 73.4246 245.463 69.2261C245.375 61.43 241.576 56.6535 233.296 58.3094C228.235 59.3217 226.151 63.5498 226.963 68.3372C227.282 70.2215 228.499 72.484 230.851 71.5039C235.686 69.4893 237.28 63.0781 237.685 58.4483C238.316 51.238 236.683 47.2468 229.101 46.615C225.391 46.3058 214.759 45.2304 216.463 51.865C218.223 58.7223 227.735 62.2552 233.796 64.2261C237.659 65.4823 241.69 65.9286 242.796 61.1983C243.726 57.2182 244.522 49.4599 240.74 46.5594C237.842 44.3361 233.265 44.0071 232.24 48.2261C230.6 54.9821 232.633 66.056 238.99 69.9483C245.511 73.9405 247.926 63.3539 245.796 59.0039C245.358 58.1098 241.28 54.6813 240.407 56.2817C238.77 59.2828 239.51 65.0949 241.435 67.7261C246.972 75.2941 250.846 59.6174 251.324 56.7539C252.253 51.1802 250.064 44.445 244.435 41.9761C240.658 40.3194 240.287 47.9821 240.74 49.8928C241.875 54.6814 250.644 64.2997 252.351 55.0317C253.281 49.9869 252.793 44.8885 250.074 40.4483C247.948 36.9777 244.17 35.4201 244.018 40.7817C243.872 45.9365 250.641 49.5479 254.768 50.8928C258.173 52.0022 264.062 54.127 267.074 51.115C272.366 45.8228 257.607 41.3671 256.101 49.9483C255.543 53.1334 257.832 55.8559 260.74 56.865C262.33 57.4166 267.598 58.7851 268.685 56.7261C271.76 50.8986 259.951 43.5873 257.796 48.615C256.713 51.1427 260.27 64.4723 262.935 60.1428C269.173 50.0053 247.666 54.5062 243.851 56.9483C240.189 59.2934 239.35 65.2218 241.963 68.6705C244.29 71.7428 248.473 71.9811 251.907 71.3372C255.685 70.6289 260.813 67.551 262.324 63.8094C264.244 59.0549 256.416 58.0611 253.574 58.5594C242.137 60.5646 252.066 73.9323 258.907 75.0039C263.05 75.6527 268.498 72.5572 269.574 68.5039C272.163 58.7444 265.352 53.3696 256.601 50.8094C252.112 49.4961 237.338 46.312 237.101 54.4761C236.921 60.7088 245.286 65.3658 250.296 67.1705C253.298 68.2519 257.541 69.1948 260.629 67.8928C265.446 65.862 265.09 60.9119 260.963 58.1428C258.722 56.6397 252.171 52.5588 250.629 56.8928C249.197 60.9189 250.151 65.1763 251.879 68.8928C252.609 70.4617 253.414 72.5004 255.407 72.6428C257.242 72.7739 259.296 70.0578 258.685 68.2817C257.535 64.9415 253.218 62.2957 249.851 61.9483C243.361 61.2787 243.397 73.3525 243.49 77.365C243.746 88.3776 258.279 82.5755 264.24 80.4483C267.589 79.2534 271.413 74.9974 267.629 72.0317C264.862 69.8624 262.65 72.9625 262.129 75.7817C261.365 79.9129 261.201 85.181 262.407 89.2261C263.003 91.226 265.507 92.1053 267.018 90.3928C269.357 87.7426 271.351 83.642 271.351 80.0594C271.351 78.4638 270.016 75.4221 268.296 77.7817C267.38 79.0383 265.891 82.662 268.074 83.615C269.99 84.4518 271.632 82.5221 272.463 81.115C275.035 76.7571 273.499 72.6752 270.879 68.7817C269.801 67.1792 268.486 63.7363 266.796 64.6705C265.943 65.1419 265.841 67.985 265.907 68.7817C266.079 70.8427 270.496 73.5075 272.157 74.615C274.374 76.0931 275.708 73.4469 276.074 71.5872C276.913 67.3135 276.603 63.4632 273.463 60.2817C268.21 54.9596 267.222 68.2608 271.407 70.615C277.548 74.0692 276.726 62.5152 276.185 59.8372C275.761 57.7397 272.989 55.3955 272.213 58.5872C271.791 60.3195 271.183 64.4859 272.129 66.115C273.084 67.7585 277.907 68.0415 277.907 65.7539C277.907 64.1151 275.434 64.1896 274.24 64.0039C270.896 63.4836 270.834 65.4925 270.907 68.615C271 72.5892 273.025 75.2122 276.851 76.3928C280.115 77.3996 280.352 73.8907 280.601 71.3928C281.317 64.2348 280.035 56.7498 272.74 53.5039C269.18 51.9195 265.008 51.7238 261.185 51.5872C259.604 51.5307 254.38 50.8262 253.351 52.9761C252.481 54.797 260.471 61.7255 261.685 57.0039C262.338 54.4636 262.226 51.312 259.963 49.6705C257.232 47.6901 254.057 46.6112 250.74 46.1428C241.104 44.7816 230.809 44.7307 221.101 45.1428C217.111 45.3121 209.48 46.2492 214.518 51.3928C216.348 53.2608 219.857 55.2067 222.629 55.0039C225.108 54.8225 225.461 50.548 225.629 48.8928C226.124 44.0189 222.771 39.7948 217.574 39.4483C214.54 39.2461 218.944 45.5295 219.351 46.0039C221.856 48.9192 225.27 50.6513 228.685 52.2539C230.398 53.0576 233.307 54.7261 235.407 54.7261C238.656 54.7261 234.422 41.7217 232.518 40.2261C231.289 39.26 233.195 46.5801 236.101 44.6428C237.127 43.9589 236.171 40.8979 235.574 40.2261C233.13 37.4766 228.436 36.9666 225.046 37.5317C218.863 38.5622 228.752 45.1196 230.296 42.6705C231.884 40.1514 231.497 35.1596 231.296 32.3928C230.967 27.8678 229.608 24.3956 224.685 24.7817C217.993 25.3065 224.36 33.2324 226.018 32.0039C228.841 29.9129 227.924 24.1984 227.046 21.4483C225.448 16.4457 219.758 16.5703 215.685 18.6705C212.53 20.297 212.298 27.3404 216.685 26.1705C218.527 25.6792 218.896 23.6409 218.824 22.0039C218.665 18.4311 213.326 16.3741 210.24 17.1705C204.129 18.7477 204.435 25.2321 204.129 30.4483C203.964 33.2606 203.02 39.8655 206.851 41.1428C208.484 41.6869 208.684 38.9543 208.796 37.9483C209.284 33.5534 206.202 31.4579 202.213 30.5594C197.155 29.4204 185.138 27.7091 184.324 35.365C183.812 40.1713 187.056 46.9234 191.185 49.5039C197.469 53.4313 202.883 39.1834 198.685 35.6705C195.049 32.6286 184.106 32.0587 180.629 35.4761C177.009 39.035 179.143 46.1926 181.963 49.4483C186.249 54.3984 192.404 49.1149 188.018 44.2817C183.79 39.6219 171.474 39.526 166.129 41.5039C159.522 43.9487 161.328 57.9525 165.268 61.8928C167.983 64.6075 175.534 67.58 179.463 66.0594C182.112 65.0338 181.563 59.1721 180.851 57.2261C179.356 53.1386 175.64 50.0861 171.629 48.6705C168.59 47.5978 164.477 47.0333 165.24 51.5039C166.038 56.1736 169.19 58.7901 173.629 60.0039C178.136 61.2362 179.828 56.833 180.268 53.0039C180.769 48.648 180.524 45.6596 176.157 43.865C173.243 42.6674 170.343 42.4383 170.407 46.3928C170.488 51.4413 177.119 48.435 178.601 46.115C180.066 43.8219 180.389 40.8755 178.074 39.0317C175.777 37.2029 167.502 34.8854 165.129 37.8372C164.261 38.917 164.458 41.2858 164.435 42.4483C164.356 46.4253 164.37 50.4156 164.407 54.3928C164.428 56.5844 163.71 70.6688 167.685 71.0872C172.033 71.5449 172.607 62.2463 166.74 66.615C163.774 68.8242 158.606 80.0228 163.935 82.4205C171.286 85.7285 170.718 68.5509 169.851 65.7261C169.184 63.5489 163.553 56.4821 160.935 56.8094C159.508 56.9878 157.386 60.4329 156.74 61.5039C155.438 63.6649 155.409 66.3185 156.129 68.6705C157.561 73.3458 159.31 78.7987 162.463 82.615C165.791 86.6438 170.553 89.0016 175.49 90.365C177.208 90.8394 185.373 93.6879 187.296 92.115C188.201 91.3746 185.49 90.9016 185.463 90.8928C178.419 88.6183 171.162 85.3459 166.74 79.1705C164.995 76.7336 163.816 73.8709 163.907 70.8372C164.023 66.961 167.223 64.2708 169.296 61.3094C169.317 61.2797 171.56 57.38 171.351 58.4205C170.295 63.7005 168.345 68.8192 167.24 74.115C165.811 80.966 163.922 94.2261 174.268 94.2261C175.803 94.2261 174.78 93.8036 173.907 93.4761C170.657 92.2575 167.062 91.7715 164.24 89.615C160.021 86.3904 152.189 79.3959 158.185 74.3372C159.22 73.4634 156.576 76.1777 156.296 76.6705C155.002 78.946 153.654 82.471 154.018 85.1983C154.164 86.2951 154.954 86.9581 155.879 87.4205C157.3 88.1309 153.97 84.8044 153.518 83.2817C152.536 79.973 152.712 75.8899 153.129 72.5039C153.209 71.8535 154.615 66.6683 153.879 67.2817C149.23 71.1563 147.907 77.0383 147.907 82.8094C147.907 84.2097 147.702 85.8045 147.935 87.1983C148.091 88.1362 148.926 87.6858 148.907 86.8928C148.863 85.0273 147.787 84.147 146.574 82.8928C144.2 80.439 143.118 77.7278 142.99 74.2817C142.904 71.9592 144.355 69.4769 143.518 67.3372C143.504 67.3007 138.548 70.6969 137.99 71.0039C133.292 73.5908 127.811 76.1387 122.407 76.7261C122.042 76.7658 121.1 77.5155 121.018 77.5039C120.656 77.4522 125.829 70.2703 126.407 69.7817C130.976 65.9207 135.613 63.8755 138.546 58.365C138.924 57.6539 139.928 53.373 140.907 53.2261C142.374 53.0061 151.041 53.1132 150.74 53.865C150.172 55.2865 148.984 56.5866 148.296 57.9483C146.259 61.9774 144.865 66.3189 143.518 70.615C142.697 73.2338 141.407 76.0181 141.407 78.8094C141.407 81.0354 141.574 74.3263 142.129 72.1705C142.925 69.0774 144.075 65.4685 145.851 62.7817C148.744 58.4069 155.451 57.4419 159.963 55.6705C164.505 53.8872 168.699 51.8911 173.407 50.5594C173.909 50.4173 177.541 49.2762 176.685 49.1983C169.051 48.5044 161.202 48.5167 153.574 49.1983C147.615 49.7308 141.279 50.6359 135.685 52.8928C131.67 54.5126 130.87 56.8728 130.518 60.8372C130.46 61.4958 130.358 64.8054 130.351 64.7817C129.462 61.4478 129.053 57.8239 129.629 54.3928C131.561 42.898 144.154 41.5317 153.629 41.2261C157.128 41.1132 161.228 40.5578 163.963 38.1705C165.582 36.7572 165.634 34.3792 166.935 32.7539C170.601 28.1715 174.669 33.0994 177.601 36.0317C179.132 37.5626 183.709 44.3243 184.407 39.0039C184.598 37.547 186.57 31.8372 188.407 31.8372C189.317 31.8372 191.146 34.5379 191.851 35.1428C192.744 35.9078 192.369 33.9985 192.435 33.5039C192.585 32.3795 194.332 31.8802 192.74 31.615C190.659 31.2681 187.775 29.7097 185.657 30.3372C182.702 31.2129 180.461 36.1172 178.518 38.2817C176.718 40.2864 173.786 43.1484 171.185 43.9205C166.476 45.3184 159.388 45.4993 154.768 43.7817C153.039 43.1386 151.941 41.9448 151.24 40.2817C150.999 39.7092 151.029 37.8393 150.907 38.4483C150.472 40.625 150.338 51.9158 148.296 52.1428C146.016 52.3961 144.251 50.0699 142.851 48.6705C142.502 48.321 140.088 45.4608 139.935 46.8372C139.727 48.7069 139.314 50.4348 138.963 52.2817C138.783 53.2248 139.069 52.2223 139.129 52.115C140.347 49.9433 143.422 49.0151 145.518 48.1705C149.332 46.6337 154.194 45.7549 157.518 43.3372C157.914 43.0494 158.346 43.7261 156.296 43.7261C153.87 43.7261 151.444 43.7261 149.018 43.7261C147.68 43.7261 147.115 44.4819 145.907 44.8372C142.896 45.7229 142.81 48.5048 140.796 50.615C138.529 52.99 136.907 55.4774 136.907 58.9205C136.907 63.8101 132.058 54.7035 131.796 52.8928C131.679 52.0832 130.815 48.9045 131.629 48.2261C132.312 47.6567 133.873 47.5742 134.629 47.4205C137.39 46.8597 140.162 46.218 142.796 45.1983C143.521 44.9175 147.917 42.7002 147.296 42.7261C145.925 42.7832 145.106 43.9333 144.657 45.1428C143.387 48.5615 142.461 54.6957 143.518 58.3372C143.937 59.7791 146.514 61.4652 144.601 60.115C141.92 58.2221 138.407 54.106 138.407 50.7261C138.407 49.6752 138.271 48.5934 139.268 47.9483C139.699 47.6692 144.147 45.9688 144.074 45.8372C143.051 43.9966 139.28 52.46 139.213 52.615C138.011 55.3872 137.751 58.9391 139.907 61.2261C142.298 63.7624 139.278 63.3035 138.935 65.5317C138.542 68.0835 141.778 69.2841 140.379 66.2539C139.586 64.536 137.797 63.3426 136.463 62.0594C135.36 60.9995 133.055 60.4576 132.907 58.7261C132.689 56.1794 131.781 56.7061 131.935 59.0872C132.069 61.1671 132.438 63.3839 134.213 64.6983C134.972 65.2606 137.424 65.8228 137.796 66.7261C138.436 68.2796 132.778 66.1749 131.907 66.2261C130.924 66.2839 131.561 70.3077 131.129 71.1705C130.968 71.4927 130.213 72.9324 129.907 72.5039C129.27 71.6123 129.541 69.9999 129.74 69.0594C130.644 64.7901 132.813 62.4586 136.851 60.7261C159.985 50.8007 184.968 56.4894 209.157 53.6983C212.002 53.3701 211.771 53.4214 212.518 51.615C213.491 49.2633 215.597 48.0336 216.074 45.3094C216.46 43.1012 214.18 41.0792 215.129 39.0039C216.058 36.9729 217.249 34.2631 216.851 31.9761C216.045 27.3416 213.229 32.4355 212.296 32.615C210.232 33.0119 210.335 26.3124 210.518 25.115C210.969 22.1559 213.051 20.6199 215.518 23.0872C216.142 23.7112 221.268 31.0596 219.824 31.7817C218.877 32.2551 216.388 26.2448 216.24 25.8928C215.742 24.7043 213.277 20.1516 214.129 18.9483C214.879 17.8894 219.831 19.1128 220.907 19.2261C222.71 19.4159 225.012 19.2033 225.518 21.2261C226.767 26.2224 226.439 31.5312 226.657 36.6428C226.755 38.9361 226.597 46.0966 230.24 42.615C231.733 41.1887 233.736 40.207 234.296 38.0594C234.416 37.5977 234.407 35.4397 234.407 35.7817C234.407 37.2293 237.666 41.2261 239.074 41.2261C240.894 41.2261 236.214 38.8851 235.213 37.365C234.847 36.8093 232.453 32.4564 233.629 31.8372C237.152 29.983 241.846 35.1119 243.49 37.365C244.733 39.0676 243.412 45.7411 243.018 43.6705C242.639 41.6826 243.047 39.6715 242.574 37.6705C242.403 36.9504 239.888 31.0205 241.24 32.115C245.276 35.3821 250.539 36.1171 255.074 38.5039C256.633 39.3247 256.907 40.3317 256.907 42.0039C256.907 43.8506 256.701 45.8139 256.963 47.6428C257.061 48.3347 258.395 51.5373 257.685 49.115C257.234 47.5776 254.415 39.7754 257.963 42.3094C262.272 45.3874 269.062 51.6559 266.907 57.615C266.375 59.0862 265.516 58.7272 264.324 58.1705C259.031 55.7008 252.188 55.479 246.463 55.7817C242.189 56.0076 242.879 58.6605 241.296 61.7261C238.714 66.7255 233.588 71.0654 229.74 75.0594C229.029 75.7979 223.907 81.9229 223.907 78.1428C223.907 75.8458 223.458 73.618 223.407 71.3372C223.288 65.9602 229.479 75.9999 229.907 76.8928C230.649 78.442 230.694 80.7212 229.685 82.1705C228.791 83.4543 227.561 84.3021 226.324 85.2261C222.594 88.0103 219.207 91.0431 216.268 94.6705C213.776 97.7472 211.622 101.455 210.324 105.198C209.579 107.345 210.299 107.361 212.296 107.615C214.589 107.907 211.848 106.177 211.24 105.448C209.901 103.841 208.529 101.61 209.24 99.4761C210.158 96.7229 214.26 95.4096 216.435 93.8928C219.293 91.8996 222.795 89.8963 224.296 86.615C225.953 82.9928 226.64 79.1341 226.157 75.1705C225.652 71.0291 226.817 76.7166 227.074 77.8928C228.563 84.7211 224.26 86.2368 219.185 89.9483C213.855 93.8466 213.104 99.8768 212.518 106.171C212.382 107.637 211.998 110.113 212.518 111.615C212.807 112.45 216.694 113.941 214.879 112.921C211.183 110.841 208.017 106.493 212.629 103.726C217.42 100.852 221.707 98.1437 225.796 94.3372C229.66 90.7398 228.907 85.7667 228.907 80.8094C228.907 76.7573 228.757 72.6657 228.907 68.615C229.014 65.7256 234.101 70.8649 234.796 71.615C235.363 72.2276 235.43 72.6308 235.407 73.4483C235.288 77.5998 232.779 82.1355 231.768 86.1428C230.957 89.3554 230.407 92.2563 230.407 95.5594C230.407 97.8678 229.651 96.8979 230.463 95.3928C232.808 91.046 234.889 86.5981 237.185 82.2261C238.464 79.7892 238.627 76.8934 239.907 74.5594C240.149 74.1175 240.764 73.3868 240.879 74.3094C241.493 79.2231 240.983 84.0089 237.518 87.615C235.003 90.2329 232.748 92.9166 230.018 95.3372C228.612 96.5838 227.345 99.7366 225.685 100.448C225.182 100.664 227.664 98.4383 227.796 98.3372C231.073 95.8219 234.202 92.8209 236.296 89.2261C238.524 85.4015 238.278 80.8072 238.379 76.5039C238.434 74.1754 239.574 68.1868 237.907 66.2261C235.541 63.4428 236.407 73.5563 236.407 74.0317C236.407 78.0392 235.572 76.0515 234.574 73.365C229.378 59.3896 220.081 49.8621 208.629 40.4483C208.528 40.3648 195.797 28.8389 196.518 33.7817C196.655 34.7193 197.651 35.1269 198.129 34.1705C200.898 28.6323 186.311 19.9397 182.546 18.1428C179.746 16.8067 176.787 18.0221 174.018 19.2261C169.971 20.9859 171.907 34.9092 171.907 38.5039C171.907 40.5675 171.694 39.5483 172.046 38.1428C172.924 34.6308 177.923 32.4026 181.185 31.8372C183.485 31.4385 184.561 32.3799 186.129 33.9483C186.277 34.0965 188.153 36.299 188.296 36.115C189.186 34.9709 182.721 28.1494 181.935 27.5594C179.982 26.0948 177.777 30.6416 177.518 32.3372C176.743 37.421 181.581 29.1955 181.851 27.5039C182.512 23.3756 180.974 22.7261 177.324 22.7261C175.474 22.7261 173.073 22.467 171.435 23.5317C169.101 25.0489 169.402 29.7275 168.407 32.115C167.168 35.088 164.407 35.6298 164.407 38.7261C164.407 38.8878 164.479 41.924 164.935 41.3928C168.09 37.7121 168.883 35.4244 174.518 34.6705C186.518 33.0652 198.964 34.7261 210.907 34.7261" stroke="black" stroke-width="3" stroke-linecap="round"/>
</svg>
