<svg width="401" height="132" viewBox="0 0 401 132" fill="none" xmlns="http://www.w3.org/2000/svg">
<path d="M141.005 73.1682C142.153 78.2675 148.732 85.785 154.005 87.6682C159.465 89.618 164.708 92.7612 170.339 94.1127C180.423 96.533 190.837 97.1682 201.228 97.1682C220.995 97.1682 244.509 99.8442 261.894 88.6682C265.213 86.5348 267.005 81.3423 267.005 77.6682C267.005 73.7532 259.479 74.1682 256.95 74.1682C251.018 74.1682 246.919 71.8447 241.339 71.1682C233.053 70.1639 225.694 68.1682 217.339 68.1682C209.228 68.1682 201.185 67.1682 193.061 67.1682C187.799 67.1682 182.764 68.1682 177.45 68.1682C172.562 68.1682 164.09 66.5581 159.45 68.7238C157.682 69.5486 143.975 73.6308 144.228 74.1682C147.312 80.7229 165.461 82.6035 170.228 83.7238C181.518 86.3772 193.462 88.9968 205.116 89.1682C212.171 89.272 219.879 91.1181 226.839 89.6682C230.803 88.8422 234.561 87.2859 238.561 86.6127C243.9 85.714 248.77 87.0571 254.061 87.0571C259.655 87.0571 243.473 83.3529 238.005 82.1682C229.362 80.2955 219.834 75.1682 211.005 75.1682C197.746 75.1682 184.486 75.1154 171.228 75.1682C169.306 75.1759 152.005 73.6356 152.005 77.6682C152.005 80.7809 166.52 80.7934 168.116 80.946C181.952 82.2689 196.269 82.8256 210.172 82.1127C214.942 81.868 219.5 80.338 224.339 80.1682C225.782 80.1176 226.384 80.0422 224.228 79.5571C218.69 78.3111 213.077 77.4747 207.561 76.1127C198.295 73.8248 189.021 71.3972 179.894 68.6127C175.945 67.4079 171.398 69.1278 167.45 69.6127C161.526 70.3402 155.617 70.0361 149.672 70.1682C144.975 70.2726 150.248 76.8887 151.894 77.7238C162.235 82.9689 175.463 86.0929 186.894 86.946C196.776 87.6834 211.878 88.8461 220.228 83.1682C222.587 81.564 226.656 79.1682 220.894 79.1682C206.693 79.1682 192.581 77.7333 178.394 77.2793C171.746 77.0666 164.232 76.213 157.783 78.3904C155.612 79.1234 143.047 84.4595 150.783 86.946C154.843 88.2509 160.302 88.4536 164.45 88.946C178.369 90.5985 192.512 92.2381 206.505 93.1127C212.74 93.5023 218.473 91.9902 224.394 90.1682C227.414 89.239 229.64 87.581 231.45 85.1682C232.051 84.3665 220.163 78.8561 218.783 78.3904C213.228 76.5163 207.043 77.1682 201.283 77.1682C192.734 77.1682 203.992 78.7429 206.45 78.946C213.243 79.5074 220.075 80.1682 226.894 80.1682C232.209 80.1682 234.831 79.2624 239.505 78.2238C248.962 76.1223 229.089 72.3135 227.061 71.7238C221.506 70.1089 215.663 67.933 209.783 68.1682C209.669 68.1728 219.988 72.3419 222.339 73.1127C230.476 75.7806 238.511 77.6696 246.839 79.6127C250.896 80.5594 251.798 80.9459 250.95 85.6127C249.9 91.3859 228.189 93.0229 223.283 93.7238C216.06 94.7557 209.169 96.9401 202.005 98.1682C199.619 98.5774 197.105 99.0571 194.672 99.0571C191.162 99.0571 201.614 97.9447 205.116 97.7238C220.107 96.7784 235.116 97.4775 250.116 97.1682C252.65 97.116 254.71 96.3523 256.505 94.5571C258.696 92.3667 260.052 90.131 262.505 88.1682C263.497 87.3749 267.573 85.369 268.005 84.6127C270.169 80.8268 268.405 81.0115 265.45 79.6682C262.527 78.3399 260.46 79.581 257.783 77.3904C255.529 75.5461 250.118 75.2311 247.228 75.1682C238.041 74.9685 229.227 72.4785 220.228 72.1682C210.814 71.8436 201.167 73.1682 191.672 73.1682C180.44 73.1682 169.307 72.1682 158.005 72.1682C155.442 72.1682 153.448 73.0245 151.005 73.1682C149.708 73.2445 149.792 74.8686 148.45 75.1127C146.173 75.5266 143.532 75.1682 141.228 75.1682C138.86 75.1682 132.795 74.388 133.005 78.1682C133.142 80.6252 137.914 83.1085 140.005 83.1682C154.167 83.5728 168.331 85.1682 182.561 85.1682C204.376 85.1682 226.191 85.1682 248.005 85.1682C251.566 85.1682 254.445 83.3017 257.783 83.1682C259.919 83.0828 264.013 84.1801 262.005 81.1682" stroke="black" stroke-width="3" stroke-linecap="round"/>
<path d="M178.005 74.1683C178.005 69.7407 178.924 65.541 179.005 61.1683C179.062 58.1255 178.269 54.1339 179.116 51.1683C181.184 43.9328 188.399 40.3871 193.95 36.2238C199.982 31.7 213.55 29.2161 218.228 37.1683C223.871 46.7618 235.005 47.1172 235.005 59.6127C235.005 63.7979 235.005 67.9831 235.005 72.1683C235.005 76.6978 234.524 82.5868 233.228 73.9461C232.557 69.474 232.178 64.7485 230.228 60.6127C229.029 58.072 228.69 54.972 227.45 52.6683C222.881 44.1825 223.319 57.1886 222.894 61.2238C222.449 65.4526 219.822 77.574 219.061 73.3905C218.082 68.0062 219.13 62.4292 218.005 56.9461C217.749 55.6942 217.638 46.9935 215.394 50.4461C213.622 53.1731 212.225 56.1966 211.061 59.2238C209.892 62.2628 208.795 71.6604 208.005 68.5016C207.14 65.0409 212.341 39.1843 205.95 42.7794C201.093 45.5113 200.171 54.4682 198.228 59.1683C197.856 60.0662 191.431 72.221 191.061 70.5572C189.992 65.748 193.892 59.6157 194.005 54.6127C194.055 52.4168 193.741 41.9667 191.061 49.1127C190.112 51.6433 184.913 68.0704 181.561 67.1127C179.433 66.5049 180.048 56.9818 180.561 55.2238C181.371 52.4467 182.316 50.5164 183.783 48.1683C185.439 45.5194 186.005 54.8118 186.005 55.2238C186.005 60.1793 185.73 65.2191 186.005 70.1683C186.084 71.577 187.722 69.4546 187.894 69.2794C192.372 64.7243 196.596 59.8151 200.45 54.7238C202.739 51.7 204.357 49.0317 205.228 45.3905C205.34 44.9216 206.335 41.3002 205.894 44.0572C204.369 53.5892 198.98 62.8006 195.672 71.835C193.189 78.6164 197.535 67.1797 198.005 65.6683C199.478 60.9362 200.005 56.745 200.005 51.835C200.005 46.9174 195.96 60.8215 194.45 65.5016C192.389 71.8898 201.125 59.3952 202.339 57.8905C206.096 53.2319 205.005 56.186 205.005 60.6127C205.005 62.167 204.218 72.2782 205.45 67.2794C206.745 62.0207 209.888 53.3181 207.894 47.835C206.405 43.7395 190.355 75.1533 196.672 72.4461C202.029 70.1501 206.55 64.3237 208.95 59.2238C209.212 58.6665 212.398 50.9195 212.783 51.3905C214.384 53.3465 217.005 73.6923 217.005 64.9461C217.005 63.9024 217.066 53.6127 216.005 53.6127C215.612 53.6127 216.394 67.1804 216.616 68.1683C218.501 76.5436 224.222 82.4888 232.783 83.9461C238.536 84.9252 230.425 71.741 229.616 70.335C229 69.2621 227.241 63.8381 225.505 64.2238C224.102 64.5358 222.085 66.3582 222.005 63.7238C221.94 61.5813 221.832 59.5209 222.505 57.5016C224.035 52.9123 219.841 48.9467 217.228 45.6127C213.004 40.2236 201.622 34.4758 196.45 41.9461C194.695 44.4804 193.624 47.549 191.561 49.9461C190.839 50.7847 182.228 54.9085 182.228 54.5572C182.228 53.4098 190.362 48.0448 191.45 47.1127C195.007 44.0639 196.209 40.6142 201.783 40.1683C205.062 39.906 199.261 39.1683 198.505 39.1683C195.199 39.1683 194.708 39.3312 192.228 41.1683C188.492 43.9357 173.167 53.6332 186.061 46.1683C192.177 42.6271 200.702 32.7105 208.505 37.335C215.7 41.5983 221.565 57.2304 230.005 58.1683C233.066 58.5084 235.057 67.9523 228.45 56.3905C226.39 52.7861 222.992 43.1924 219.45 41.1683C217.284 39.9309 218.324 38.6405 220.005 41.7238C221.628 44.698 224.074 47.0436 225.505 50.2238C226.4 52.2129 231.517 66.1683 227.783 66.1683C224.39 66.1683 222.288 61.8363 220.45 59.5572C215.55 53.4817 211.114 47.7223 204.45 43.3905C199.333 40.0648 196.248 53.7829 195.783 56.7238C195.537 58.2824 193.364 68.6987 196.728 65.335C201.109 60.9531 212.308 45.9736 197.95 47.835C180.56 50.0892 191.503 67.0572 203.394 67.0572C204.609 67.0572 204.005 57.4742 204.005 56.1683C204.005 52.08 203.577 49.6773 198.672 51.7794C195.734 53.0384 197.005 59.3205 197.005 61.7794C197.005 70.1948 199.591 72.4207 208.005 69.9461C211.472 68.9266 216.302 67.0631 214.394 62.6127C213.249 59.9401 211.443 56.811 208.228 57.1683C204.648 57.566 204.479 64.2145 204.228 66.7238C203.517 73.8266 208.669 76.8064 214.894 78.5572C224.469 81.2502 215.843 61.9143 210.339 61.335C200.083 60.2554 196.683 74.0277 204.561 79.2794C209.158 82.3441 217.927 81.4323 219.45 75.5572C220.413 71.8408 220.005 67.7572 220.005 63.9461C220.005 63.0371 218.891 52.7758 222.005 56.6683C224.653 59.9782 228.005 61.456 228.005 66.6127C228.005 70.043 227.152 49.6353 227.005 59.6127C226.97 62.0316 228.509 71.5652 226.505 73.1683C224.537 74.7427 225.005 72.187 225.005 70.3905C225.005 66.5696 224.483 71.2899 224.005 72.7238C222.656 76.7724 223 71.9832 222.005 73.7238C219.642 77.8595 216.485 79.2957 211.783 80.1683C207.896 80.8896 203.955 81.1683 200.005 81.1683C198.925 81.1683 191.902 79.8368 194.339 80.4461C199.73 81.7938 203.872 88.4803 208.95 91.1683C212.907 93.2631 216.597 96.2855 221.228 96.1683C223.568 96.109 234.894 94.4807 234.894 90.6683C234.894 90.0784 228.302 93.6107 227.561 93.9461C222.391 96.2873 214.823 95.5639 210.116 92.5572C208.244 91.361 200.508 84.4118 203.228 81.3905C204.148 80.3673 209.298 81.1683 210.505 81.1683C214.176 81.1683 217.077 79.8838 218.005 76.1683" stroke="black" stroke-width="3" stroke-linecap="round"/>
</svg>
