<svg width="401" height="132" viewBox="0 0 401 132" fill="none" xmlns="http://www.w3.org/2000/svg">
<path d="M177.212 99.6518C179.731 102.857 181.794 105.561 185.629 107.318C187.336 108.101 189.873 107.652 191.657 107.652C194.712 107.652 197.768 107.652 200.823 107.652C211.966 107.652 221.828 103.432 229.907 95.6518C236.079 89.7077 242.042 81.0887 244.212 72.874C245.119 69.4404 246.833 60.5506 243.934 57.6518C242.548 56.2652 241.196 54.7945 239.74 53.4295C238.228 52.0117 240.37 54.7854 240.601 56.374C241.082 59.678 241.338 64.7904 239.934 67.8462C237.782 72.5299 234.063 75.8564 230.518 79.4018C226.963 82.9566 223.588 85.0361 218.768 86.8184C213.849 88.637 208.312 89.2735 203.212 90.4295C197.506 91.723 191.883 92.0835 186.046 92.1518C182.991 92.1875 179.471 92.1275 176.434 92.6795C175.284 92.8888 175.068 93.8408 175.823 94.6795C177.703 96.7681 181.101 97.7546 183.74 98.3462C190.476 99.8561 197.168 99.5793 203.99 99.2629C207.916 99.0807 212.394 99.4618 216.157 98.124C218.19 97.4009 219.462 94.9334 220.768 93.374C226.852 86.1068 231.103 77.0533 231.601 67.5407C232.026 59.4241 231.285 51.2609 231.712 43.1518C231.72 43.007 232.158 42.0292 232.184 42.0684C233.163 43.5369 232.212 49.1005 232.212 50.7073C232.212 56.0286 231.54 59.5479 228.712 64.0962C226.615 67.4694 224.867 71.6145 222.184 74.5407C217.947 79.1637 211.222 82.5353 205.601 85.1518C201.693 86.971 197.817 89.0314 193.712 90.2629C192.688 90.5702 195.195 90.6518 195.407 90.6518C197.822 90.6518 199.569 88.3984 201.212 86.9018C208.417 80.3399 215.003 72.5974 216.212 62.4851C216.967 56.1734 217.212 49.5495 217.212 43.1795C217.212 41.1646 217.317 41.7333 217.462 43.8462C217.98 51.4005 218.254 59.4887 217.101 66.9851C216.11 73.4243 212.003 79.2162 206.601 82.7629C203.762 84.627 200.755 86.0771 197.823 87.7629C196.144 88.7285 195.279 90.2445 193.823 91.4295C193.234 91.9094 190.712 93.6126 190.712 91.9018C190.712 89.3521 192.404 87.9682 194.462 86.5684C198.998 83.4841 204.439 81.8941 208.49 78.0407C215.134 71.7204 216.908 60.9764 217.823 52.3184C219.308 38.2849 219.163 23.7824 218.684 9.67955C218.487 3.84355 215.613 8.92787 215.323 11.874C214.071 24.6261 216.071 37.6527 212.934 50.2629C210.596 59.6648 205.987 66.5544 198.379 72.4573C192.184 77.2633 185.645 82.3035 178.768 86.124C177.463 86.8488 176.284 87.6085 175.212 88.6518C171.929 91.846 179.435 88.2617 180.212 88.0407C188.43 85.7038 196.997 84.4348 204.629 80.4018C208.058 78.5895 212.571 75.947 213.629 71.8462C214.736 67.5563 214.212 62.6876 214.212 58.2907C214.212 54.2957 213.708 51.2672 212.518 47.5129C211.309 43.6993 211.865 43.2227 211.49 48.3184C210.961 55.5099 212.139 66.3426 206.24 71.6518C203.541 74.0805 199.585 73.8401 196.823 76.5407C193.847 79.4507 193.23 78.7346 189.268 79.2629C185.588 79.7536 181.752 79.7205 178.073 80.4018C175.607 80.8586 178.928 80.4408 179.462 80.374C181.72 80.0918 186.045 80.5981 187.74 78.8184C189.088 77.4029 190.089 75.785 190.712 73.9295C192.792 67.7418 194.129 61.2331 195.823 54.9295C197.217 49.7423 200.622 38.5176 194.823 34.6518C193.773 33.9518 194.226 35.8025 194.296 36.4018C194.792 40.704 196.518 44.7594 197.684 48.9018C198.297 51.0781 199.661 54.3088 198.879 56.5962C197.712 60.0074 193.969 61.61 190.934 62.9295C186.627 64.8024 181.282 65.0962 177.407 67.6795C176.041 68.5897 173.759 73.2116 174.073 73.0129C178.766 70.0489 181.849 65.8265 182.49 60.2629C182.984 55.9758 183.889 49.6919 180.712 46.1518C179.76 45.091 179.125 43.8419 178.24 42.7351C176.41 40.4481 177.753 47.5433 177.796 47.7907C178.661 52.8741 180.643 57.4345 182.157 62.3184C182.702 64.0771 184.385 67.212 183.907 69.124C183.332 71.4208 177.376 75.7693 178.434 73.6518C179.039 72.4429 180.671 71.4888 181.407 70.2629C183.092 67.4535 183.43 63.5841 183.129 60.374C182.715 55.964 181.782 51.3551 180.212 47.2073C179.625 45.6563 178.635 42.7965 176.934 42.0407C176.737 41.9529 176.36 45.5027 176.323 45.9295C175.854 51.3577 177.439 57.158 179.046 62.2629C180.329 66.34 185.485 75.2809 181.184 79.1518C179.566 80.6087 177.249 80.6111 176.74 82.9018C175.494 88.5087 178.81 71.5894 179.379 65.874C179.983 59.8077 180.886 51.1918 173.934 48.6518C171.372 47.7157 171.549 48.9227 172.018 51.3184C172.915 55.9062 175.585 60.3233 174.601 65.1518C174.386 66.206 171.034 72.0962 169.99 72.0962C169.536 72.0962 169.421 67.5558 169.379 67.2907C168.627 62.577 166.44 60.1835 162.49 57.7073C160.467 56.4389 158.176 54.9722 155.823 54.374C153.158 53.6963 157.79 59.4676 158.101 59.9851C160.351 63.728 162.953 66.9617 165.49 70.4851C166.153 71.4066 166.927 72.7439 167.184 73.9018C167.461 75.1458 165.082 76.2179 164.101 75.8184C161.862 74.9061 160.961 70.2219 159.934 68.374C159.074 66.8252 157.324 64.9857 155.823 63.9851C153.462 62.411 157.442 69.5577 159.157 71.8184C159.66 72.4814 162.503 75.735 160.712 76.5407C159.68 77.0049 156.596 75.8638 156.212 77.2073C155.283 80.4579 156.464 84.6518 160.629 84.6518C160.962 84.6518 157.475 84.2725 160.157 85.2629C160.594 85.4242 164.144 86.1518 162.712 86.1518C161.509 86.1518 160.305 86.1518 159.101 86.1518C155.106 86.1518 157.097 85.9802 159.796 84.374C161.162 83.5606 165.32 82.365 165.796 80.6518C166.009 79.882 163.564 79.4944 164.129 78.9295C165.199 77.8599 170.363 80.7882 170.601 78.2629C171.169 72.2291 170.092 65.782 169.184 59.8462C168.549 55.6897 165.734 43.4699 167.296 47.374C167.701 48.3873 171.712 56.2957 171.712 54.2629C171.712 53.6277 171.116 52.7306 172.101 52.6518C172.736 52.601 173.94 52.443 174.323 53.0962C176.516 56.8318 175.608 63.3196 175.712 67.374C175.746 68.6958 175.934 79.8175 177.073 72.1795C178.612 61.8595 180.026 51.4854 180.184 41.0407C180.212 39.2411 179.984 33.9329 180.518 35.6518C181.551 38.98 182.13 42.4851 182.601 45.9295C182.984 48.7261 182.448 52.8277 183.712 55.4295C184.415 56.8757 184.818 52.8171 184.823 52.7629C184.92 51.7598 184.984 45.4014 186.601 45.2073C187.138 45.1429 187.212 81.2192 187.212 83.4851C187.212 85.124 187.212 86.7629 187.212 88.4018C187.212 90.2206 187.209 88.2686 187.212 88.2073C187.565 82.1257 192.669 76.6182 196.212 72.1518C204.402 61.8274 213.868 52.4606 221.434 41.6518C223.085 39.2936 224.634 36.8101 225.879 34.2073C226.485 32.9407 225.629 34.7674 225.546 35.0129C222.314 44.5608 219.826 54.3253 216.24 63.7629C215.065 66.8549 212.984 74.6628 209.49 76.5684C206.736 78.0707 210.703 63.6339 210.768 63.374C211.195 61.6719 213.578 55.8278 212.601 53.874C211.896 52.4647 208.923 56.6205 208.823 56.8184C206.032 62.3575 205.988 71.1306 199.018 72.6795C196.871 73.1566 203.094 67.9973 203.823 67.2073C209.162 61.4234 208.212 55.9247 208.212 48.3462C208.212 43.1147 208.212 37.8832 208.212 32.6518C208.212 30.2977 209.441 33.013 209.712 33.9295C211.488 39.9405 211.645 46.7682 212.129 52.9295C212.634 59.3576 213.077 65.8134 213.212 72.2629C213.358 79.2429 211.124 85.8181 205.657 90.4573C205.353 90.715 204.763 91.5423 204.684 91.1518C204.656 91.0096 204.786 90.8742 204.879 90.7629C206.047 89.3612 207.762 87.8288 209.046 86.7073C219.735 77.3684 234.09 68.4062 240.101 54.9851C244.004 46.2719 243.212 16.9656 243.212 26.5129C243.212 30.0584 242.73 33.5007 241.768 36.9295C239.639 44.5157 235.536 52.8525 231.49 59.5962C225.015 70.3887 215.367 78.0454 207.323 87.4295C206.048 88.9174 204.814 88.908 203.268 89.9018C202.073 90.6696 201.283 90.4892 199.657 91.3184C198.942 91.6829 198.016 92.5752 197.212 92.6518C196.254 92.743 195.378 92.5412 194.601 93.2629C194.115 93.7142 190.639 97.4591 191.546 97.624C198.657 98.917 206.245 96.7709 208.962 89.8462C210.119 86.8982 211.192 83.7136 213.434 81.374C213.66 81.1389 216.13 78.7394 216.601 78.874C216.677 78.8958 214.195 83.4278 214.101 83.5962C212.18 87.0606 209.511 88.5906 206.712 91.1518C204.722 92.973 202.975 94.6518 200.184 94.6518C197.888 94.6518 197.173 95.0077 195.212 96.1518C192.751 97.5877 191.084 102.152 187.962 102.152C186.876 102.152 185.891 102.652 184.712 102.652C181.834 102.652 186.318 103.634 187.101 103.652C192.189 103.765 197.291 103.652 202.379 103.652C205.262 103.652 208.097 103.652 203.907 103.652C197.457 103.652 189.968 104.738 183.823 102.763C182.758 102.42 180.571 101.61 179.518 102.43C178.71 103.058 181.539 106.667 181.684 107.902C182.007 110.647 181.72 113.481 180.101 115.763C179.316 116.87 173.666 123.379 175.212 124.152" stroke="black" stroke-width="3" stroke-linecap="round"/>
</svg>
